{
.appVersion = "3058";
.formatVersion = 3;
DisplayStrings = (
"א
ב
ג
ד
ה
וזחטיכךלמםנןסעפףצץ קרשת
אופטימיות זהירה עציץ קיבוץ מעריץ חסינות עדר, טמיר
אהבה זה ריחוק
המונח \"קרנטינה\" נגזר מהמילה האיטלקית \"קוורנטה\", שפירושה ש״ח \"ארבעים\"  ארבעים ימי ההסגר שהוטלו ברל׳ה ברל'ה בעבר על כלי שיט שהגיעו לחופי איטליה ממקומות שבהם היו מגפות. )למה/.notdef  נראה לך¿?!( ₿$8%₪
*בואו }נחשוב{ דני+מירה 
1+2-3=4 ברל׳ה י׳חמוד@a©c
תקראו את זה: למה ככה?.…
v1√¬∏|≠←↓↖↘↙↗↑→v„,,
",
"We were both young when I first saw you
I close my eyes and the flashback starts wear a mask WEAR A MASK would you be my quarantine?
I'm standin' there
On a balcony in summer air WORKING FORM HOME
See the lights, see the party, the ball gowns
See you make your way through the crowd
And say, \"Hello\"
Little did I know
That you were Romeo, you were throwin' pebbles
And my daddy said, \"Stay away from Juliet\"
And I was cryin' on the staircase
Beggin' you, \"Please don't go, \" and I said
Romeo, take me somewhere we can be alone
I'll be waiting, all there's left to do is run
You'll be the prince and I'll be the princess
It's a love story, baby, just say, \"Yes\"
So I sneak out to the garden to see you
We keep quiet, 'cause we're dead if they knew
So close your eyes
Escape this town for a little while, oh oh
'Cause you were Romeo, I was a
30° temperature @ Romeo&Juliette 8",
"אאאבאגאדאהאואזאחאטאיאכאךאלאמאם
אנאןאסאעאפאףאצאץ
אקאראשאתאאבאבבבגבדבהבובזבחב
טביבכבךבלבמבםבנבןבסבעבפבף
בצבץ
בקברבשבתבאגאגבגגגדגהגוגזגחגטגיגכגך
גלגמגםגנגןגסגעגפגףגצגץ
גקגרגשגתגאדאדבדגדדדהדודזדחדטדידכ
דךדלדמדם
דנדן
דסדעדפדף
דצדץ
דקדרדשדתדאהאהבהגהדהההוהזהחהטהיהכ
הךהלהמהם
הנהן
הסהעהפהף
הצהץ
הקהרהשהתהאואובוגודוהוווזוחוטויוכוך
ולומום
ונוןוסועופוף
וצוץוקורושותואזאזבזגזדזהזוזזזחזטזיזכזך
זלזמזם
זנזן
זסזעזפזף
זצזץ
זקזרזשזתזאחאחבחגחדחהחוחזחחחטחיחכחך
חלחמחםחנחןחסחעחפחף
חצחץ
חקחרחשחתחאטאטבטגטדטהטוטזטחטטטיטכ
טךטלטמטםטנטן
טסטעטפטף
טצטץ
טקטרטשטתטאיאיביגידיהיויזיחיטיייכיך
ילימים
ינין
יסיעיפיףיציץ
יקירישיתיאכאכבכגכדכהכוכזכחכטכיכככך
כלכמכם
כנכןכסכעכפכף
כצכץ

glyphs = (
{
glyphname = A;
kernLeft = A;
kernRight = A;
lastChange = "2021-03-02 20:29:08 +0000";
layers = (
{
anchors = (
{
name = bottom;
pos = (140,0);
},
{
name = ogonek;
pos = (251,10);
},
{
name = top;
pos = (140,700);
}
);
layerId = "A98666DC-4638-42B6-8332-BBF4982DF0EF";
shapes = (
{
closed = 1;
nodes = (
(259,0,l),
(197,700,l),
(150,700,l),
(213,0,l)
);
},
{
closed = 1;
nodes = (
(229,141,l),
(229,194,l),
(54,194,l),
(54,141,l)
);
},
{
closed = 1;
nodes = (
(66,0,l),
(129,700,l),
(82,700,l),
(20,0,l)
);
},
{
closed = 1;
nodes = (
(197,647,l),
(197,700,l),
(74,700,l),
(64,647,l)
);
}
);
width = 279;
},
{
anchors = (
{
name = bottom;
pos = (156,0);
},
{
name = ogonek;
pos = (280,10);
},
{
name = top;
pos = (156,700);
}
);
layerId = "83682BA5-5A7B-4081-8B26-D550B6F33EEB";
shapes = (
{
closed = 1;
nodes = (
(301,0,l),
(239,700,l),
(143,700,l),
(206,0,l)
);
},
{
closed = 1;
nodes = (
(168,700,l),
(72,700,l),
(10,0,l),
(105,0,l)
);
},
{
closed = 1;
nodes = (
(41,213,l),
(41,120,l),
(270,120,l),
(270,213,l)
);
},
{
closed = 1;
nodes = (
(56,700,l),
(46,607,l),
(239,607,l),
(239,700,l)
);
}
);
width = 311;
},
{
anchors = (
{
name = bottom;
pos = (226,0);
},
{
name = ogonek;
pos = (407,10);
},
{
name = top;
pos = (226,700);
}
);
layerId = "E6A807D2-02F5-45B7-9AC8-B5230FFEC057";
shapes = (
{
closed = 1;
nodes = (
(432,0,l),
(329,700,l),
(194,700,l),
(297,0,l)
);
},
{
closed = 1;
nodes = (
(340,100,l),
(340,233,l),
(111,233,l),
(111,100,l)
);
},
{
closed = 1;
nodes = (
(155,0,l),
(258,700,l),
(123,700,l),
(20,0,l)
);
},
{
closed = 1;
nodes = (
(328,567,l),
(328,700,l),
(96,700,l),
(82,567,l)
);
}
);
width = 452;
}
);
unicode = 65;
},
{
glyphname = AE;
kernLeft = A;
lastChange = "2021-02-20 12:41:49 +0000";
layers = (
{
anchors = (
{
name = bottom;
pos = (195,0);
},
{
name = top;
pos = (195,700);
}
);
layerId = "A98666DC-4638-42B6-8332-BBF4982DF0EF";
shapes = (
{
closed = 1;
nodes = (
(173,700,l),
(173,647,l),
(363,647,l),
(369,700,l)
);
},
{
closed = 1;
nodes = (
(197,647,l),
(197,700,l),
(74,700,l),
(64,647,l)
);
},
{
closed = 1;
nodes = (
(213,377,l),
(213,324,l),
(363,324,l),
(369,377,l)
);
},
{
closed = 1;
nodes = (
(213,53,l),
(213,0,l),
(363,0,l),
(369,53,l)
);
},
{
closed = 1;
nodes = (
(259,0,l),
(197,700,l),
(150,700,l),
(213,0,l)
);
},
{
closed = 1;
nodes = (
(66,0,l),
(129,700,l),
(82,700,l),
(20,0,l)
);
},
{
closed = 1;
nodes = (
(229,141,l),
(229,194,l),
(54,194,l),
(54,141,l)
);
}
);
width = 389;
},
{
anchors = (
{
name = bottom;
pos = (232,0);
},
{
name = top;
pos = (232,700);
}
);
layerId = "83682BA5-5A7B-4081-8B26-D550B6F33EEB";
shapes = (
{
closed = 1;
nodes = (
(216,700,l),
(216,607,l),
(433,607,l),
(443,700,l)
);
},
{
closed = 1;
nodes = (
(66,700,l),
(56,607,l),
(249,607,l),
(249,700,l)
);
},
{
closed = 1;
nodes = (
(216,397,l),
(216,304,l),
(413,304,l),
(423,397,l)
);
},
{
closed = 1;
nodes = (
(216,93,l),
(216,0,l),
(435,0,l),
(443,93,l)
);
},
{
closed = 1;
nodes = (
(311,0,l),
(249,700,l),
(153,700,l),
(216,0,l)
);
},
{
closed = 1;
nodes = (
(178,700,l),
(82,700,l),
(20,0,l),
(115,0,l)
);
},
{
closed = 1;
nodes = (
(51,213,l),
(51,120,l),
(280,120,l),
(280,213,l)
);
}
);
width = 463;
},
{
anchors = (
{
name = bottom;
pos = (300,0);
},
{
name = top;
pos = (300,700);
}
);
layerId = "E6A807D2-02F5-45B7-9AC8-B5230FFEC057";
shapes = (
{
closed = 1;
nodes = (
(550,567,l),
(558,700,l),
(277,700,l),
(277,567,l)
);
},
{
closed = 1;
nodes = (
(308,567,l),
(308,700,l),
(76,700,l),
(62,567,l)
);
},
{
closed = 1;
nodes = (
(528,284,l),
(536,417,l),
(277,417,l),
(277,284,l)
);
},
{
closed = 1;
nodes = (
(550,0,l),
(558,133,l),
(277,133,l),
(277,0,l)
);
},
{
closed = 1;
nodes = (
(412,0,l),
(309,700,l),
(174,700,l),
(277,0,l)
);
},
{
closed = 1;
nodes = (
(135,0,l),
(238,700,l),
(103,700,l),
(0,0,l)
);
},
{
closed = 1;
nodes = (
(320,100,l),
(320,233,l),
(91,233,l),
(91,100,l)
);
}
);
width = 600;
}
);
unicode = 198;
},
{
glyphname = B;
lastChange = "2021-03-02 20:26:38 +0000";
layers = (
{
anchors = (
{
name = bottom;
pos = (136,-8);
},
{
name = top;
pos = (121,700);
}
);
layerId = "A98666DC-4638-42B6-8332-BBF4982DF0EF";
shapes = (
{
closed = 1;
nodes = (
(91,-7,l),
(91,700,l),
(38,700,l),
(38,-7,l)
);
},
{
closed = 1;
nodes = (
(170,-7,ls),
(239,-7,o),
(275,29,o),
(275,97,cs),
(275,201,l),
(222,201,l),
(222,97,ls),
(222,63,o),
(204,46,o),
(170,46,cs),
(38,46,l),
(38,-7,l)
);
},
{
closed = 1;
nodes = (
(275,201,l),
(275,273,ls),
(275,341,o),
(239,377,o),
(170,377,cs),
(38,377,l),
(38,324,l),
(170,324,ls),
(204,324,o),
(222,307,o),
(222,273,cs),
(222,201,l)
);
},
{
closed = 1;
nodes = (
(150,324,ls),
(219,324,o),
(255,356,o),
(255,417,cs),
(255,524,l),
(202,524,l),
(202,417,ls),
(202,391,o),
(184,377,o),
(150,377,cs),
(38,377,l),
(38,324,l)
);
},
{
closed = 1;
nodes = (
(150,647,ls),
(184,647,o),
(202,630,o),
(202,596,cs),
(202,524,l),
(255,524,l),
(255,596,ls),
(255,664,o),
(219,700,o),
(150,700,cs),
(30,700,l),
(20,647,l)
);
}
);
width = 295;
},
{
anchors = (
{
name = bottom;
pos = (154,-7);
},
{
name = top;
pos = (134,700);
}
);
layerId = "83682BA5-5A7B-4081-8B26-D550B6F33EEB";
shapes = (
{
closed = 1;
nodes = (
(115,-7,l),
(115,700,l),
(20,700,l),
(20,-7,l)
);
},
{
closed = 1;
nodes = (
(182,-7,ls),
(238,-7,o),
(287,30,o),
(287,86,cs),
(287,151,l),
(192,151,l),
(192,91,ls),
(192,87,o),
(191,86,o),
(187,86,cs),
(20,86,l),
(21,-7,l)
);
},
{
closed = 1;
nodes = (
(287,151,l),
(287,304,ls),
(287,360,o),
(249,397,o),
(193,397,cs),
(21,397,l),
(21,304,l),
(187,304,ls),
(191,304,o),
(192,303,o),
(192,299,cs),
(192,151,l)
);
},
{
closed = 1;
nodes = (
(162,304,ls),
(218,304,o),
(267,341,o),
(267,397,cs),
(267,543,l),
(172,543,l),
(172,402,ls),
(172,398,o),
(171,397,o),
(167,397,cs),
(20,397,l),
(21,304,l)
);
},
{
closed = 1;
nodes = (
(167,607,ls),
(171,607,o),
(172,606,o),
(172,602,cs),
(172,543,l),
(267,543,l),
(267,607,ls),
(267,663,o),
(229,700,o),
(173,700,cs),
(15,700,l),
(5,607,l)
);
}
);
width = 307;
},
{
anchors = (
{
name = bottom;
pos = (200,0);
},
{
name = top;
pos = (200,700);
}
);
layerId = "E6A807D2-02F5-45B7-9AC8-B5230FFEC057";
shapes = (
{
closed = 1;
nodes = (
(170,0,l),
(170,700,l),
(34,700,l),
(34,0,l)
);
},
{
closed = 1;
nodes = (
(240,0,ls),
(343,0,o),
(384,41,o),
(384,143,cs),
(384,173,l),
(248,173,l),
(248,138,ls),
(248,134,o),
(247,133,o),
(243,133,cs),
(34,133,l),
(34,0,l)
);
},
{
closed = 1;
nodes = (
(384,150,l),
(384,273,ls),
(384,375,o),
(343,416,o),
(240,416,c),
(34,416,l),
(34,283,l),
(243,283,ls),
(247,283,o),
(248,282,o),
(248,278,cs),
(248,150,l)
);
},
{
closed = 1;
nodes = (
(220,283,ls),
(323,283,o),
(364,324,o),
(364,426,cs),
(364,509,l),
(228,509,l),
(228,421,ls),
(228,417,o),
(227,416,o),
(223,416,cs),
(34,416,l),
(34,283,l)
);
},
{
closed = 1;
nodes = (
(223,567,ls),
(227,567,o),
(228,566,o),
(228,562,cs),
(228,475,l),
(364,475,l),
(364,557,ls),
(364,658,o),
(323,700,o),
(220,700,cs),
(29,700,l),
(15,567,l)
);
}
);
width = 399;
}
);
unicode = 66;
},
{
glyphname = C;
kernLeft = OU;
kernRight = OU;
lastChange = "2021-03-02 20:24:09 +0000";
layers = (
{
anchors = (
{
name = bottom;
pos = (134,-7);
},
{
name = top;
pos = (134,704);
}
);
layerId = "A98666DC-4638-42B6-8332-BBF4982DF0EF";
shapes = (
{
closed = 1;
nodes = (
(195,304,l),
(195,97,l),
(195,63,o),
(177,46,o),
(143,46,cs),
(134,46,l),
(134,-7,l),
(143,-7,ls),
(212,-7,o),
(248,29,o),
(248,97,cs),
(248,304,l)
);
},
{
closed = 1;
nodes = (
(73,300,l),
(73,611,l),
(73,637,o),
(91,651,o),
(125,651,cs),
(134,651,l),
(134,704,l),
(125,704,ls),
(56,704,o),
(20,672,o),
(20,611,cs),
(20,300,l)
);
},
{
closed = 1;
nodes = (
(20,97,ls),
(20,29,o),
(56,-7,o),
(125,-7,cs),
(134,-7,l),
(134,46,l),
(125,46,ls),
(91,46,o),
(73,63,o),
(73,97,c),
(73,300,l),
(20,300,l)
);
},
{
closed = 1;
nodes = (
(248,600,ls),
(248,668,o),
(212,704,o),
(143,704,cs),
(134,704,l),
(134,651,l),
(143,651,ls),
(177,651,o),
(195,634,o),
(195,600,c),
(195,399,l),
(248,393,l)
);
}
);
width = 268;
},
{
anchors = (
{
name = bottom;
pos = (150,-4);
},
{
name = top;
pos = (150,704);
}
);
layerId = "83682BA5-5A7B-4081-8B26-D550B6F33EEB";
shapes = (
{
closed = 1;
nodes = (
(185,304,l),
(185,94,ls),
(185,90,o),
(184,89,o),
(180,89,cs),
(150,89,l),
(150,-4,l),
(186,-4,ls),
(242,-4,o),
(280,33,o),
(280,89,cs),
(280,304,l)
);
},
{
closed = 1;
nodes = (
(115,400,l),
(115,606,ls),
(115,610,o),
(116,611,o),
(120,611,cs),
(150,611,l),
(150,704,l),
(114,704,ls),
(58,704,o),
(20,667,o),
(20,611,cs),
(20,400,l)
);
},
{
closed = 1;
nodes = (
(20,89,ls),
(20,33,o),
(58,-4,o),
(114,-4,cs),
(150,-4,l),
(150,89,l),
(120,89,ls),
(116,89,o),
(115,90,o),
(115,94,cs),
(115,400,l),
(20,400,l)
);
},
{
closed = 1;
nodes = (
(280,611,ls),
(280,667,o),
(242,704,o),
(186,704,cs),
(150,704,l),
(150,611,l),
(180,611,ls),
(184,611,o),
(185,610,o),
(185,606,cs),
(185,397,l),
(280,387,l)
);
}
);
width = 300;
},
{
anchors = (
{
name = bottom;
pos = (186,0);
},
{
name = top;
pos = (186,708);
}
);
layerId = "E6A807D2-02F5-45B7-9AC8-B5230FFEC057";
shapes = (
{
closed = 1;
nodes = (
(216,290,l),
(216,130,ls),
(216,126,o),
(215,125,o),
(211,125,cs),
(186,125,l),
(186,-8,l),
(208,-8,ls),
(311,-8,o),
(352,33,o),
(352,135,cs),
(352,290,l)
);
},
{
closed = 1;
nodes = (
(156,400,l),
(156,570,ls),
(156,574,o),
(157,575,o),
(161,575,cs),
(186,575,l),
(186,708,l),
(164,708,ls),
(61,708,o),
(20,667,o),
(20,565,cs),
(20,400,l)
);
},
{
closed = 1;
nodes = (
(20,135,ls),
(20,33,o),
(61,-8,o),
(164,-8,cs),
(186,-8,l),
(186,125,l),
(161,125,ls),
(157,125,o),
(156,126,o),
(156,130,cs),
(156,400,l),
(20,400,l)
);
},
{
closed = 1;
nodes = (
(352,565,ls),
(352,667,o),
(311,708,o),
(208,708,cs),
(186,708,l),
(186,575,l),
(211,575,ls),
(215,575,o),
(216,574,o),
(216,570,cs),
(216,415,l),
(352,400,l)
);
}
);
width = 372;
},
{
anchors = (
{
name = bottom;
pos = (134,-7);
},
{
name = top;
pos = (134,704);
}
);
associatedMasterId = "A98666DC-4638-42B6-8332-BBF4982DF0EF";
layerId = "8825209C-9C7D-49CF-947F-D5B54FED37D7";
name = "20 Feb 21, 1:37";
shapes = (
{
closed = 1;
nodes = (
(195,304,l),
(193,276,o),
(195,125,o),
(195,97,cs),
(195,63,o),
(177,46,o),
(143,46,cs),
(94,46,o),
(180,46,o),
(134,46,c),
(134,-7,l),
(143,-7,ls),
(212,-7,o),
(248,29,o),
(248,97,cs),
(248,304,l)
);
},
{
closed = 1;
nodes = (
(73,300,l),
(73,611,l),
(73,637,o),
(91,651,o),
(125,651,cs),
(134,651,l),
(134,704,l),
(125,704,ls),
(56,704,o),
(20,672,o),
(20,611,cs),
(20,300,l)
);
},
{
closed = 1;
nodes = (
(20,97,ls),
(20,29,o),
(56,-7,o),
(125,-7,cs),
(134,-7,l),
(134,46,l),
(84,46,o),
(174,46,o),
(125,46,cs),
(91,46,o),
(73,63,o),
(73,97,c),
(73,300,l),
(20,300,l)
);
},
{
closed = 1;
nodes = (
(248,600,ls),
(248,668,o),
(212,704,o),
(143,704,cs),
(134,704,l),
(134,651,l),
(143,651,ls),
(177,651,o),
(195,634,o),
(195,600,c),
(195,399,l),
(248,393,l)
);
}
);
width = 268;
}
);
unicode = 67;
},
{
glyphname = D;
lastChange = "2021-03-02 20:27:28 +0000";
layers = (
{
layerId = "A98666DC-4638-42B6-8332-BBF4982DF0EF";
shapes = (
{
closed = 1;
nodes = (
(25,700,l),
(15,647,l),
(150,647,ls),
(184,647,o),
(202,630,o),
(202,596,cs),
(202,341,l),
(255,341,l),
(255,596,ls),
(255,664,o),
(219,700,o),
(150,700,cs)
);
},
{
closed = 1;
nodes = (
(255,341,l),
(202,341,l),
(202,97,l),
(202,63,o),
(184,46,o),
(150,46,cs),
(33,46,l),
(33,-7,l),
(150,-7,ls),
(219,-7,o),
(255,29,o),
(255,97,cs)
);
},
{
closed = 1;
nodes = (
(33,-7,l),
(86,-7,l),
(86,700,l),
(33,700,l)
);
}
);
width = 275;
},
{
layerId = "83682BA5-5A7B-4081-8B26-D550B6F33EEB";
shapes = (
{
closed = 1;
nodes = (
(15,700,l),
(5,607,l),
(180,607,ls),
(184,607,o),
(185,606,o),
(185,602,cs),
(185,297,l),
(280,297,l),
(280,607,ls),
(280,663,o),
(242,700,o),
(186,700,cs)
);
},
{
closed = 1;
nodes = (
(280,297,l),
(185,297,l),
(185,98,ls),
(185,94,o),
(184,93,o),
(180,93,cs),
(20,93,l),
(20,0,l),
(186,0,ls),
(242,0,o),
(280,37,o),
(280,93,cs)
);
},
{
closed = 1;
nodes = (
(20,0,l),
(115,0,l),
(115,700,l),
(20,700,l)
);
}
);
width = 300;
},
{
layerId = "E6A807D2-02F5-45B7-9AC8-B5230FFEC057";
shapes = (
{
closed = 1;
nodes = (
(34,700,l),
(20,567,l),
(230,567,ls),
(234,567,o),
(235,566,o),
(235,562,cs),
(235,339,l),
(371,339,l),
(371,557,ls),
(371,659,o),
(330,700,o),
(227,700,cs)
);
},
{
closed = 1;
nodes = (
(371,347,l),
(235,347,l),
(235,138,ls),
(235,134,o),
(234,133,o),
(230,133,cs),
(39,133,l),
(39,0,l),
(227,0,ls),
(330,0,o),
(371,41,o),
(371,143,cs)
);
},
{
closed = 1;
nodes = (
(39,0,l),
(175,0,l),
(175,700,l),
(39,700,l)
);
}
);
width = 391;
}
);
unicode = 68;
},
{
glyphname = Eth;
lastChange = "2021-02-20 00:05:16 +0000";
layers = (
{
layerId = "A98666DC-4638-42B6-8332-BBF4982DF0EF";
shapes = (
{
closed = 1;
nodes = (
(190,320,l),
(190,373,l),
(20,373,l),
(20,320,l)
);
},
{
closed = 1;
nodes = (
(45,700,l),
(35,647,l),
(170,647,ls),
(204,647,o),
(222,630,o),
(222,596,cs),
(222,341,l),
(275,341,l),
(275,596,ls),
(275,664,o),
(239,700,o),
(170,700,cs)
);
},
{
closed = 1;
nodes = (
(275,341,l),
(222,341,l),
(222,97,l),
(222,63,o),
(204,46,o),
(170,46,cs),
(53,46,l),
(53,-7,l),
(170,-7,ls),
(239,-7,o),
(275,29,o),
(275,97,cs)
);
},
{
closed = 1;
nodes = (
(53,-7,l),
(106,-7,l),
(106,700,l),
(53,700,l)
);
}
);
width = 295;
},
{
layerId = "83682BA5-5A7B-4081-8B26-D550B6F33EEB";
shapes = (
{
closed = 1;
nodes = (
(188,303,l),
(188,398,l),
(20,398,l),
(20,303,l)
);
},
{
closed = 1;
nodes = (
(45,700,l),
(35,607,l),
(210,607,ls),
(214,607,o),
(215,606,o),
(215,602,cs),
(215,297,l),
(310,297,l),
(310,607,ls),
(310,663,o),
(272,700,o),
(216,700,cs)
);
},
{
closed = 1;
nodes = (
(310,297,l),
(215,297,l),
(215,98,ls),
(215,94,o),
(214,93,o),
(210,93,cs),
(50,93,l),
(50,0,l),
(216,0,ls),
(272,0,o),
(310,37,o),
(310,93,cs)
);
},
{
closed = 1;
nodes = (
(50,0,l),
(145,0,l),
(145,700,l),
(50,700,l)
);
}
);
width = 330;
},
{
layerId = "E6A807D2-02F5-45B7-9AC8-B5230FFEC057";
shapes = (
{
closed = 1;
nodes = (
(222,290,l),
(222,411,l),
(20,410,l),
(20,290,l)
);
},
{
closed = 1;
nodes = (
(47,700,l),
(33,567,l),
(243,567,ls),
(247,567,o),
(248,566,o),
(248,562,cs),
(248,339,l),
(384,339,l),
(384,557,ls),
(384,659,o),
(343,700,o),
(240,700,cs)
);
},
{
closed = 1;
nodes = (
(384,347,l),
(248,347,l),
(248,138,ls),
(248,134,o),
(247,133,o),
(243,133,cs),
(52,133,l),
(52,0,l),
(240,0,ls),
(343,0,o),
(384,41,o),
(384,143,cs)
);
},
{
closed = 1;
nodes = (
(52,0,l),
(188,0,l),
(188,700,l),
(52,700,l)
);
}
);
width = 404;
}
);
unicode = 208;
},
{
glyphname = E;
kernLeft = EN;
kernRight = EN;
lastChange = "2021-03-02 20:02:14 +0000";
layers = (
{
anchors = (
{
name = bottom;
pos = (130,0);
},
{
name = ogonek;
pos = (233,0);
},
{
name = top;
pos = (130,700);
},
{
name = topleft;
pos = (20,700);
}
);
layerId = "A98666DC-4638-42B6-8332-BBF4982DF0EF";
shapes = (
{
closed = 1;
nodes = (
(33,0,l),
(86,0,l),
(86,700,l),
(33,700,l)
);
},
{
closed = 1;
nodes = (
(25,700,l),
(15,647,l),
(98,647,l),
(98,700,l)
);
},
{
closed = 1;
nodes = (
(33,377,l),
(33,324,l),
(233,324,l),
(239,377,l)
);
},
{
closed = 1;
nodes = (
(33,700,l),
(33,647,l),
(233,647,l),
(239,700,l)
);
},
{
closed = 1;
nodes = (
(33,53,l),
(33,0,l),
(233,0,l),
(239,53,l)
);
}
);
width = 259;
},
{
anchors = (
{
name = bottom;
pos = (115,0);
},
{
name = ogonek;
pos = (239,0);
},
{
name = top;
pos = (115,700);
},
{
name = topleft;
pos = (20,700);
}
);
layerId = "83682BA5-5A7B-4081-8B26-D550B6F33EEB";
shapes = (
{
closed = 1;
nodes = (
(20,397,l),
(20,304,l),
(217,304,l),
(227,397,l)
);
},
{
closed = 1;
nodes = (
(20,0,l),
(115,0,l),
(115,700,l),
(20,700,l)
);
},
{
closed = 1;
nodes = (
(20,700,l),
(20,607,l),
(237,607,l),
(247,700,l)
);
},
{
closed = 1;
nodes = (
(20,93,l),
(20,0,l),
(239,0,l),
(247,93,l)
);
},
{
closed = 1;
nodes = (
(15,700,l),
(5,607,l),
(115,607,l),
(115,700,l)
);
}
);
width = 267;
},
{
anchors = (
{
name = bottom;
pos = (170,0);
},
{
name = ogonek;
pos = (312,0);
},
{
name = top;
pos = (175,700);
},
{
name = topleft;
pos = (20,700);
}
);
layerId = "E6A807D2-02F5-45B7-9AC8-B5230FFEC057";
shapes = (
{
closed = 1;
nodes = (
(175,0,l),
(175,700,l),
(39,700,l),
(39,0,l)
);
},
{
closed = 1;
nodes = (
(312,0,l),
(320,133,l),
(39,133,l),
(39,0,l)
);
},
{
closed = 1;
nodes = (
(290,284,l),
(298,417,l),
(39,417,l),
(39,284,l)
);
},
{
closed = 1;
nodes = (
(175,567,l),
(175,700,l),
(34,700,l),
(20,567,l)
);
},
{
closed = 1;
nodes = (
(312,567,l),
(320,700,l),
(39,700,l),
(39,567,l)
);
}
);
width = 340;
}
);
unicode = 69;
},
{
glyphname = F;
lastChange = "2021-03-02 20:05:37 +0000";
layers = (
{
layerId = "A98666DC-4638-42B6-8332-BBF4982DF0EF";
shapes = (
{
closed = 1;
nodes = (
(33,0,l),
(86,0,l),
(86,700,l),
(33,700,l)
);
},
{
closed = 1;
nodes = (
(25,700,l),
(15,647,l),
(98,647,l),
(98,700,l)
);
},
{
closed = 1;
nodes = (
(33,377,l),
(33,324,l),
(233,324,l),
(239,377,l)
);
},
{
closed = 1;
nodes = (
(33,700,l),
(33,647,l),
(233,647,l),
(239,700,l)
);
}
);
width = 259;
},
{
layerId = "83682BA5-5A7B-4081-8B26-D550B6F33EEB";
shapes = (
{
closed = 1;
nodes = (
(20,397,l),
(20,304,l),
(217,304,l),
(227,397,l)
);
},
{
closed = 1;
nodes = (
(20,0,l),
(115,0,l),
(115,700,l),
(20,700,l)
);
},
{
closed = 1;
nodes = (
(20,700,l),
(20,607,l),
(237,607,l),
(247,700,l)
);
},
{
closed = 1;
nodes = (
(15,700,l),
(5,607,l),
(115,607,l),
(115,700,l)
);
}
);
width = 267;
},
{
layerId = "E6A807D2-02F5-45B7-9AC8-B5230FFEC057";
shapes = (
{
closed = 1;
nodes = (
(175,0,l),
(175,700,l),
(39,700,l),
(39,0,l)
);
},
{
closed = 1;
nodes = (
(290,284,l),
(298,417,l),
(39,417,l),
(39,284,l)
);
},
{
closed = 1;
nodes = (
(175,567,l),
(175,700,l),
(34,700,l),
(20,567,l)
);
},
{
closed = 1;
nodes = (
(312,567,l),
(320,700,l),
(39,700,l),
(39,567,l)
);
}
);
width = 340;
}
);
unicode = 70;
},
{
glyphname = G;
lastChange = "2021-03-02 20:08:54 +0000";
layers = (
{
layerId = "A98666DC-4638-42B6-8332-BBF4982DF0EF";
shapes = (
{
closed = 1;
nodes = (
(248,304,l),
(195,304,l),
(195,97,ls),
(195,63,o),
(178,47,o),
(136,46,cs),
(132,46,ls),
(90,47,o),
(73,64,o),
(73,97,cs),
(73,300,l),
(20,300,l),
(20,97,ls),
(20,28,o),
(58,-6,o),
(132,-7,cs),
(136,-7,ls),
(212,-6,o),
(248,28,o),
(248,97,cs)
);
},
{
closed = 1;
nodes = (
(20,300,l),
(73,300,l),
(73,611,ls),
(73,637,o),
(91,651,o),
(125,651,c),
(142,651,l),
(142,704,l),
(125,704,ls),
(56,704,o),
(20,672,o),
(20,611,cs)
);
},
{
closed = 1;
nodes = (
(248,600,ls),
(248,668,o),
(212,704,o),
(143,704,cs),
(142,704,l),
(142,651,l),
(143,651,l),
(177,651,o),
(195,634,o),
(195,600,c),
(195,456,l),
(248,450,l)
);
},
{
closed = 1;
nodes = (
(248,304,l),
(248,357,l),
(141,357,l),
(135,304,l)
);
}
);
width = 268;
},
{
layerId = "83682BA5-5A7B-4081-8B26-D550B6F33EEB";
shapes = (
{
closed = 1;
nodes = (
(280,398,l),
(185,398,l),
(185,98,ls),
(185,94,o),
(184,93,o),
(180,93,cs),
(120,93,ls),
(116,93,o),
(115,94,o),
(115,98,cs),
(115,400,l),
(20,400,l),
(20,93,ls),
(20,37,o),
(58,0,o),
(114,0,cs),
(186,0,ls),
(242,0,o),
(280,37,o),
(280,93,cs)
);
},
{
closed = 1;
nodes = (
(20,400,l),
(115,400,l),
(115,602,ls),
(115,606,o),
(116,607,o),
(120,607,cs),
(150,607,l),
(150,700,l),
(114,700,ls),
(58,700,o),
(20,663,o),
(20,607,cs)
);
},
{
closed = 1;
nodes = (
(280,607,ls),
(280,663,o),
(242,700,o),
(186,700,cs),
(150,700,l),
(150,607,l),
(180,607,ls),
(184,607,o),
(185,606,o),
(185,602,cs),
(185,447,l),
(280,447,l)
);
},
{
closed = 1;
nodes = (
(280,305,l),
(280,398,l),
(154,398,l),
(146,305,l)
);
}
);
width = 300;
},
{
layerId = "E6A807D2-02F5-45B7-9AC8-B5230FFEC057";
shapes = (
{
closed = 1;
nodes = (
(362,416,l),
(226,416,l),
(226,134,ls),
(226,130,o),
(225,129,o),
(221,129,cs),
(161,129,ls),
(157,129,o),
(156,130,o),
(156,134,cs),
(156,400,l),
(20,400,l),
(20,139,ls),
(20,37,o),
(61,-4,o),
(164,-4,cs),
(218,-4,ls),
(321,-4,o),
(362,37,o),
(362,139,cs)
);
},
{
closed = 1;
nodes = (
(20,400,l),
(156,400,l),
(156,566,ls),
(156,570,o),
(157,571,o),
(161,571,cs),
(191,571,l),
(191,704,l),
(164,704,ls),
(61,704,o),
(20,663,o),
(20,561,cs)
);
},
{
closed = 1;
nodes = (
(362,561,ls),
(362,663,o),
(321,704,o),
(218,704,cs),
(191,704,l),
(191,571,l),
(221,571,ls),
(225,571,o),
(226,570,o),
(226,566,cs),
(226,477,l),
(362,462,l)
);
},
{
closed = 1;
nodes = (
(362,283,l),
(362,416,l),
(194,416,l),
(186,283,l)
);
}
);
width = 382;
}
);
unicode = 71;
},
{
glyphname = H;
lastChange = "2021-03-02 20:10:12 +0000";
layers = (
{
layerId = "A98666DC-4638-42B6-8332-BBF4982DF0EF";
shapes = (
{
closed = 1;
nodes = (
(33,0,l),
(86,0,l),
(86,700,l),
(33,700,l)
);
},
{
closed = 1;
nodes = (
(25,700,l),
(15,647,l),
(86,647,l),
(86,700,l)
);
},
{
closed = 1;
nodes = (
(33,377,l),
(33,324,l),
(239,324,l),
(239,377,l)
);
},
{
closed = 1;
nodes = (
(186,0,l),
(239,0,l),
(239,700,l),
(186,700,l)
);
}
);
width = 259;
},
{
layerId = "83682BA5-5A7B-4081-8B26-D550B6F33EEB";
shapes = (
{
closed = 1;
nodes = (
(25,0,l),
(120,0,l),
(120,700,l),
(25,700,l)
);
},
{
closed = 1;
nodes = (
(177,0,l),
(272,0,l),
(272,700,l),
(177,700,l)
);
},
{
closed = 1;
nodes = (
(25,398,l),
(25,305,l),
(272,305,l),
(272,398,l)
);
},
{
closed = 1;
nodes = (
(20,700,l),
(10,607,l),
(120,607,l),
(120,700,l)
);
}
);
width = 292;
},
{
layerId = "E6A807D2-02F5-45B7-9AC8-B5230FFEC057";
shapes = (
{
closed = 1;
nodes = (
(366,0,l),
(366,700,l),
(230,700,l),
(230,0,l)
);
},
{
closed = 1;
nodes = (
(175,0,l),
(175,700,l),
(39,700,l),
(39,0,l)
);
},
{
closed = 1;
nodes = (
(366,263,l),
(366,396,l),
(39,396,l),
(39,263,l)
);
},
{
closed = 1;
nodes = (
(175,567,l),
(175,700,l),
(34,700,l),
(20,567,l)
);
}
);
width = 386;
}
);
unicode = 72;
},
{
glyphname = I;
kernLeft = I;
kernRight = I;
lastChange = "2021-03-02 20:29:44 +0000";
layers = (
{
anchors = (
{
name = bottom;
pos = (53,0);
},
{
name = ogonek;
pos = (95,10);
},
{
name = top;
pos = (53,700);
},
{
name = topleft;
pos = (20,700);
}
);
layerId = "A98666DC-4638-42B6-8332-BBF4982DF0EF";
shapes = (
{
closed = 1;
nodes = (
(86,0,l),
(86,700,l),
(33,700,l),
(33,0,l)
);
},
{
closed = 1;
nodes = (
(86,647,l),
(86,700,l),
(25,700,l),
(15,647,l)
);
}
);
width = 106;
},
{
anchors = (
{
name = bottom;
pos = (70,0);
},
{
name = ogonek;
pos = (126,10);
},
{
name = top;
pos = (70,700);
},
{
name = topleft;
pos = (20,700);
}
);
layerId = "83682BA5-5A7B-4081-8B26-D550B6F33EEB";
shapes = (
{
closed = 1;
nodes = (
(120,0,l),
(120,700,l),
(25,700,l),
(25,0,l)
);
},
{
closed = 1;
nodes = (
(120,607,l),
(120,700,l),
(20,700,l),
(10,607,l)
);
}
);
width = 140;
},
{
anchors = (
{
name = bottom;
pos = (98,0);
},
{
name = ogonek;
pos = (176,10);
},
{
name = top;
pos = (98,700);
},
{
name = topleft;
pos = (34,700);
}
);
layerId = "E6A807D2-02F5-45B7-9AC8-B5230FFEC057";
shapes = (
{
closed = 1;
nodes = (
(39,700,l),
(175,700,l),
(175,0,l),
(39,0,l)
);
},
{
closed = 1;
nodes = (
(39,567,l),
(39,700,l),
(34,700,l),
(20,567,l)
);
}
);
width = 195;
}
);
unicode = 73;
},
{
glyphname = J;
lastChange = "2021-03-02 20:14:21 +0000";
layers = (
{
anchors = (
{
name = bottom;
pos = (111,-7);
},
{
name = top;
pos = (137,700);
}
);
layerId = "A98666DC-4638-42B6-8332-BBF4982DF0EF";
shapes = (
{
closed = 1;
nodes = (
(206,647,l),
(206,700,l),
(125,700,l),
(113,647,l)
);
},
{
closed = 1;
nodes = (
(206,700,l),
(153,700,l),
(153,97,ls),
(153,63,o),
(136,46,o),
(115,46,cs),
(111,46,ls),
(90,46,o),
(73,64,o),
(73,97,cs),
(73,304,l),
(20,304,l),
(20,97,ls),
(20,28,o),
(58,-7,o),
(111,-7,cs),
(115,-7,ls),
(170,-7,o),
(206,28,o),
(206,97,cs)
);
}
);
width = 226;
},
{
anchors = (
{
name = bottom;
pos = (135,0);
},
{
name = top;
pos = (135,700);
}
);
layerId = "83682BA5-5A7B-4081-8B26-D550B6F33EEB";
shapes = (
{
closed = 1;
nodes = (
(250,607,l),
(250,700,l),
(123,700,l),
(115,607,l)
);
},
{
closed = 1;
nodes = (
(250,698,l),
(155,698,l),
(155,94,ls),
(155,90,o),
(154,89,o),
(150,89,cs),
(120,89,ls),
(116,89,o),
(115,90,o),
(115,94,cs),
(115,298,l),
(20,298,l),
(20,89,ls),
(20,33,o),
(58,-4,o),
(114,-4,cs),
(156,-4,ls),
(212,-4,o),
(250,33,o),
(250,89,cs)
);
}
);
width = 270;
},
{
anchors = (
{
name = bottom;
pos = (171,0);
},
{
name = top;
pos = (171,700);
}
);
layerId = "E6A807D2-02F5-45B7-9AC8-B5230FFEC057";
shapes = (
{
closed = 1;
nodes = (
(322,567,l),
(322,700,l),
(110,700,l),
(96,567,l)
);
},
{
closed = 1;
nodes = (
(322,700,l),
(186,700,l),
(186,134,ls),
(186,130,o),
(185,129,o),
(181,129,cs),
(161,129,ls),
(157,129,o),
(156,130,o),
(156,134,cs),
(156,290,l),
(20,290,l),
(20,139,ls),
(20,37,o),
(61,-4,o),
(164,-4,cs),
(178,-4,ls),
(281,-4,o),
(322,37,o),
(322,139,cs)
);
}
);
width = 342;
}
);
unicode = 74;
},
{
glyphname = K;
lastChange = "2021-03-02 20:16:22 +0000";
layers = (
{
layerId = "A98666DC-4638-42B6-8332-BBF4982DF0EF";
shapes = (
{
closed = 1;
nodes = (
(67,397,l),
(117,397,l),
(253,700,l),
(203,700,l)
);
},
{
closed = 1;
nodes = (
(33,0,l),
(86,0,l),
(86,700,l),
(33,700,l)
);
},
{
closed = 1;
nodes = (
(263,0,l),
(117,397,l),
(67,397,l),
(213,0,l)
);
},
{
closed = 1;
nodes = (
(25,700,l),
(15,647,l),
(86,647,l),
(86,700,l)
);
}
);
width = 283;
},
{
layerId = "83682BA5-5A7B-4081-8B26-D550B6F33EEB";
shapes = (
{
closed = 1;
nodes = (
(81,418,l),
(186,418,l),
(312,700,l),
(207,700,l)
);
},
{
closed = 1;
nodes = (
(120,0,l),
(120,700,l),
(25,700,l),
(25,0,l)
);
},
{
closed = 1;
nodes = (
(322,0,l),
(186,418,l),
(81,418,l),
(217,0,l)
);
},
{
closed = 1;
nodes = (
(20,700,l),
(10,607,l),
(120,607,l),
(120,700,l)
);
}
);
width = 322;
},
{
layerId = "E6A807D2-02F5-45B7-9AC8-B5230FFEC057";
shapes = (
{
closed = 1;
nodes = (
(254,408,l),
(391,700,l),
(261,700,l),
(124,408,l)
);
},
{
closed = 1;
nodes = (
(175,0,l),
(175,700,l),
(39,700,l),
(39,0,l)
);
},
{
closed = 1;
nodes = (
(409,0,l),
(254,408,l),
(124,408,l),
(279,0,l)
);
},
{
closed = 1;
nodes = (
(175,567,l),
(175,700,l),
(34,700,l),
(20,567,l)
);
}
);
width = 414;
}
);
unicode = 75;
},
{
glyphname = L;
lastChange = "2021-03-02 20:21:40 +0000";
layers = (
{
layerId = "A98666DC-4638-42B6-8332-BBF4982DF0EF";
shapes = (
{
closed = 1;
nodes = (
(33,0,l),
(86,0,l),
(86,700,l),
(33,700,l)
);
},
{
closed = 1;
nodes = (
(86,53,l),
(86,0,l),
(252,0,l),
(264,53,l)
);
},
{
closed = 1;
nodes = (
(25,700,l),
(15,647,l),
(33,647,l),
(33,700,l)
);
}
);
width = 284;
},
{
layerId = "83682BA5-5A7B-4081-8B26-D550B6F33EEB";
shapes = (
{
closed = 1;
nodes = (
(25,0,l),
(120,0,l),
(120,700,l),
(25,700,l)
);
},
{
closed = 1;
nodes = (
(120,93,l),
(120,0,l),
(264,0,l),
(272,93,l)
);
},
{
closed = 1;
nodes = (
(20,700,l),
(10,607,l),
(25,607,l),
(25,700,l)
);
}
);
width = 292;
},
{
layerId = "E6A807D2-02F5-45B7-9AC8-B5230FFEC057";
shapes = (
{
closed = 1;
nodes = (
(39,699,l),
(175,699,l),
(175,-1,l),
(39,-1,l)
);
},
{
closed = 1;
nodes = (
(358,0,l),
(366,133,l),
(175,133,l),
(175,0,l)
);
},
{
closed = 1;
nodes = (
(39,566,l),
(39,699,l),
(34,699,l),
(20,566,l)
);
}
);
width = 386;
}
);
unicode = 76;
},
{
glyphname = M;
lastChange = "2021-03-02 20:19:14 +0000";
layers = (
{
anchors = (
{
name = bottom;
pos = (197,0);
},
{
name = top;
pos = (197,700);
}
);
layerId = "A98666DC-4638-42B6-8332-BBF4982DF0EF";
shapes = (
{
closed = 1;
nodes = (
(195,164,l),
(211,164,l),
(122,700,l),
(70,700,l),
(173,99,l),
(233,99,l),
(336,700,l),
(284,700,l)
);
},
{
closed = 1;
nodes = (
(86,0,l),
(86,700,l),
(33,700,l),
(33,0,l)
);
},
{
closed = 1;
nodes = (
(86,647,l),
(86,700,l),
(25,700,l),
(15,647,l)
);
},
{
closed = 1;
nodes = (
(373,0,l),
(373,700,l),
(320,700,l),
(320,0,l)
);
}
);
width = 393;
},
{
anchors = (
{
name = bottom;
pos = (223,0);
},
{
name = top;
pos = (223,700);
}
);
layerId = "83682BA5-5A7B-4081-8B26-D550B6F33EEB";
shapes = (
{
closed = 1;
nodes = (
(219,284,l),
(229,284,l),
(176,700,l),
(92,700,l),
(192,100,l),
(257,100,l),
(357,700,l),
(273,700,l)
);
},
{
closed = 1;
nodes = (
(120,0,l),
(120,700,l),
(25,700,l),
(25,0,l)
);
},
{
closed = 1;
nodes = (
(120,607,l),
(120,700,l),
(20,700,l),
(10,607,l)
);
},
{
closed = 1;
nodes = (
(426,0,l),
(426,700,l),
(331,700,l),
(331,0,l)
);
}
);
width = 446;
},
{
anchors = (
{
name = bottom;
pos = (266,0);
},
{
name = top;
pos = (266,700);
}
);
layerId = "E6A807D2-02F5-45B7-9AC8-B5230FFEC057";
shapes = (
{
closed = 1;
nodes = (
(270,284,l),
(280,284,l),
(227,701,l),
(128,700,l),
(228,100,l),
(323,100,l),
(423,700,l),
(324,700,l)
);
},
{
closed = 1;
nodes = (
(175,0,l),
(175,700,l),
(39,700,l),
(39,0,l)
);
},
{
closed = 1;
nodes = (
(175,567,l),
(175,700,l),
(34,700,l),
(20,567,l)
);
},
{
closed = 1;
nodes = (
(512,0,l),
(512,700,l),
(376,700,l),
(376,0,l)
);
}
);
width = 532;
}
);
unicode = 77;
},
{
glyphname = N;
kernLeft = EN;
kernRight = EN;
lastChange = "2021-03-02 20:24:23 +0000";
layers = (
{
anchors = (
{
name = bottom;
pos = (157,0);
},
{
name = top;
pos = (157,700);
}
);
layerId = "A98666DC-4638-42B6-8332-BBF4982DF0EF";
shapes = (
{
closed = 1;
nodes = (
(291,0,l),
(117,700,l),
(65,700,l),
(241,0,l)
);
},
{
closed = 1;
nodes = (
(86,0,l),
(86,700,l),
(33,700,l),
(33,0,l)
);
},
{
closed = 1;
nodes = (
(294,0,l),
(294,700,l),
(241,700,l),
(241,0,l)
);
},
{
closed = 1;
nodes = (
(86,647,l),
(86,700,l),
(25,700,l),
(15,647,l)
);
}
);
width = 314;
},
{
anchors = (
{
name = bottom;
pos = (173,0);
},
{
name = top;
pos = (173,700);
}
);
layerId = "83682BA5-5A7B-4081-8B26-D550B6F33EEB";
shapes = (
{
closed = 1;
nodes = (
(25,0,l),
(120,0,l),
(120,700,l),
(25,700,l)
);
},
{
closed = 1;
nodes = (
(240,0,l),
(325,0,l),
(325,700,l),
(230,700,l)
);
},
{
closed = 1;
nodes = (
(230,0,l),
(300,0,l),
(125,700,l),
(50,700,l)
);
},
{
closed = 1;
nodes = (
(20,700,l),
(10,607,l),
(120,607,l),
(120,700,l)
);
}
);
width = 345;
},
{
anchors = (
{
name = bottom;
pos = (223,0);
},
{
name = top;
pos = (223,700);
}
);
layerId = "E6A807D2-02F5-45B7-9AC8-B5230FFEC057";
shapes = (
{
closed = 1;
nodes = (
(385,0,l),
(175,700,l),
(79,700,l),
(289,0,l)
);
},
{
closed = 1;
nodes = (
(175,0,l),
(175,700,l),
(39,700,l),
(39,0,l)
);
},
{
closed = 1;
nodes = (
(425,0,l),
(425,700,l),
(289,700,l),
(289,0,l)
);
},
{
closed = 1;
nodes = (
(175,567,l),
(175,700,l),
(34,700,l),
(20,567,l)
);
}
);
width = 445;
}
);
unicode = 78;
},
{
glyphname = O;
kernLeft = OU;
kernRight = OU;
lastChange = "2021-03-02 20:21:13 +0000";
layers = (
{
anchors = (
{
name = bottom;
pos = (134,-7);
},
{
name = center;
pos = (134,350);
},
{
name = ogonek;
pos = (241,-7);
},
{
name = top;
pos = (134,704);
},
{
name = topleft;
pos = (20,704);
},
{
name = topright;
pos = (248,704);
}
);
layerId = "A98666DC-4638-42B6-8332-BBF4982DF0EF";
shapes = (
{
closed = 1;
nodes = (
(248,352,l),
(195,352,l),
(195,97,ls),
(195,63,o),
(178,46,o),
(136,46,cs),
(132,46,ls),
(90,46,o),
(73,64,o),
(73,97,cs),
(73,352,l),
(20,352,l),
(20,97,ls),
(20,28,o),
(57,-7,o),
(132,-7,cs),
(136,-7,ls),
(211,-7,o),
(248,28,o),
(248,97,cs)
);
},
{
closed = 1;
nodes = (
(248,669,o),
(211,704,o),
(136,704,cs),
(132,704,ls),
(57,704,o),
(20,669,o),
(20,600,cs),
(20,345,l),
(73,345,l),
(73,600,ls),
(73,633,o),
(90,651,o),
(132,651,cs),
(136,651,ls),
(178,651,o),
(195,634,o),
(195,600,cs),
(195,345,l),
(248,345,l),
(248,600,ls)
);
}
);
width = 268;
},
{
anchors = (
{
name = bottom;
pos = (135,-4);
},
{
name = center;
pos = (135,350);
},
{
name = ogonek;
pos = (255,0);
},
{
name = top;
pos = (135,704);
},
{
name = topleft;
pos = (5,704);
},
{
name = topright;
pos = (265,704);
}
);
layerId = "83682BA5-5A7B-4081-8B26-D550B6F33EEB";
shapes = (
{
closed = 1;
nodes = (
(280,394,l),
(185,394,l),
(185,94,ls),
(185,90,o),
(184,89,o),
(180,89,cs),
(120,89,ls),
(116,89,o),
(115,90,o),
(115,94,cs),
(115,396,l),
(20,396,l),
(20,89,ls),
(20,33,o),
(58,-4,o),
(114,-4,cs),
(186,-4,ls),
(242,-4,o),
(280,33,o),
(280,89,cs)
);
},
{
closed = 1;
nodes = (
(280,667,o),
(242,704,o),
(186,704,cs),
(114,704,ls),
(58,704,o),
(20,667,o),
(20,611,cs),
(20,304,l),
(115,304,l),
(115,606,ls),
(115,610,o),
(116,611,o),
(120,611,cs),
(180,611,ls),
(184,611,o),
(185,610,o),
(185,606,cs),
(185,306,l),
(280,306,l),
(280,611,ls)
);
}
);
width = 300;
},
{
anchors = (
{
name = bottom;
pos = (186,-4);
},
{
name = center;
pos = (186,350);
},
{
name = ogonek;
pos = (335,0);
},
{
name = top;
pos = (186,704);
},
{
name = topleft;
pos = (20,700);
},
{
name = topright;
pos = (352,700);
}
);
layerId = "E6A807D2-02F5-45B7-9AC8-B5230FFEC057";
shapes = (
{
closed = 1;
nodes = (
(352,408,l),
(216,408,l),
(216,134,ls),
(216,130,o),
(215,129,o),
(211,129,cs),
(161,129,ls),
(157,129,o),
(156,130,o),
(156,134,cs),
(156,408,l),
(20,408,l),
(20,139,ls),
(20,37,o),
(61,-4,o),
(164,-4,cs),
(208,-4,ls),
(311,-4,o),
(352,37,o),
(352,139,cs)
);
},
{
closed = 1;
nodes = (
(352,663,o),
(311,704,o),
(208,704,cs),
(164,704,ls),
(61,704,o),
(20,663,o),
(20,561,cs),
(20,292,l),
(156,292,l),
(156,566,ls),
(156,570,o),
(157,571,o),
(161,571,cs),
(211,571,ls),
(215,571,o),
(216,570,o),
(216,566,cs),
(216,292,l),
(352,292,l),
(352,561,ls)
);
}
);
width = 372;
},
{
anchors = (
{
name = bottom;
pos = (150,-4);
},
{
name = center;
pos = (150,350);
},
{
name = ogonek;
pos = (270,0);
},
{
name = top;
pos = (150,704);
},
{
name = topleft;
pos = (20,704);
},
{
name = topright;
pos = (280,704);
}
);
associatedMasterId = "83682BA5-5A7B-4081-8B26-D550B6F33EEB";
layerId = "AB4D5A02-84E3-4E78-9A4C-60172E3B24CB";
name = "20 Feb 21, 3:04";
shapes = (
{
closed = 1;
nodes = (
(186,-4,ls),
(242,-4,o),
(280,33,o),
(280,89,cs),
(280,350,l),
(185,350,l),
(185,47,l),
(229,89,l),
(150,89,l),
(150,-4,l)
);
},
{
closed = 1;
nodes = (
(150,89,l),
(71,89,l),
(115,47,l),
(115,350,l),
(20,350,l),
(20,89,ls),
(20,33,o),
(58,-4,o),
(114,-4,cs),
(150,-4,l)
);
},
{
closed = 1;
nodes = (
(150,611,l),
(229,611,l),
(185,653,l),
(185,350,l),
(280,350,l),
(280,611,ls),
(280,667,o),
(242,704,o),
(186,704,cs),
(150,704,l)
);
},
{
closed = 1;
nodes = (
(114,704,ls),
(58,704,o),
(20,667,o),
(20,611,cs),
(20,350,l),
(115,350,l),
(115,653,l),
(71,611,l),
(150,611,l),
(150,704,l)
);
}
);
width = 300;
},
{
anchors = (
{
name = bottom;
pos = (186,-4);
},
{
name = center;
pos = (186,350);
},
{
name = ogonek;
pos = (335,0);
},
{
name = top;
pos = (186,704);
},
{
name = topleft;
pos = (20,700);
},
{
name = topright;
pos = (352,700);
}
);
associatedMasterId = "E6A807D2-02F5-45B7-9AC8-B5230FFEC057";
layerId = "0DD34DCC-3F3A-458C-90F0-26EA1211D42F";
name = "20 Feb 21, 3:07";
shapes = (
{
closed = 1;
nodes = (
(208,-4,ls),
(311,-4,o),
(352,37,o),
(352,139,cs),
(352,350,l),
(216,350,l),
(216,87,l),
(260,129,l),
(186,129,l),
(186,-4,l)
);
},
{
closed = 1;
nodes = (
(186,-4,l),
(186,129,l),
(112,129,l),
(156,87,l),
(156,350,l),
(20,350,l),
(20,139,ls),
(20,37,o),
(61,-4,o),
(164,-4,cs)
);
},
{
closed = 1;
nodes = (
(352,350,l),
(352,561,ls),
(352,663,o),
(311,704,o),
(208,704,cs),
(186,704,l),
(186,571,l),
(260,571,l),
(216,613,l),
(216,350,l)
);
},
{
closed = 1;
nodes = (
(156,350,l),
(156,613,l),
(112,571,l),
(186,571,l),
(186,704,l),
(164,704,ls),
(61,704,o),
(20,663,o),
(20,561,cs),
(20,350,l)
);
}
);
width = 372;
}
);
unicode = 79;
},
{
glyphname = OE;
kernLeft = OU;
lastChange = "2021-03-01 21:02:43 +0000";
layers = (
{
layerId = "A98666DC-4638-42B6-8332-BBF4982DF0EF";
shapes = (
{
closed = 1;
nodes = (
(248,669,o),
(211,704,o),
(136,704,cs),
(132,704,ls),
(57,704,o),
(20,669,o),
(20,600,cs),
(20,345,l),
(73,345,l),
(73,600,ls),
(73,633,o),
(90,651,o),
(132,651,cs),
(136,651,ls),
(178,651,o),
(195,634,o),
(195,600,cs),
(195,345,l),
(248,345,l),
(248,600,ls)
);
},
{
closed = 1;
nodes = (
(248,352,l),
(195,352,l),
(195,97,ls),
(195,63,o),
(178,46,o),
(136,46,cs),
(132,46,ls),
(90,46,o),
(73,64,o),
(73,97,cs),
(73,352,l),
(20,352,l),
(20,97,ls),
(20,28,o),
(57,-7,o),
(132,-7,cs),
(136,-7,ls),
(211,-7,o),
(248,28,o),
(248,97,cs)
);
},
{
closed = 1;
nodes = (
(195,700,l),
(195,647,l),
(395,647,l),
(401,700,l)
);
},
{
closed = 1;
nodes = (
(195,53,l),
(195,0,l),
(395,0,l),
(401,53,l)
);
},
{
closed = 1;
nodes = (
(195,377,l),
(195,324,l),
(395,324,l),
(401,377,l)
);
}
);
width = 421;
},
{
layerId = "83682BA5-5A7B-4081-8B26-D550B6F33EEB";
shapes = (
{
closed = 1;
nodes = (
(280,667,o),
(242,704,o),
(186,704,cs),
(114,704,ls),
(58,704,o),
(20,667,o),
(20,611,cs),
(20,304,l),
(115,304,l),
(115,606,ls),
(115,610,o),
(116,611,o),
(120,611,cs),
(180,611,ls),
(184,611,o),
(185,610,o),
(185,606,cs),
(185,306,l),
(280,306,l),
(280,611,ls)
);
},
{
closed = 1;
nodes = (
(280,394,l),
(185,394,l),
(185,94,ls),
(185,90,o),
(184,89,o),
(180,89,cs),
(120,89,ls),
(116,89,o),
(115,90,o),
(115,94,cs),
(115,396,l),
(20,396,l),
(20,89,ls),
(20,33,o),
(58,-4,o),
(114,-4,cs),
(186,-4,ls),
(242,-4,o),
(280,33,o),
(280,89,cs)
);
},
{
closed = 1;
nodes = (
(185,700,l),
(185,607,l),
(402,607,l),
(412,700,l)
);
},
{
closed = 1;
nodes = (
(185,397,l),
(185,304,l),
(382,304,l),
(392,397,l)
);
},
{
closed = 1;
nodes = (
(185,93,l),
(185,0,l),
(404,0,l),
(412,93,l)
);
}
);
width = 432;
},
{
layerId = "E6A807D2-02F5-45B7-9AC8-B5230FFEC057";
shapes = (
{
closed = 1;
nodes = (
(352,663,o),
(311,704,o),
(208,704,cs),
(164,704,ls),
(61,704,o),
(20,663,o),
(20,561,cs),
(20,292,l),
(156,292,l),
(156,566,ls),
(156,570,o),
(157,571,o),
(161,571,cs),
(211,571,ls),
(215,571,o),
(216,570,o),
(216,566,cs),
(216,292,l),
(352,292,l),
(352,561,ls)
);
},
{
closed = 1;
nodes = (
(352,408,l),
(216,408,l),
(216,134,ls),
(216,130,o),
(215,129,o),
(211,129,cs),
(161,129,ls),
(157,129,o),
(156,130,o),
(156,134,cs),
(156,408,l),
(20,408,l),
(20,139,ls),
(20,37,o),
(61,-4,o),
(164,-4,cs),
(208,-4,ls),
(311,-4,o),
(352,37,o),
(352,139,cs)
);
},
{
closed = 1;
nodes = (
(489,567,l),
(497,700,l),
(216,700,l),
(216,567,l)
);
},
{
closed = 1;
nodes = (
(467,284,l),
(475,417,l),
(216,417,l),
(216,284,l)
);
},
{
closed = 1;
nodes = (
(489,0,l),
(497,133,l),
(216,133,l),
(216,0,l)
);
}
);
width = 517;
}
);
unicode = 338;
},
{
glyphname = P;
lastChange = "2021-03-02 20:28:41 +0000";
layers = (
{
layerId = "A98666DC-4638-42B6-8332-BBF4982DF0EF";
shapes = (
{
closed = 1;
nodes = (
(33,0,l),
(86,0,l),
(86,700,l),
(33,700,l)
);
},
{
closed = 1;
nodes = (
(145,222,ls),
(214,222,o),
(250,254,o),
(250,315,cs),
(250,473,l),
(197,473,l),
(197,315,ls),
(197,289,o),
(179,275,o),
(145,275,cs),
(33,275,l),
(33,222,l)
);
},
{
closed = 1;
nodes = (
(145,647,ls),
(179,647,o),
(197,630,o),
(197,596,cs),
(197,473,l),
(250,473,l),
(250,596,ls),
(250,664,o),
(214,700,o),
(145,700,cs),
(25,700,l),
(15,647,l)
);
}
);
width = 270;
},
{
layerId = "83682BA5-5A7B-4081-8B26-D550B6F33EEB";
shapes = (
{
closed = 1;
nodes = (
(25,0,l),
(120,0,l),
(120,700,l),
(25,700,l)
);
},
{
closed = 1;
nodes = (
(172,607,ls),
(176,607,o),
(177,606,o),
(177,602,cs),
(177,467,l),
(272,467,l),
(272,607,ls),
(272,663,o),
(234,700,o),
(178,700,cs),
(20,700,l),
(10,607,l)
);
},
{
closed = 1;
nodes = (
(167,201,ls),
(223,201,o),
(272,238,o),
(272,294,cs),
(272,467,l),
(177,467,l),
(177,299,ls),
(177,295,o),
(176,294,o),
(172,294,cs),
(25,294,l),
(26,201,l)
);
}
);
width = 292;
},
{
layerId = "E6A807D2-02F5-45B7-9AC8-B5230FFEC057";
shapes = (
{
closed = 1;
nodes = (
(175,0,l),
(175,700,l),
(39,700,l),
(39,0,l)
);
},
{
closed = 1;
nodes = (
(220,567,ls),
(224,567,o),
(225,566,o),
(225,562,cs),
(225,444,l),
(361,444,l),
(361,557,ls),
(361,658,o),
(320,700,o),
(217,700,cs),
(34,700,l),
(20,567,l)
);
},
{
closed = 1;
nodes = (
(217,186,ls),
(320,186,o),
(361,227,o),
(361,329,cs),
(361,444,l),
(225,444,l),
(225,324,ls),
(225,320,o),
(224,319,o),
(220,319,cs),
(39,319,l),
(39,186,l)
);
}
);
width = 381;
}
);
unicode = 80;
},
{
glyphname = Thorn;
lastChange = "2021-02-20 12:26:48 +0000";
layers = (
{
layerId = "A98666DC-4638-42B6-8332-BBF4982DF0EF";
shapes = (
{
closed = 1;
nodes = (
(20,-7,l),
(73,-7,l),
(73,800,l),
(20,800,l)
);
},
{
closed = 1;
nodes = (
(21,-7,l),
(74,-7,l),
(74,800,l),
(21,800,l)
);
},
{
closed = 1;
nodes = (
(133,158,ls),
(202,158,o),
(238,190,o),
(238,251,cs),
(238,409,l),
(185,409,l),
(185,251,ls),
(185,225,o),
(167,211,o),
(133,211,cs),
(21,211,l),
(21,158,l)
);
},
{
closed = 1;
nodes = (
(21,583,l),
(133,583,ls),
(167,583,o),
(185,569,o),
(185,543,cs),
(185,385,l),
(238,385,l),
(238,543,ls),
(238,604,o),
(202,636,o),
(133,636,cs),
(21,636,l)
);
}
);
width = 258;
},
{
layerId = "83682BA5-5A7B-4081-8B26-D550B6F33EEB";
shapes = (
{
closed = 1;
nodes = (
(20,4,l),
(115,4,l),
(115,800,l),
(20,800,l)
);
},
{
closed = 1;
nodes = (
(20,4,l),
(118,4,l),
(118,800,l),
(20,800,l)
);
},
{
closed = 1;
nodes = (
(162,150,ls),
(218,150,o),
(267,187,o),
(267,243,cs),
(267,416,l),
(172,416,l),
(172,248,ls),
(172,244,o),
(171,243,o),
(167,243,cs),
(20,243,l),
(21,150,l)
);
},
{
closed = 1;
nodes = (
(20,557,l),
(167,557,ls),
(171,557,o),
(172,556,o),
(172,552,cs),
(172,384,l),
(267,384,l),
(267,557,ls),
(267,613,o),
(218,650,o),
(162,650,cs),
(21,650,l)
);
}
);
width = 287;
},
{
layerId = "E6A807D2-02F5-45B7-9AC8-B5230FFEC057";
shapes = (
{
closed = 1;
nodes = (
(156,4,l),
(156,800,l),
(20,800,l),
(20,4,l)
);
},
{
closed = 1;
nodes = (
(156,3,l),
(156,800,l),
(20,800,l),
(20,3,l)
);
},
{
closed = 1;
nodes = (
(198,143,ls),
(301,143,o),
(342,184,o),
(342,286,cs),
(342,401,l),
(206,401,l),
(206,281,ls),
(206,277,o),
(205,276,o),
(201,276,cs),
(20,276,l),
(20,143,l)
);
},
{
closed = 1;
nodes = (
(20,528,l),
(201,528,ls),
(205,528,o),
(206,527,o),
(206,523,cs),
(206,403,l),
(342,403,l),
(342,518,ls),
(342,620,o),
(301,661,o),
(198,661,cs),
(20,661,l)
);
}
);
width = 362;
}
);
unicode = 222;
},
{
glyphname = Q;
kernLeft = OU;
kernRight = OU;
lastChange = "2021-03-02 19:19:33 +0000";
layers = (
{
layerId = "A98666DC-4638-42B6-8332-BBF4982DF0EF";
shapes = (
{
closed = 1;
nodes = (
(147,-12,l),
(179,-46,l),
(179,32,l),
(126,32,l),
(126,27,ls),
(126,-29,o),
(163,-68,o),
(219,-68,cs),
(248,-68,l),
(268,-12,l)
);
},
{
closed = 1;
nodes = (
(248,352,l),
(195,352,l),
(195,97,ls),
(195,63,o),
(178,46,o),
(136,46,cs),
(132,46,ls),
(90,46,o),
(73,64,o),
(73,97,cs),
(73,352,l),
(20,352,l),
(20,97,ls),
(20,28,o),
(57,-7,o),
(132,-7,cs),
(136,-7,ls),
(211,-7,o),
(248,28,o),
(248,97,cs)
);
},
{
closed = 1;
nodes = (
(248,669,o),
(211,704,o),
(136,704,cs),
(132,704,ls),
(57,704,o),
(20,669,o),
(20,600,cs),
(20,345,l),
(73,345,l),
(73,600,ls),
(73,633,o),
(90,651,o),
(132,651,cs),
(136,651,ls),
(178,651,o),
(195,634,o),
(195,600,cs),
(195,345,l),
(248,345,l),
(248,600,ls)
);
}
);
width = 288;
},
{
layerId = "83682BA5-5A7B-4081-8B26-D550B6F33EEB";
shapes = (
{
closed = 1;
nodes = (
(189,0,l),
(231,-34,l),
(231,65,l),
(138,65,l),
(138,9,ls),
(138,-47,o),
(175,-86,o),
(231,-86,cs),
(287,-86,l),
(307,0,l)
);
},
{
closed = 1;
nodes = (
(280,394,l),
(185,394,l),
(185,94,ls),
(185,90,o),
(184,89,o),
(180,89,cs),
(120,89,ls),
(116,89,o),
(115,90,o),
(115,94,cs),
(115,396,l),
(20,396,l),
(20,89,ls),
(20,33,o),
(58,-4,o),
(114,-4,cs),
(186,-4,ls),
(242,-4,o),
(280,33,o),
(280,89,cs)
);
},
{
closed = 1;
nodes = (
(280,667,o),
(242,704,o),
(186,704,cs),
(114,704,ls),
(58,704,o),
(20,667,o),
(20,611,cs),
(20,304,l),
(115,304,l),
(115,606,ls),
(115,610,o),
(116,611,o),
(120,611,cs),
(180,611,ls),
(184,611,o),
(185,610,o),
(185,606,cs),
(185,306,l),
(280,306,l),
(280,611,ls)
);
}
);
width = 320;
},
{
layerId = "E6A807D2-02F5-45B7-9AC8-B5230FFEC057";
shapes = (
{
closed = 1;
nodes = (
(209,-12,l),
(251,-46,l),
(251,53,l),
(148,53,l),
(148,-3,ls),
(148,-59,o),
(195,-108,o),
(251,-108,cs),
(323,-108,l),
(343,-12,l)
);
},
{
closed = 1;
nodes = (
(352,408,l),
(216,408,l),
(216,134,ls),
(216,130,o),
(215,129,o),
(211,129,cs),
(161,129,ls),
(157,129,o),
(156,130,o),
(156,134,cs),
(156,408,l),
(20,408,l),
(20,139,ls),
(20,37,o),
(61,-4,o),
(164,-4,cs),
(208,-4,ls),
(311,-4,o),
(352,37,o),
(352,139,cs)
);
},
{
closed = 1;
nodes = (
(352,663,o),
(311,704,o),
(208,704,cs),
(164,704,ls),
(61,704,o),
(20,663,o),
(20,561,cs),
(20,292,l),
(156,292,l),
(156,566,ls),
(156,570,o),
(157,571,o),
(161,571,cs),
(211,571,ls),
(215,571,o),
(216,570,o),
(216,566,cs),
(216,292,l),
(352,292,l),
(352,561,ls)
);
}
);
width = 372;
}
);
unicode = 81;
},
{
glyphname = R;
lastChange = "2021-03-02 20:23:49 +0000";
layers = (
{
layerId = "A98666DC-4638-42B6-8332-BBF4982DF0EF";
shapes = (
{
closed = 1;
nodes = (
(33,0,l),
(86,0,l),
(86,700,l),
(33,700,l)
);
},
{
closed = 1;
nodes = (
(141,270,l),
(217,0,l),
(271,0,l),
(194,270,l)
);
},
{
closed = 1;
nodes = (
(145,222,ls),
(214,222,o),
(250,254,o),
(250,315,cs),
(250,473,l),
(197,473,l),
(197,315,ls),
(197,289,o),
(179,275,o),
(145,275,cs),
(33,275,l),
(33,222,l)
);
},
{
closed = 1;
nodes = (
(145,647,ls),
(179,647,o),
(197,630,o),
(197,596,cs),
(197,473,l),
(250,473,l),
(250,596,ls),
(250,664,o),
(214,700,o),
(145,700,cs),
(25,700,l),
(15,647,l)
);
}
);
width = 291;
},
{
layerId = "83682BA5-5A7B-4081-8B26-D550B6F33EEB";
shapes = (
{
closed = 1;
nodes = (
(25,0,l),
(120,0,l),
(120,700,l),
(25,700,l)
);
},
{
closed = 1;
nodes = (
(126,288,l),
(207,0,l),
(303,0,l),
(221,288,l)
);
},
{
closed = 1;
nodes = (
(172,607,ls),
(176,607,o),
(177,606,o),
(177,602,cs),
(177,467,l),
(272,467,l),
(272,607,ls),
(272,663,o),
(234,700,o),
(178,700,cs),
(20,700,l),
(10,607,l)
);
},
{
closed = 1;
nodes = (
(167,201,ls),
(223,201,o),
(272,238,o),
(272,294,cs),
(272,467,l),
(177,467,l),
(177,299,ls),
(177,295,o),
(176,294,o),
(172,294,cs),
(25,294,l),
(26,201,l)
);
}
);
width = 303;
},
{
layerId = "E6A807D2-02F5-45B7-9AC8-B5230FFEC057";
shapes = (
{
closed = 1;
nodes = (
(170,0,l),
(170,700,l),
(34,700,l),
(34,0,l)
);
},
{
closed = 1;
nodes = (
(385,0,l),
(303,288,l),
(168,288,l),
(249,0,l)
);
},
{
closed = 1;
nodes = (
(215,567,ls),
(219,567,o),
(220,566,o),
(220,562,cs),
(220,444,l),
(356,444,l),
(356,557,ls),
(356,658,o),
(315,700,o),
(212,700,cs),
(29,700,l),
(15,567,l)
);
},
{
closed = 1;
nodes = (
(212,186,ls),
(315,186,o),
(356,227,o),
(356,329,cs),
(356,444,l),
(220,444,l),
(220,324,ls),
(220,320,o),
(219,319,o),
(215,319,cs),
(34,319,l),
(34,186,l)
);
}
);
width = 400;
}
);
unicode = 82;
},
{
glyphname = S;
lastChange = "2021-03-02 20:25:03 +0000";
layers = (
{
layerId = "A98666DC-4638-42B6-8332-BBF4982DF0EF";
shapes = (
{
closed = 1;
nodes = (
(20,200,l),
(20,97,ls),
(20,29,o),
(56,-7,o),
(125,-7,cs),
(143,-7,l),
(143,46,l),
(125,46,ls),
(91,46,o),
(73,63,o),
(73,97,cs),
(73,200,l)
);
},
{
closed = 1;
nodes = (
(248,600,ls),
(248,668,o),
(212,704,o),
(143,704,cs),
(131,704,l),
(131,651,l),
(143,651,ls),
(177,651,o),
(195,634,o),
(195,600,cs),
(195,467,l),
(248,461,l)
);
},
{
closed = 1;
nodes = (
(20,375,o),
(28,362,o),
(44,355,cs),
(236,265,l),
(194,309,l),
(195,86,ls),
(195,60,o),
(177,46,o),
(143,46,cs),
(116,46,l),
(116,-7,l),
(143,-7,ls),
(212,-7,o),
(248,25,o),
(248,86,cs),
(248,286,ls),
(248,306,o),
(239,319,o),
(224,326,cs),
(64,402,l),
(74,375,l),
(73,611,ls),
(73,637,o),
(91,651,o),
(125,651,cs),
(152,651,l),
(152,704,l),
(125,704,ls),
(56,704,o),
(20,672,o),
(20,611,cs),
(20,395,ls)
);
}
);
width = 268;
},
{
layerId = "83682BA5-5A7B-4081-8B26-D550B6F33EEB";
shapes = (
{
closed = 1;
nodes = (
(20,200,l),
(20,89,ls),
(20,33,o),
(58,-4,o),
(114,-4,cs),
(136,-4,l),
(136,89,l),
(120,89,ls),
(116,89,o),
(115,90,o),
(115,94,cs),
(115,200,l)
);
},
{
closed = 1;
nodes = (
(260,611,ls),
(260,667,o),
(222,704,o),
(166,704,cs),
(136,704,l),
(136,611,l),
(160,611,ls),
(164,611,o),
(165,610,o),
(165,606,cs),
(165,471,l),
(260,463,l)
);
},
{
closed = 1;
nodes = (
(20,330.465,o),
(68,316,o),
(85.64,308.858,cs),
(203,257,l),
(165,316,l),
(165,94,ls),
(165,90,o),
(164,89,o),
(160,89,cs),
(136,89,l),
(136,-4,l),
(166,-4,ls),
(222,-4,o),
(260,33,o),
(260,89,cs),
(260,288,ls),
(260,340.535,o),
(212,354,o),
(194,362,cs),
(77,414,l),
(115,355,l),
(115,606,ls),
(115,610,o),
(116,611,o),
(120,611,cs),
(144,611,l),
(144,704,l),
(114,704,ls),
(58,704,o),
(20,667,o),
(20,611,cs),
(20,383,ls)
);
}
);
width = 280;
},
{
layerId = "E6A807D2-02F5-45B7-9AC8-B5230FFEC057";
shapes = (
{
closed = 1;
nodes = (
(15,220,l),
(15,135,ls),
(15,33,o),
(56,-8,o),
(159,-8,cs),
(197,-8,l),
(195,125,l),
(156,125,ls),
(152,125,o),
(151,126,o),
(151,130,cs),
(151,220,l)
);
},
{
closed = 1;
nodes = (
(327,565,ls),
(327,667,o),
(286,708,o),
(183,708,cs),
(155,708,l),
(156,575,l),
(186,575,ls),
(190,575,o),
(191,574,o),
(191,570,cs),
(191,455,l),
(327,440,l)
);
},
{
closed = 1;
nodes = (
(15,353,o),
(27,334,o),
(78,312,cs),
(193,262,l),
(191,265,l),
(190,130,ls),
(190,126,o),
(189,125,o),
(185,125,cs),
(159,125,l),
(157,-8,l),
(183,-8,ls),
(286,-8,o),
(327,33,o),
(327,135,cs),
(327,284,ls),
(327,333,o),
(315,352,o),
(264,374,cs),
(149,424,l),
(151,421,l),
(151,570,ls),
(151,574,o),
(152,575,o),
(156,575,cs),
(197,575,l),
(197,708,l),
(159,708,ls),
(56,708,o),
(15,667,o),
(15,565,cs),
(15,402,ls)
);
}
);
width = 342;
}
);
unicode = 83;
},
{
glyphname = T;
lastChange = "2021-03-02 20:25:15 +0000";
layers = (
{
layerId = "A98666DC-4638-42B6-8332-BBF4982DF0EF";
shapes = (
{
closed = 1;
nodes = (
(57,0,l),
(110,0,l),
(110,700,l),
(57,700,l)
);
},
{
closed = 1;
nodes = (
(-40,700,l),
(-40,647,l),
(206,647,l),
(206,700,l)
);
}
);
width = 166;
},
{
layerId = "83682BA5-5A7B-4081-8B26-D550B6F33EEB";
shapes = (
{
closed = 1;
nodes = (
(110,0,l),
(205,0,l),
(205,700,l),
(110,700,l)
);
},
{
closed = 1;
nodes = (
(295,607,l),
(295,700,l),
(20,700,l),
(20,607,l)
);
}
);
width = 315;
},
{
layerId = "E6A807D2-02F5-45B7-9AC8-B5230FFEC057";
shapes = (
{
closed = 1;
nodes = (
(249,0,l),
(249,700,l),
(113,700,l),
(113,0,l)
);
},
{
closed = 1;
nodes = (
(341,567,l),
(341,700,l),
(20,700,l),
(20,567,l)
);
}
);
width = 361;
}
);
unicode = 84;
},
{
glyphname = U;
kernLeft = OU;
kernRight = OU;
lastChange = "2021-03-02 20:27:51 +0000";
layers = (
{
anchors = (
{
name = bottom;
pos = (150,-7);
},
{
name = ogonek;
pos = (253,10);
},
{
name = top;
pos = (141,700);
},
{
name = topright;
pos = (261,700);
}
);
layerId = "A98666DC-4638-42B6-8332-BBF4982DF0EF";
shapes = (
{
closed = 1;
nodes = (
(25,700,l),
(15,647,l),
(86,647,l),
(86,700,l)
);
},
{
closed = 1;
nodes = (
(261,700,l),
(208,700,l),
(208,97,ls),
(208,63,o),
(191,46,o),
(149,46,cs),
(145,46,ls),
(103,46,o),
(86,64,o),
(86,97,cs),
(86,700,l),
(33,700,l),
(33,97,ls),
(33,28,o),
(71,-7,o),
(145,-7,cs),
(149,-7,ls),
(225,-7,o),
(261,28,o),
(261,97,cs)
);
}
);
width = 281;
},
{
anchors = (
{
name = bottom;
pos = (152,-4);
},
{
name = ogonek;
pos = (266,10);
},
{
name = top;
pos = (148,700);
},
{
name = topright;
pos = (275,700);
}
);
layerId = "83682BA5-5A7B-4081-8B26-D550B6F33EEB";
shapes = (
{
closed = 1;
nodes = (
(20,700,l),
(10,607,l),
(120,607,l),
(120,700,l)
);
},
{
closed = 1;
nodes = (
(275,698,l),
(180,698,l),
(180,94,ls),
(180,90,o),
(179,89,o),
(175,89,cs),
(125,89,ls),
(121,89,o),
(120,90,o),
(120,94,cs),
(120,700,l),
(25,700,l),
(25,89,ls),
(25,33,o),
(63,-4,o),
(119,-4,cs),
(181,-4,ls),
(237,-4,o),
(275,33,o),
(275,89,cs)
);
}
);
width = 295;
},
{
anchors = (
{
name = bottom;
pos = (216,-8);
},
{
name = ogonek;
pos = (352,1);
},
{
name = top;
pos = (196,700);
},
{
name = topright;
pos = (371,700);
}
);
layerId = "E6A807D2-02F5-45B7-9AC8-B5230FFEC057";
shapes = (
{
closed = 1;
nodes = (
(170,567,l),
(170,700,l),
(29,700,l),
(15,567,l)
);
},
{
closed = 1;
nodes = (
(376,700,l),
(240,700,l),
(240,134,ls),
(240,130,o),
(239,129,o),
(235,129,cs),
(175,129,ls),
(171,129,o),
(170,130,o),
(170,134,cs),
(170,700,l),
(34,700,l),
(34,139,ls),
(34,37,o),
(75,-4,o),
(178,-4,cs),
(232,-4,ls),
(335,-4,o),
(376,37,o),
(376,139,cs)
);
}
);
width = 391;
}
);
unicode = 85;
},
{
glyphname = V;
lastChange = "2021-03-02 20:27:59 +0000";
layers = (
{
layerId = "A98666DC-4638-42B6-8332-BBF4982DF0EF";
shapes = (
{
closed = 1;
nodes = (
(118,0,l),
(178,0,l),
(281,700,l),
(229,700,l),
(140,76,l),
(156,76,l),
(67,700,l),
(15,700,l)
);
}
);
width = 296;
},
{
layerId = "83682BA5-5A7B-4081-8B26-D550B6F33EEB";
shapes = (
{
closed = 1;
nodes = (
(141,103,l),
(149,103,l),
(95,700,l),
(0,700,l),
(62,0,l),
(228,0,l),
(290,700,l),
(195,700,l)
);
}
);
width = 290;
},
{
layerId = "E6A807D2-02F5-45B7-9AC8-B5230FFEC057";
shapes = (
{
closed = 1;
nodes = (
(329,0,l),
(432,700,l),
(297,700,l),
(208,76,l),
(244,76,l),
(155,700,l),
(20,700,l),
(123,0,l)
);
}
);
width = 452;
},
{
associatedMasterId = "83682BA5-5A7B-4081-8B26-D550B6F33EEB";
layerId = "A57D87E7-6E1A-4373-AC43-C3A90116F354";
name = "19 Feb 21, 19:13";
shapes = (
{
closed = 1;
nodes = (
(203,93,l),
(76,93,l),
(76,0,l),
(203,0,l)
);
},
{
closed = 1;
nodes = (
(132,0,l),
(228,0,l),
(290,700,l),
(195,700,l)
);
},
{
closed = 1;
nodes = (
(0,700,l),
(62,0,l),
(158,0,l),
(95,700,l)
);
}
);
width = 290;
}
);
unicode = 86;
},
{
glyphname = W;
lastChange = "2021-03-02 20:28:03 +0000";
layers = (
{
anchors = (
{
name = bottom;
pos = (209,0);
},
{
name = top;
pos = (209,700);
}
);
layerId = "A98666DC-4638-42B6-8332-BBF4982DF0EF";
shapes = (
{
closed = 1;
nodes = (
(184,601,l),
(97,0,l),
(141,0,l),
(215,536,l),
(202,536,l),
(277,0,l),
(321,0,l),
(234,601,l)
);
},
{
closed = 1;
nodes = (
(118,0,l),
(68,700,l),
(15,700,l),
(65,0,l)
);
},
{
closed = 1;
nodes = (
(353,0,l),
(403,700,l),
(350,700,l),
(300,0,l)
);
}
);
width = 418;
},
{
anchors = (
{
name = bottom;
pos = (207,0);
},
{
name = top;
pos = (207,700);
}
);
layerId = "83682BA5-5A7B-4081-8B26-D550B6F33EEB";
shapes = (
{
closed = 1;
nodes = (
(174,601,l),
(94,0,l),
(158,0,l),
(212,416,l),
(202,416,l),
(255,0,l),
(319,0,l),
(239,601,l)
);
},
{
closed = 1;
nodes = (
(158,0,l),
(95,700,l),
(0,700,l),
(62,0,l)
);
},
{
closed = 1;
nodes = (
(351,0,l),
(413,700,l),
(318,700,l),
(255,0,l)
);
}
);
width = 413;
},
{
anchors = (
{
name = bottom;
pos = (261,0);
},
{
name = top;
pos = (261,700);
}
);
layerId = "E6A807D2-02F5-45B7-9AC8-B5230FFEC057";
shapes = (
{
closed = 1;
nodes = (
(217,600,l),
(117,0,l),
(216,0,l),
(269,416,l),
(259,416,l),
(313,0,l),
(412,0,l),
(312,600,l)
);
},
{
closed = 1;
nodes = (
(161,0,l),
(161,700,l),
(25,700,l),
(25,0,l)
);
},
{
closed = 1;
nodes = (
(501,0,l),
(501,700,l),
(365,700,l),
(365,0,l)
);
}
);
width = 521;
}
);
unicode = 87;
},
{
glyphname = X;
lastChange = "2021-03-02 20:28:53 +0000";
layers = (
{
layerId = "A98666DC-4638-42B6-8332-BBF4982DF0EF";
shapes = (
{
closed = 1;
nodes = (
(126,309,l),
(179,309,l),
(290,700,l),
(237,700,l),
(136,351,l),
(166,351,l),
(69,700,l),
(15,700,l)
);
},
{
closed = 1;
nodes = (
(69,0,l),
(166,349,l),
(136,349,l),
(237,0,l),
(290,0,l),
(179,391,l),
(126,391,l),
(15,0,l)
);
}
);
width = 305;
},
{
layerId = "E6A807D2-02F5-45B7-9AC8-B5230FFEC057";
shapes = (
{
closed = 1;
nodes = (
(272,269,l),
(389,700,l),
(254,700,l),
(190,391,l),
(220,391,l),
(155,700,l),
(20,700,l),
(137,269,l)
);
},
{
closed = 1;
nodes = (
(155,0,l),
(220,309,l),
(190,309,l),
(254,0,l),
(389,0,l),
(272,431,l),
(137,431,l),
(20,0,l)
);
}
);
width = 409;
},
{
layerId = "83682BA5-5A7B-4081-8B26-D550B6F33EEB";
shapes = (
{
closed = 1;
nodes = (
(125,309,l),
(221,309,l),
(327,700,l),
(227,700,l),
(159,394,l),
(187,394,l),
(120,700,l),
(20,700,l)
);
},
{
closed = 1;
nodes = (
(120,0,l),
(187,306,l),
(159,306,l),
(227,0,l),
(327,0,l),
(221,391,l),
(125,391,l),
(20,0,l)
);
}
);
width = 347;
}
);
unicode = 88;
},
{
glyphname = Y;
kernLeft = Y;
kernRight = Y;
lastChange = "2021-03-02 20:29:04 +0000";
layers = (
{
layerId = "A98666DC-4638-42B6-8332-BBF4982DF0EF";
shapes = (
{
closed = 1;
nodes = (
(69,700,l),
(15,700,l),
(126,309,l),
(179,309,l),
(290,700,l),
(237,700,l),
(136,351,l),
(166,351,l)
);
},
{
closed = 1;
nodes = (
(126,0,l),
(179,0,l),
(179,309,l),
(126,309,l)
);
}
);
width = 305;
},
{
layerId = "83682BA5-5A7B-4081-8B26-D550B6F33EEB";
shapes = (
{
closed = 1;
nodes = (
(95,700,l),
(0,700,l),
(117,309,l),
(212,309,l),
(329,700,l),
(234,700,l),
(153,428,l),
(176,428,l)
);
},
{
closed = 1;
nodes = (
(117,309,l),
(117,0,l),
(212,0,l),
(212,309,l)
);
}
);
width = 329;
},
{
layerId = "E6A807D2-02F5-45B7-9AC8-B5230FFEC057";
shapes = (
{
closed = 1;
nodes = (
(155,700,l),
(20,700,l),
(137,269,l),
(272,269,l),
(389,700,l),
(254,700,l),
(190,391,l),
(220,391,l)
);
},
{
closed = 1;
nodes = (
(272,0,l),
(272,269,l),
(137,269,l),
(137,0,l)
);
}
);
width = 409;
}
);
unicode = 89;
},
{
glyphname = Z;
lastChange = "2021-03-02 20:23:51 +0000";
layers = (
{
anchors = (
{
name = bottom;
pos = (132,0);
},
{
name = center;
pos = (132,350);
},
{
name = top;
pos = (132,700);
}
);
layerId = "A98666DC-4638-42B6-8332-BBF4982DF0EF";
shapes = (
{
closed = 1;
nodes = (
(86,53,ls),
(72,53,o),
(69,56,o),
(73,70,cs),
(244,630,ls),
(248,643,o),
(249,649,o),
(249,658,cs),
(249,700,l),
(15,700,l),
(15,647,l),
(178,647,ls),
(192,647,o),
(195,644,o),
(191,630,cs),
(20,70,ls),
(16,57,o),
(15,51,o),
(15,42,cs),
(15,0,l),
(249,0,l),
(249,53,l)
);
}
);
width = 264;
},
{
anchors = (
{
name = bottom;
pos = (139,0);
},
{
name = center;
pos = (139,350);
},
{
name = top;
pos = (139,700);
}
);
layerId = "83682BA5-5A7B-4081-8B26-D550B6F33EEB";
shapes = (
{
closed = 1;
nodes = (
(128,93,ls),
(124,93,o),
(123,94,o),
(124,98,cs),
(262,590,ls),
(265,599,o),
(267,613,o),
(267,626,cs),
(267,699,l),
(20,699,l),
(20,606,l),
(168,606,ls),
(172,606,o),
(173,605,o),
(172,601,cs),
(25,109,ls),
(22,100,o),
(20,86,o),
(20,73,cs),
(20,0,l),
(267,0,l),
(267,93,l)
);
}
);
width = 277;
},
{
anchors = (
{
name = bottom;
pos = (170,-5);
},
{
name = center;
pos = (170,350);
},
{
name = top;
pos = (170,700);
}
);
layerId = "E6A807D2-02F5-45B7-9AC8-B5230FFEC057";
shapes = (
{
closed = 1;
nodes = (
(161,128,ls),
(158,128,o),
(157,129,o),
(158,133,cs),
(311,542,ls),
(318,562,o),
(320,583.225,o),
(320,599,cs),
(320,700,l),
(20,700,l),
(20,567,l),
(179,567,ls),
(183,567,o),
(184,566,o),
(182,562,cs),
(29,153,ls),
(22,133,o),
(20,111.775,o),
(20,96,cs),
(20,-5,l),
(320,-5,l),
(320,128,l)
);
}
);
width = 340;
}
);
unicode = 90;
},
{
glyphname = a;
kernLeft = a;
kernRight = a;
lastChange = "2021-03-02 21:20:24 +0000";
layers = (
{
layerId = "A98666DC-4638-42B6-8332-BBF4982DF0EF";
shapes = (
{
closed = 1;
nodes = (
(226,0,l),
(226,500,l),
(173,500,l),
(173,0,l)
);
},
{
closed = 1;
nodes = (
(73,202,l),
(73,417,ls),
(73,441,o),
(79,447,o),
(103,447,cs),
(216,447,l),
(216,448,ls),
(216,463,o),
(174,500,o),
(124,500,cs),
(122,500,ls),
(57,500,o),
(20,468,o),
(20,407,cs),
(20,202,l)
);
},
{
closed = 1;
nodes = (
(150,0,l),
(198,53,l),
(103,53,ls),
(79,53,o),
(73,59,o),
(73,83,cs),
(73,258,l),
(20,258,l),
(20,93,ls),
(20,39,o),
(60,0,o),
(121,0,cs)
);
},
{
closed = 1;
nodes = (
(246,0,l),
(238,53,l),
(173,53,l),
(173,0,l)
);
}
);
width = 261;
},
{
layerId = "E6A807D2-02F5-45B7-9AC8-B5230FFEC057";
shapes = (
{
closed = 1;
nodes = (
(352,0,l),
(352,500,l),
(216,500,l),
(216,0,l)
);
},
{
closed = 1;
nodes = (
(156,249,l),
(156,362,ls),
(156,366,o),
(157,367,o),
(161,367,cs),
(276,367,l),
(276,391,ls),
(276,456,o),
(233,500,o),
(169,500,cs),
(160,500,ls),
(60,500,o),
(20,459,o),
(20,357,cs),
(20,249,l)
);
},
{
closed = 1;
nodes = (
(180,0,l),
(270,133,l),
(161,133,ls),
(157,133,o),
(156,134,o),
(156,138,cs),
(156,251,l),
(20,251,l),
(20,143,ls),
(20,41,o),
(61,0,o),
(164,0,cs)
);
},
{
closed = 1;
nodes = (
(372,0,l),
(362,133,l),
(216,133,l),
(216,0,l)
);
}
);
width = 382;
},
{
layerId = "83682BA5-5A7B-4081-8B26-D550B6F33EEB";
shapes = (
{
closed = 1;
nodes = (
(268,0,l),
(268,500,l),
(173,500,l),
(173,0,l)
);
},
{
closed = 1;
nodes = (
(115,202,l),
(115,402,ls),
(115,406,o),
(116,407,o),
(120,407,cs),
(214,407,l),
(214,408,ls),
(214,461,o),
(178,500,o),
(125,500,cs),
(121,500,ls),
(60,500,o),
(20,461,o),
(20,407,cs),
(20,202,l)
);
},
{
closed = 1;
nodes = (
(148,0,l),
(208,93,l),
(120,93,ls),
(116,93,o),
(115,94,o),
(115,98,cs),
(115,258,l),
(20,258,l),
(20,93,ls),
(20,39,o),
(60,0,o),
(121,0,cs)
);
},
{
closed = 1;
nodes = (
(292,0,l),
(282,93,l),
(173,93,l),
(173,0,l)
);
}
);
visible = 1;
width = 302;
}
);
unicode = 97;
},
{
glyphname = ae;
kernLeft = a;
lastChange = "2021-02-20 16:22:02 +0000";
layers = (
{
layerId = "A98666DC-4638-42B6-8332-BBF4982DF0EF";
shapes = (
{
closed = 1;
nodes = (
(226,0,l),
(226,500,l),
(173,500,l),
(173,0,l)
);
},
{
closed = 1;
nodes = (
(73,202,l),
(73,417,ls),
(73,441,o),
(79,447,o),
(103,447,cs),
(216,447,l),
(216,448,ls),
(216,464,o),
(174,500,o),
(124,500,cs),
(122,500,ls),
(57,500,o),
(20,468,o),
(20,407,cs),
(20,202,l)
);
},
{
closed = 1;
nodes = (
(173,230,l),
(226,230,l),
(226,396,ls),
(226,437,o),
(236,447,o),
(278,447,cs),
(283,447,l),
(283,500,l),
(278,500,ls),
(209,500,o),
(173,464,o),
(173,396,cs)
);
},
{
closed = 1;
nodes = (
(150,0,l),
(198,53,l),
(103,53,ls),
(79,53,o),
(73,59,o),
(73,83,cs),
(73,258,l),
(20,258,l),
(20,93,ls),
(20,39,o),
(60,0,o),
(121,0,cs)
);
},
{
closed = 1;
nodes = (
(394,148,l),
(341,148,l),
(341,104,ls),
(341,63,o),
(331,53,o),
(289,53,cs),
(283,53,l),
(283,0,l),
(289,0,ls),
(358,0,o),
(394,36,o),
(394,104,cs)
);
},
{
closed = 1;
nodes = (
(173,36,o),
(209,0,o),
(278,0,cs),
(283,0,l),
(283,53,l),
(278,53,ls),
(236,53,o),
(226,63,o),
(226,104,cs),
(226,238,l),
(173,238,l),
(173,104,ls)
);
},
{
closed = 1;
nodes = (
(394,464,o),
(358,500,o),
(289,500,cs),
(283,500,l),
(283,447,l),
(289,447,ls),
(331,447,o),
(341,437,o),
(341,396,cs),
(341,230,l),
(394,230,l),
(394,396,ls)
);
},
{
closed = 1;
nodes = (
(173,261,l),
(173,208,l),
(394,208,l),
(394,261,l)
);
},
{
closed = 1;
nodes = (
(246,0,l),
(238,53,l),
(173,53,l),
(173,0,l)
);
}
);
width = 414;
},
{
layerId = "83682BA5-5A7B-4081-8B26-D550B6F33EEB";
shapes = (
{
closed = 1;
nodes = (
(268,0,l),
(268,500,l),
(173,500,l),
(173,0,l)
);
},
{
closed = 1;
nodes = (
(115,202,l),
(115,402,ls),
(115,406,o),
(116,407,o),
(120,407,cs),
(214,407,l),
(214,408,ls),
(214,461,o),
(178,500,o),
(125,500,cs),
(121,500,ls),
(60,500,o),
(20,461,o),
(20,407,cs),
(20,202,l)
);
},
{
closed = 1;
nodes = (
(173,195,l),
(268,195,l),
(268,406,ls),
(268,410,o),
(269,411,o),
(273,411,cs),
(305,411,l),
(305,504,l),
(267,504,ls),
(211,504,o),
(173,467,o),
(173,411,cs)
);
},
{
closed = 1;
nodes = (
(148,0,l),
(208,93,l),
(120,93,ls),
(116,93,o),
(115,94,o),
(115,98,cs),
(115,258,l),
(20,258,l),
(20,93,ls),
(20,39,o),
(60,0,o),
(121,0,cs)
);
},
{
closed = 1;
nodes = (
(423,148,l),
(328,148,l),
(328,93,ls),
(328,90,o),
(327,89,o),
(323,89,cs),
(291,89,l),
(291,-4,l),
(329,-4,ls),
(385,-4,o),
(423,33,o),
(423,89,cs)
);
},
{
closed = 1;
nodes = (
(173,33,o),
(211,-4,o),
(267,-4,cs),
(305,-4,l),
(305,89,l),
(273,89,ls),
(269,89,o),
(268,90,o),
(268,94,cs),
(268,245,l),
(173,245,l),
(173,89,ls)
);
},
{
closed = 1;
nodes = (
(423,467,o),
(385,504,o),
(329,504,cs),
(291,504,l),
(291,411,l),
(323,411,ls),
(327,411,o),
(328,410,o),
(328,406,cs),
(328,288,l),
(423,288,l),
(423,411,ls)
);
},
{
closed = 1;
nodes = (
(173,288,l),
(173,195,l),
(423,195,l),
(423,288,l)
);
},
{
closed = 1;
nodes = (
(292,0,l),
(282,93,l),
(173,93,l),
(173,0,l)
);
}
);
width = 443;
},
{
layerId = "E6A807D2-02F5-45B7-9AC8-B5230FFEC057";
shapes = (
{
closed = 1;
nodes = (
(352,0,l),
(352,500,l),
(216,500,l),
(216,0,l)
);
},
{
closed = 1;
nodes = (
(156,249,l),
(156,362,ls),
(156,366,o),
(157,367,o),
(161,367,cs),
(276,367,l),
(276,391,ls),
(276,456,o),
(233,500,o),
(169,500,cs),
(160,500,ls),
(60,500,o),
(20,459,o),
(20,357,cs),
(20,249,l)
);
},
{
closed = 1;
nodes = (
(216,254,l),
(352,254,l),
(352,362,ls),
(352,366,o),
(353,367,o),
(357,367,cs),
(398,367,l),
(398,500,l),
(360,500,ls),
(257,500,o),
(216,459,o),
(216,357,cs)
);
},
{
closed = 1;
nodes = (
(180,0,l),
(270,133,l),
(161,133,ls),
(157,133,o),
(156,134,o),
(156,138,cs),
(156,251,l),
(20,251,l),
(20,143,ls),
(20,41,o),
(61,0,o),
(164,0,cs)
);
},
{
closed = 1;
nodes = (
(548,163,l),
(412,163,l),
(412,138,ls),
(412,134,o),
(411,133,o),
(407,133,cs),
(366,133,l),
(366,0,l),
(404,0,ls),
(507,0,o),
(548,41,o),
(548,143,cs)
);
},
{
closed = 1;
nodes = (
(216,40,o),
(257,0,o),
(360,0,cs),
(398,0,l),
(398,133,l),
(357,133,ls),
(353,133,o),
(352,134,o),
(352,138,cs),
(352,262,l),
(216,262,l),
(216,143,ls)
);
},
{
closed = 1;
nodes = (
(548,459,o),
(507,500,o),
(404,500,cs),
(366,500,l),
(366,367,l),
(407,367,ls),
(411,367,o),
(412,366,o),
(412,362,cs),
(412,207,l),
(548,207,l),
(548,357,ls)
);
},
{
closed = 1;
nodes = (
(216,297,l),
(216,184,l),
(548,184,l),
(548,297,l)
);
},
{
closed = 1;
nodes = (
(372,0,l),
(362,133,l),
(216,133,l),
(216,0,l)
);
}
);
width = 568;
},
{
associatedMasterId = "A98666DC-4638-42B6-8332-BBF4982DF0EF";
layerId = "4A77751A-1721-411C-9D26-212A98BDA935";
name = "Nov 22 20, 12:48";
shapes = (
{
closed = 1;
nodes = (
(73,143,l),
(73,220,o),
(73,99,o),
(73,178,cs),
(73,202,o),
(79,208,o),
(103,208,cs),
(147,208,o),
(172,208,o),
(216,208,c),
(216,222,o),
(174,261,o),
(123,261,cs),
(57,261,o),
(20,229,o),
(20,168,cs),
(20,143,l)
);
},
{
closed = 1;
nodes = (
(20,93,ls),
(20,39,o),
(60,0,o),
(121,0,cs),
(150,0,l),
(198,53,l),
(160,53,o),
(141,53,o),
(103,53,cs),
(79,53,o),
(73,59,o),
(73,83,cs),
(73,148,o),
(73,243,o),
(73,168,c),
(20,168,l)
);
},
{
closed = 1;
nodes = (
(173,0,l),
(246,0,l),
(238,53,l),
(173,53,l)
);
},
{
closed = 1;
nodes = (
(289,-4,ls),
(358,-4,o),
(394,32,o),
(394,100,cs),
(394,148,l),
(341,148,l),
(341,120,o),
(341,128,o),
(341,100,cs),
(341,59,o),
(331,49,o),
(289,49,cs),
(240,49,o),
(332,49,o),
(283,49,c),
(283,-4,l)
);
},
{
closed = 1;
nodes = (
(283,49,l),
(234,49,o),
(327,49,o),
(278,49,cs),
(236,49,o),
(226,59,o),
(226,100,cs),
(226,128,o),
(226,206,o),
(226,234,c),
(173,234,l),
(173,100,ls),
(173,32,o),
(209,-4,o),
(278,-4,cs),
(283,-4,l)
);
},
{
closed = 1;
nodes = (
(283,451,l),
(332,451,o),
(240,451,o),
(289,451,cs),
(331,451,o),
(341,441,o),
(341,400,cs),
(341,372,o),
(341,268,o),
(341,234,c),
(394,234,l),
(394,400,ls),
(394,468,o),
(358,504,o),
(289,504,cs),
(283,504,l)
);
},
{
closed = 1;
nodes = (
(278,504,ls),
(209,504,o),
(173,468,o),
(173,400,cs),
(173,234,l),
(226,234,l),
(226,262,o),
(226,372,o),
(226,400,cs),
(226,441,o),
(236,451,o),
(278,451,cs),
(327,451,o),
(234,451,o),
(283,451,c),
(283,504,l)
);
},
{
closed = 1;
nodes = (
(226,261,l),
(226,208,l),
(394,208,l),
(394,261,l)
);
},
{
closed = 1;
nodes = (
(97,451,l),
(146,451,o),
(72,451,o),
(121,451,cs),
(163,451,o),
(173,441,o),
(173,400,cs),
(173,372,o),
(173,262,o),
(173,234,c),
(226,234,l),
(226,400,ls),
(226,468,o),
(190,504,o),
(121,504,cs),
(97,504,l)
);
},
{
closed = 1;
nodes = (
(125,504,ls),
(56,504,o),
(20,468,o),
(20,400,cs),
(20,312,l),
(73,312,l),
(73,346,o),
(73,372,o),
(73,400,cs),
(73,441,o),
(83,451,o),
(125,451,cs),
(174,451,o),
(82,451,o),
(131,451,c),
(131,504,l)
);
}
);
width = 414;
}
);
unicode = 230;
},
{
glyphname = b;
lastChange = "2021-03-02 20:42:32 +0000";
layers = (
{
layerId = "A98666DC-4638-42B6-8332-BBF4982DF0EF";
shapes = (
{
closed = 1;
nodes = (
(86,0,l),
(86,700,l),
(33,700,l),
(33,0,l)
);
},
{
closed = 1;
nodes = (
(86,647,l),
(86,700,l),
(23,700,l),
(15,647,l)
);
},
{
closed = 1;
nodes = (
(239,298,l),
(186,298,l),
(186,83,ls),
(186,59,o),
(180,53,o),
(156,53,cs),
(43,53,l),
(43,53,o),
(43,52,o),
(43,52,cs),
(43,38,o),
(85,0,o),
(135,0,cs),
(137,0,ls),
(191,0,o),
(239,23,o),
(239,93,cs)
);
},
{
closed = 1;
nodes = (
(156,447,ls),
(180,447,o),
(186,441,o),
(186,417,cs),
(186,242,l),
(239,242,l),
(239,407,ls),
(239,461,o),
(199,500,o),
(138,500,cs),
(109,500,l),
(61,447,l)
);
}
);
width = 259;
},
{
layerId = "E6A807D2-02F5-45B7-9AC8-B5230FFEC057";
shapes = (
{
closed = 1;
nodes = (
(166,0,l),
(166,700,l),
(30,700,l),
(30,0,l)
);
},
{
closed = 1;
nodes = (
(166,567,l),
(166,700,l),
(20,700,l),
(10,567,l)
);
},
{
closed = 1;
nodes = (
(362,251,l),
(226,251,l),
(226,138,ls),
(226,134,o),
(225,133,o),
(221,133,cs),
(106,133,l),
(106,125,o),
(106,117,o),
(106,109,cs),
(106,44,o),
(149,0,o),
(213,0,cs),
(222,0,ls),
(322,0,o),
(362,41,o),
(362,143,cs)
);
},
{
closed = 1;
nodes = (
(221,367,ls),
(225,367,o),
(226,366,o),
(226,362,cs),
(226,249,l),
(362,249,l),
(362,357,ls),
(362,459,o),
(321,500,o),
(218,500,cs),
(202,500,l),
(112,367,l)
);
}
);
width = 382;
},
{
layerId = "83682BA5-5A7B-4081-8B26-D550B6F33EEB";
shapes = (
{
closed = 1;
nodes = (
(129,0,l),
(129,700,l),
(34,700,l),
(34,0,l)
);
},
{
closed = 1;
nodes = (
(129,607,l),
(129,700,l),
(20,700,l),
(10,607,l)
);
},
{
closed = 1;
nodes = (
(282,298,l),
(187,298,l),
(187,98,ls),
(187,94,o),
(186,93,o),
(182,93,cs),
(88,93,l),
(88,93,o),
(88,92,o),
(88,92,cs),
(88,39,o),
(124,0,o),
(177,0,cs),
(181,0,ls),
(242,0,o),
(282,39,o),
(282,93,cs)
);
},
{
closed = 1;
nodes = (
(182,407,ls),
(186,407,o),
(187,406,o),
(187,402,cs),
(187,298,l),
(282,298,l),
(282,407,ls),
(282,461,o),
(242,500,o),
(181,500,cs),
(154,500,l),
(94,407,l)
);
}
);
width = 302;
}
);
unicode = 98;
},
{
glyphname = c;
kernLeft = ou;
kernRight = ou;
lastChange = "2021-03-02 21:20:44 +0000";
layers = (
{
layerId = "A98666DC-4638-42B6-8332-BBF4982DF0EF";
shapes = (
{
closed = 1;
nodes = (
(241,209,l),
(188,209,l),
(188,100,ls),
(188,59,o),
(178,49,o),
(136,49,cs),
(130,49,l),
(130,-4,l),
(136,-4,ls),
(205,-4,o),
(241,32,o),
(241,100,cs)
);
},
{
closed = 1;
nodes = (
(20,32,o),
(56,-4,o),
(125,-4,cs),
(130,-4,l),
(130,49,l),
(125,49,ls),
(83,49,o),
(73,59,o),
(73,100,cs),
(73,234,l),
(20,234,l),
(20,100,ls)
);
},
{
closed = 1;
nodes = (
(241,468,o),
(205,504,o),
(136,504,cs),
(130,504,l),
(130,451,l),
(136,451,ls),
(178,451,o),
(188,441,o),
(188,400,cs),
(188,287,l),
(241,281,l),
(241,400,ls)
);
},
{
closed = 1;
nodes = (
(20,234,l),
(73,234,l),
(73,400,ls),
(73,441,o),
(83,451,o),
(125,451,cs),
(130,451,l),
(130,504,l),
(125,504,ls),
(56,504,o),
(20,468,o),
(20,400,cs)
);
}
);
width = 261;
},
{
layerId = "83682BA5-5A7B-4081-8B26-D550B6F33EEB";
shapes = (
{
closed = 1;
nodes = (
(280,209,l),
(185,209,l),
(185,93,ls),
(185,90,o),
(184,89,o),
(180,89,cs),
(148,89,l),
(148,-4,l),
(186,-4,ls),
(242,-4,o),
(280,33,o),
(280,89,cs)
);
},
{
closed = 1;
nodes = (
(20,33,o),
(58,-4,o),
(114,-4,cs),
(152,-4,l),
(152,89,l),
(120,89,ls),
(116,89,o),
(115,90,o),
(115,94,cs),
(115,245,l),
(20,245,l),
(20,89,ls)
);
},
{
closed = 1;
nodes = (
(280,467,o),
(242,504,o),
(186,504,cs),
(148,504,l),
(148,411,l),
(180,411,ls),
(184,411,o),
(185,410,o),
(185,406,cs),
(185,289,l),
(280,279,l),
(280,411,ls)
);
},
{
closed = 1;
nodes = (
(20,195,l),
(115,195,l),
(115,406,ls),
(115,410,o),
(116,411,o),
(120,411,cs),
(152,411,l),
(152,504,l),
(114,504,ls),
(58,504,o),
(20,467,o),
(20,411,cs)
);
}
);
width = 300;
},
{
layerId = "E6A807D2-02F5-45B7-9AC8-B5230FFEC057";
shapes = (
{
closed = 1;
nodes = (
(352,219,l),
(216,219,l),
(216,130,ls),
(216,126,o),
(215,125,o),
(211,125,cs),
(170,125,l),
(170,-8,l),
(208,-8,ls),
(311,-8,o),
(352,33,o),
(352,135,cs)
);
},
{
closed = 1;
nodes = (
(20,32,o),
(61,-8,o),
(164,-8,cs),
(202,-8,l),
(202,125,l),
(161,125,ls),
(157,125,o),
(156,126,o),
(156,130,cs),
(156,254,l),
(20,254,l),
(20,135,ls)
);
},
{
closed = 1;
nodes = (
(352,459,o),
(311,500,o),
(208,500,cs),
(170,500,l),
(170,367,l),
(211,367,ls),
(215,367,o),
(216,366,o),
(216,362,cs),
(216,279,l),
(352,264,l),
(352,357,ls)
);
},
{
closed = 1;
nodes = (
(20,254,l),
(156,254,l),
(156,362,ls),
(156,366,o),
(157,367,o),
(161,367,cs),
(202,367,l),
(202,500,l),
(164,500,ls),
(61,500,o),
(20,459,o),
(20,357,cs)
);
}
);
width = 372;
}
);
unicode = 99;
},
{
glyphname = d;
lastChange = "2021-03-02 21:19:05 +0000";
layers = (
{
layerId = "A98666DC-4638-42B6-8332-BBF4982DF0EF";
shapes = (
{
closed = 1;
nodes = (
(226,0,l),
(226,700,l),
(173,700,l),
(173,0,l)
);
},
{
closed = 1;
nodes = (
(226,647,l),
(226,700,l),
(163,700,l),
(155,647,l)
);
},
{
closed = 1;
nodes = (
(246,0,l),
(238,53,l),
(173,53,l),
(173,0,l)
);
},
{
closed = 1;
nodes = (
(73,202,l),
(73,417,ls),
(73,441,o),
(79,447,o),
(103,447,cs),
(216,447,l),
(216,448,ls),
(216,463,o),
(174,500,o),
(124,500,cs),
(122,500,ls),
(57,500,o),
(20,468,o),
(20,407,cs),
(20,202,l)
);
},
{
closed = 1;
nodes = (
(150,0,l),
(198,53,l),
(103,53,ls),
(79,53,o),
(73,59,o),
(73,83,cs),
(73,258,l),
(20,258,l),
(20,93,ls),
(20,39,o),
(60,0,o),
(121,0,cs)
);
}
);
width = 261;
},
{
layerId = "E6A807D2-02F5-45B7-9AC8-B5230FFEC057";
shapes = (
{
closed = 1;
nodes = (
(352,0,l),
(352,700,l),
(216,700,l),
(216,0,l)
);
},
{
closed = 1;
nodes = (
(352,567,l),
(352,700,l),
(206,700,l),
(196,567,l)
);
},
{
closed = 1;
nodes = (
(372,0,l),
(362,133,l),
(216,133,l),
(216,0,l)
);
},
{
closed = 1;
nodes = (
(156,249,l),
(156,362,ls),
(156,366,o),
(157,367,o),
(161,367,cs),
(276,367,l),
(276,391,ls),
(276,456,o),
(233,500,o),
(169,500,cs),
(160,500,ls),
(60,500,o),
(20,459,o),
(20,357,cs),
(20,249,l)
);
},
{
closed = 1;
nodes = (
(180,0,l),
(270,133,l),
(161,133,ls),
(157,133,o),
(156,134,o),
(156,138,cs),
(156,251,l),
(20,251,l),
(20,143,ls),
(20,41,o),
(61,0,o),
(164,0,cs)
);
}
);
width = 382;
},
{
layerId = "83682BA5-5A7B-4081-8B26-D550B6F33EEB";
shapes = (
{
closed = 1;
nodes = (
(173,0,l),
(268,0,l),
(268,700,l),
(173,700,l)
);
},
{
closed = 1;
nodes = (
(268,607,l),
(268,700,l),
(159,700,l),
(149,607,l)
);
},
{
closed = 1;
nodes = (
(292,0,l),
(282,93,l),
(173,93,l),
(173,0,l)
);
},
{
closed = 1;
nodes = (
(115,202,l),
(115,402,ls),
(115,406,o),
(116,407,o),
(120,407,cs),
(214,407,l),
(214,408,ls),
(214,461,o),
(178,500,o),
(125,500,cs),
(121,500,ls),
(60,500,o),
(20,461,o),
(20,407,cs),
(20,202,l)
);
},
{
closed = 1;
nodes = (
(148,0,l),
(208,93,l),
(120,93,ls),
(116,93,o),
(115,94,o),
(115,98,cs),
(115,258,l),
(20,258,l),
(20,93,ls),
(20,39,o),
(60,0,o),
(121,0,cs)
);
}
);
width = 302;
}
);
unicode = 100;
},
{
glyphname = eth;
lastChange = "2021-02-20 16:19:15 +0000";
layers = (
{
layerId = "A98666DC-4638-42B6-8332-BBF4982DF0EF";
shapes = (
{
closed = 1;
nodes = (
(263,540,l),
(263,588,l),
(93,588,l),
(93,540,l)
);
},
{
closed = 1;
nodes = (
(226,0,l),
(226,700,l),
(173,700,l),
(173,0,l)
);
},
{
closed = 1;
nodes = (
(226,647,l),
(226,700,l),
(163,700,l),
(155,647,l)
);
},
{
closed = 1;
nodes = (
(246,0,l),
(238,53,l),
(173,53,l),
(173,0,l)
);
},
{
closed = 1;
nodes = (
(73,202,l),
(73,417,ls),
(73,441,o),
(79,447,o),
(103,447,cs),
(216,447,l),
(216,448,ls),
(216,463,o),
(174,500,o),
(124,500,cs),
(122,500,ls),
(57,500,o),
(20,468,o),
(20,407,cs),
(20,202,l)
);
},
{
closed = 1;
nodes = (
(150,0,l),
(198,53,l),
(103,53,ls),
(79,53,o),
(73,59,o),
(73,83,cs),
(73,258,l),
(20,258,l),
(20,93,ls),
(20,39,o),
(60,0,o),
(121,0,cs)
);
}
);
width = 278;
},
{
layerId = "83682BA5-5A7B-4081-8B26-D550B6F33EEB";
shapes = (
{
closed = 1;
nodes = (
(115,578,l),
(115,515,l),
(305,515,l),
(305,578,l)
);
},
{
closed = 1;
nodes = (
(173,0,l),
(268,0,l),
(268,700,l),
(173,700,l)
);
},
{
closed = 1;
nodes = (
(268,607,l),
(268,700,l),
(159,700,l),
(149,607,l)
);
},
{
closed = 1;
nodes = (
(292,0,l),
(282,93,l),
(173,93,l),
(173,0,l)
);
},
{
closed = 1;
nodes = (
(115,202,l),
(115,402,ls),
(115,406,o),
(116,407,o),
(120,407,cs),
(214,407,l),
(214,408,ls),
(214,461,o),
(178,500,o),
(125,500,cs),
(121,500,ls),
(60,500,o),
(20,461,o),
(20,407,cs),
(20,202,l)
);
},
{
closed = 1;
nodes = (
(148,0,l),
(208,93,l),
(120,93,ls),
(116,93,o),
(115,94,o),
(115,98,cs),
(115,258,l),
(20,258,l),
(20,93,ls),
(20,39,o),
(60,0,o),
(121,0,cs)
);
}
);
width = 315;
},
{
layerId = "E6A807D2-02F5-45B7-9AC8-B5230FFEC057";
shapes = (
{
closed = 1;
nodes = (
(373,506,l),
(373,559,l),
(182,559,l),
(182,506,l)
);
},
{
closed = 1;
nodes = (
(352,0,l),
(352,700,l),
(216,700,l),
(216,0,l)
);
},
{
closed = 1;
nodes = (
(352,567,l),
(352,700,l),
(206,700,l),
(196,567,l)
);
},
{
closed = 1;
nodes = (
(372,0,l),
(362,133,l),
(216,133,l),
(216,0,l)
);
},
{
closed = 1;
nodes = (
(156,249,l),
(156,362,ls),
(156,366,o),
(157,367,o),
(161,367,cs),
(276,367,l),
(276,391,ls),
(276,456,o),
(233,500,o),
(169,500,cs),
(160,500,ls),
(60,500,o),
(20,459,o),
(20,357,cs),
(20,249,l)
);
},
{
closed = 1;
nodes = (
(180,0,l),
(270,133,l),
(161,133,ls),
(157,133,o),
(156,134,o),
(156,138,cs),
(156,251,l),
(20,251,l),
(20,143,ls),
(20,41,o),
(61,0,o),
(164,0,cs)
);
}
);
width = 393;
},
{
associatedMasterId = "A98666DC-4638-42B6-8332-BBF4982DF0EF";
layerId = "CBE8B21C-0B9F-4F0B-97A1-587F5E2793FA";
name = "Nov 22 20, 13:01";
shapes = (
{
closed = 1;
nodes = (
(125,393,ls),
(56,393,o),
(20,357,o),
(20,289,cs),
(20,172,l),
(73,172,l),
(73,289,l),
(73,330,o),
(83,340,o),
(125,340,cs),
(174,340,o),
(79,340,o),
(133,340,c),
(133,393,l)
);
},
{
closed = 1;
nodes = (
(133,53,l),
(125,53,ls),
(83,53,o),
(73,63,o),
(73,104,cs),
(73,221,l),
(20,221,l),
(20,104,ls),
(20,36,o),
(56,0,o),
(125,0,cs),
(133,0,l)
);
},
{
closed = 1;
nodes = (
(151,0,ls),
(220,0,o),
(256,36,o),
(256,104,cs),
(256,410,l),
(203,410,l),
(203,104,ls),
(203,63,o),
(193,53,o),
(151,53,cs),
(132,53,l),
(132,0,l)
);
},
{
closed = 1;
nodes = (
(24,551,l),
(151,551,ls),
(193,551,o),
(203,541,o),
(203,500,cs),
(203,194,l),
(256,194,l),
(256,500,ls),
(256,568,o),
(220,604,o),
(151,604,cs),
(24,604,l)
);
},
{
closed = 1;
nodes = (
(132,340,l),
(151,340,ls),
(193,340,o),
(203,330,o),
(203,289,cs),
(203,193,l),
(256,193,l),
(256,289,ls),
(256,357,o),
(220,393,o),
(151,393,cs),
(132,393,l)
);
},
{
closed = 1;
nodes = (
(310,494,l),
(310,547,l),
(140,517,l),
(140,464,l)
);
}
);
width = 600;
}
);
unicode = 240;
},
{
glyphname = e;
lastChange = "2021-03-02 21:25:22 +0000";
layers = (
{
anchors = (
{
name = bottom;
pos = (131,0);
},
{
name = ogonek;
pos = (235,10);
},
{
name = top;
pos = (131,500);
}
);
layerId = "A98666DC-4638-42B6-8332-BBF4982DF0EF";
shapes = (
{
closed = 1;
nodes = (
(241,148,l),
(188,148,l),
(188,100,ls),
(188,59,o),
(178,49,o),
(136,49,cs),
(130,49,l),
(130,-4,l),
(136,-4,ls),
(205,-4,o),
(241,32,o),
(241,100,cs)
);
},
{
closed = 1;
nodes = (
(20,32,o),
(56,-4,o),
(125,-4,cs),
(130,-4,l),
(130,49,l),
(125,49,ls),
(83,49,o),
(73,59,o),
(73,100,cs),
(73,234,l),
(20,234,l),
(20,100,ls)
);
},
{
closed = 1;
nodes = (
(241,468,o),
(205,504,o),
(136,504,cs),
(130,504,l),
(130,451,l),
(136,451,ls),
(178,451,o),
(188,441,o),
(188,400,cs),
(188,234,l),
(241,234,l),
(241,400,ls)
);
},
{
closed = 1;
nodes = (
(20,261,l),
(20,208,l),
(241,208,l),
(241,261,l)
);
},
{
closed = 1;
nodes = (
(20,234,l),
(73,234,l),
(73,400,ls),
(73,441,o),
(83,451,o),
(125,451,cs),
(130,451,l),
(130,504,l),
(125,504,ls),
(56,504,o),
(20,468,o),
(20,400,cs)
);
}
);
width = 261;
},
{
anchors = (
{
name = bottom;
pos = (186,0);
},
{
name = ogonek;
pos = (335,10);
},
{
name = top;
pos = (186,500);
}
);
layerId = "E6A807D2-02F5-45B7-9AC8-B5230FFEC057";
shapes = (
{
closed = 1;
nodes = (
(352,163,l),
(216,163,l),
(216,130,ls),
(216,126,o),
(215,125,o),
(211,125,cs),
(170,125,l),
(170,-8,l),
(208,-8,ls),
(311,-8,o),
(352,33,o),
(352,135,cs)
);
},
{
closed = 1;
nodes = (
(20,32,o),
(61,-8,o),
(164,-8,cs),
(202,-8,l),
(202,125,l),
(161,125,ls),
(157,125,o),
(156,126,o),
(156,130,cs),
(156,254,l),
(20,254,l),
(20,135,ls)
);
},
{
closed = 1;
nodes = (
(352,459,o),
(311,500,o),
(208,500,cs),
(170,500,l),
(170,367,l),
(211,367,ls),
(215,367,o),
(216,366,o),
(216,362,cs),
(216,207,l),
(352,207,l),
(352,357,ls)
);
},
{
closed = 1;
nodes = (
(20,297,l),
(20,184,l),
(352,184,l),
(352,297,l)
);
},
{
closed = 1;
nodes = (
(20,254,l),
(156,254,l),
(156,362,ls),
(156,366,o),
(157,367,o),
(161,367,cs),
(202,367,l),
(202,500,l),
(164,500,ls),
(61,500,o),
(20,459,o),
(20,357,cs)
);
}
);
width = 372;
},
{
anchors = (
{
name = bottom;
pos = (145,0);
},
{
name = ogonek;
pos = (261,10);
},
{
name = top;
pos = (145,500);
}
);
layerId = "83682BA5-5A7B-4081-8B26-D550B6F33EEB";
shapes = (
{
closed = 1;
nodes = (
(270,148,l),
(175,148,l),
(175,93,ls),
(175,90,o),
(174,89,o),
(170,89,cs),
(138,89,l),
(138,-4,l),
(176,-4,ls),
(232,-4,o),
(270,33,o),
(270,89,cs)
);
},
{
closed = 1;
nodes = (
(20,33,o),
(58,-4,o),
(114,-4,cs),
(152,-4,l),
(152,89,l),
(120,89,ls),
(116,89,o),
(115,90,o),
(115,94,cs),
(115,245,l),
(20,245,l),
(20,89,ls)
);
},
{
closed = 1;
nodes = (
(270,467,o),
(232,504,o),
(176,504,cs),
(138,504,l),
(138,411,l),
(170,411,ls),
(174,411,o),
(175,410,o),
(175,406,cs),
(175,288,l),
(270,288,l),
(270,411,ls)
);
},
{
closed = 1;
nodes = (
(20,288,l),
(20,195,l),
(270,195,l),
(270,288,l)
);
},
{
closed = 1;
nodes = (
(20,195,l),
(115,195,l),
(115,406,ls),
(115,410,o),
(116,411,o),
(120,411,cs),
(152,411,l),
(152,504,l),
(114,504,ls),
(58,504,o),
(20,467,o),
(20,411,cs)
);
}
);
width = 290;
}
);
unicode = 101;
},
{
glyphname = f;
lastChange = "2021-03-02 21:22:51 +0000";
layers = (
{
layerId = "A98666DC-4638-42B6-8332-BBF4982DF0EF";
shapes = (
{
closed = 1;
nodes = (
(100,700,ls),
(68,700,o),
(47,679,o),
(47,647,cs),
(47,541,l),
(47,0,l),
(100,0,l),
(100,647,l),
(149,647,l),
(149,700,l)
);
},
{
closed = 1;
nodes = (
(5,447,l),
(141,447,l),
(149,500,l),
(13,500,l)
);
}
);
width = 154;
},
{
layerId = "E6A807D2-02F5-45B7-9AC8-B5230FFEC057";
shapes = (
{
closed = 1;
nodes = (
(145,700,ls),
(89,700,o),
(51,663,o),
(51,607,cs),
(51,0,l),
(187,0,l),
(187,649,l),
(102,567,l),
(243,567,l),
(243,700,l)
);
},
{
closed = 1;
nodes = (
(223,377,l),
(233,500,l),
(20,500,l),
(10,377,l)
);
}
);
width = 253;
},
{
layerId = "83682BA5-5A7B-4081-8B26-D550B6F33EEB";
shapes = (
{
closed = 1;
nodes = (
(136,700,ls),
(80,700,o),
(42,663,o),
(42,607,cs),
(42,0,l),
(137,0,l),
(137,649,l),
(93,607,l),
(194,607,l),
(194,700,l)
);
},
{
closed = 1;
nodes = (
(0,407,l),
(176,407,l),
(186,500,l),
(10,500,l)
);
}
);
width = 199;
}
);
unicode = 102;
},
{
glyphname = g;
lastChange = "2021-03-02 21:17:13 +0000";
layers = (
{
layerId = "A98666DC-4638-42B6-8332-BBF4982DF0EF";
shapes = (
{
closed = 1;
nodes = (
(173,-14,l),
(226,-14,l),
(226,500,l),
(173,500,l)
);
},
{
closed = 1;
nodes = (
(73,202,l),
(73,417,ls),
(73,441,o),
(79,447,o),
(103,447,cs),
(216,447,l),
(216,448,ls),
(216,463,o),
(174,500,o),
(124,500,cs),
(122,500,ls),
(57,500,o),
(20,468,o),
(20,407,cs),
(20,202,l)
);
},
{
closed = 1;
nodes = (
(150,0,l),
(198,53,l),
(103,53,ls),
(79,53,o),
(73,59,o),
(73,83,cs),
(73,258,l),
(20,258,l),
(20,93,ls),
(20,39,o),
(60,0,o),
(121,0,cs)
);
},
{
closed = 1;
nodes = (
(226,22,l),
(173,22,l),
(173,-26,ls),
(173,-67,o),
(163,-77,o),
(121,-77,cs),
(115,-77,l),
(115,-130,l),
(121,-130,ls),
(190,-130,o),
(226,-94,o),
(226,-26,cs)
);
},
{
closed = 1;
nodes = (
(20,-23,l),
(20,-26,ls),
(20,-94,o),
(56,-130,o),
(125,-130,cs),
(130,-130,l),
(130,-77,l),
(125,-77,ls),
(83,-77,o),
(73,-67,o),
(73,-26,cs),
(73,-23,l)
);
}
);
width = 246;
},
{
layerId = "E6A807D2-02F5-45B7-9AC8-B5230FFEC057";
shapes = (
{
closed = 1;
nodes = (
(352,0,l),
(352,500,l),
(216,500,l),
(216,0,l)
);
},
{
closed = 1;
nodes = (
(156,249,l),
(156,362,ls),
(156,366,o),
(157,367,o),
(161,367,cs),
(276,367,l),
(276,391,ls),
(276,456,o),
(233,500,o),
(169,500,cs),
(160,500,ls),
(60,500,o),
(20,459,o),
(20,357,cs),
(20,249,l)
);
},
{
closed = 1;
nodes = (
(190,0,l),
(280,133,l),
(161,133,ls),
(157,133,o),
(156,134,o),
(156,138,cs),
(156,251,l),
(20,251,l),
(20,143,ls),
(20,41,o),
(61,0,o),
(164,0,cs)
);
},
{
closed = 1;
nodes = (
(352,19,l),
(216,19,l),
(216,-34,ls),
(216,-38,o),
(215,-39,o),
(211,-39,cs),
(170,-39,l),
(170,-152,l),
(208,-152,ls),
(311,-152,o),
(352,-111,o),
(352,-9,cs)
);
},
{
closed = 1;
nodes = (
(20,-13,l),
(20,-14,ls),
(20,-108,o),
(65,-152,o),
(164,-152,cs),
(202,-152,l),
(202,-39,l),
(161,-39,ls),
(157,-39,o),
(156,-38,o),
(156,-34,cs),
(156,-13,l)
);
}
);
width = 372;
},
{
layerId = "83682BA5-5A7B-4081-8B26-D550B6F33EEB";
shapes = (
{
closed = 1;
nodes = (
(258,-27,l),
(258,500,l),
(163,500,l),
(163,-27,l)
);
},
{
closed = 1;
nodes = (
(105,202,l),
(105,402,ls),
(105,406,o),
(106,407,o),
(110,407,cs),
(204,407,l),
(204,408,ls),
(204,461,o),
(168,500,o),
(115,500,cs),
(111,500,ls),
(50,500,o),
(10,461,o),
(10,407,cs),
(10,202,l)
);
},
{
closed = 1;
nodes = (
(138,0,l),
(198,93,l),
(110,93,ls),
(106,93,o),
(105,94,o),
(105,98,cs),
(105,258,l),
(10,258,l),
(10,93,ls),
(10,39,o),
(50,0,o),
(111,0,cs)
);
},
{
closed = 1;
nodes = (
(258,21,l),
(163,21,l),
(163,-42,ls),
(163,-46,o),
(162,-47,o),
(158,-47,cs),
(106,-47,l),
(106,-133,l),
(164,-133,ls),
(220,-133,o),
(258,-96,o),
(258,-40,cs)
);
},
{
closed = 1;
nodes = (
(10,-20,l),
(10,-40,ls),
(10,-96,o),
(48,-133,o),
(104,-133,cs),
(152,-133,l),
(152,-47,l),
(110,-47,ls),
(106,-47,o),
(105,-46,o),
(105,-42,cs),
(105,-20,l)
);
}
);
width = 268;
}
);
unicode = 103;
},
{
glyphname = h;
lastChange = "2021-03-02 21:20:55 +0000";
layers = (
{
layerId = "A98666DC-4638-42B6-8332-BBF4982DF0EF";
shapes = (
{
closed = 1;
nodes = (
(86,0,l),
(86,700,l),
(33,700,l),
(33,0,l)
);
},
{
closed = 1;
nodes = (
(23,700,l),
(15,647,l),
(86,647,l),
(86,700,l)
);
},
{
closed = 1;
nodes = (
(249,0,l),
(257,53,l),
(184,53,l),
(184,0,l)
);
},
{
closed = 1;
nodes = (
(154,447,ls),
(178,447,o),
(184,441,o),
(184,417,cs),
(184,0,l),
(237,0,l),
(237,407,ls),
(237,461,o),
(197,500,o),
(136,500,cs),
(107,500,l),
(59,447,l)
);
}
);
width = 272;
},
{
layerId = "E6A807D2-02F5-45B7-9AC8-B5230FFEC057";
shapes = (
{
closed = 1;
nodes = (
(166,0,l),
(166,700,l),
(30,700,l),
(30,0,l)
);
},
{
closed = 1;
nodes = (
(20,700,l),
(10,567,l),
(166,567,l),
(166,700,l)
);
},
{
closed = 1;
nodes = (
(372,0,l),
(382,133,l),
(226,133,l),
(226,0,l)
);
},
{
closed = 1;
nodes = (
(221,367,ls),
(225,367,o),
(226,366,o),
(226,362,cs),
(226,0,l),
(362,0,l),
(362,357,ls),
(362,459,o),
(321,500,o),
(218,500,cs),
(202,500,l),
(112,367,l)
);
}
);
width = 392;
},
{
layerId = "83682BA5-5A7B-4081-8B26-D550B6F33EEB";
shapes = (
{
closed = 1;
nodes = (
(129,0,l),
(129,700,l),
(34,700,l),
(34,0,l)
);
},
{
closed = 1;
nodes = (
(20,700,l),
(10,607,l),
(129,607,l),
(129,700,l)
);
},
{
closed = 1;
nodes = (
(296,0,l),
(306,93,l),
(187,93,l),
(187,0,l)
);
},
{
closed = 1;
nodes = (
(182,407,ls),
(186,407,o),
(187,406,o),
(187,402,cs),
(187,0,l),
(282,0,l),
(282,407,ls),
(282,461,o),
(242,500,o),
(181,500,cs),
(154,500,l),
(94,407,l)
);
}
);
width = 316;
}
);
unicode = 104;
},
{
glyphname = i;
kernLeft = i;
kernRight = i;
lastChange = "2021-03-02 20:48:27 +0000";
layers = (
{
layerId = "A98666DC-4638-42B6-8332-BBF4982DF0EF";
shapes = (
{
closed = 1;
nodes = (
(82,0,l),
(82,500,l),
(29,500,l),
(29,0,l)
);
},
{
closed = 1;
nodes = (
(23,500,l),
(15,447,l),
(82,447,l),
(82,500,l)
);
},
{
closed = 1;
nodes = (
(23,537,l),
(82,537,l),
(74,590,l),
(23,590,l)
);
}
);
width = 102;
},
{
layerId = "E6A807D2-02F5-45B7-9AC8-B5230FFEC057";
shapes = (
{
closed = 1;
nodes = (
(172,0,l),
(172,500,l),
(36,500,l),
(36,0,l)
);
},
{
closed = 1;
nodes = (
(172,367,l),
(172,500,l),
(30,500,l),
(20,367,l)
);
},
{
closed = 1;
nodes = (
(172,540,l),
(172,673,l),
(46,673,l),
(36,540,l)
);
}
);
width = 192;
},
{
layerId = "83682BA5-5A7B-4081-8B26-D550B6F33EEB";
shapes = (
{
closed = 1;
nodes = (
(25,0,l),
(120,0,l),
(120,500,l),
(25,500,l)
);
},
{
closed = 1;
nodes = (
(25,633,l),
(25,540,l),
(120,540,l),
(110,633,l)
);
},
{
closed = 1;
nodes = (
(20,500,l),
(10,407,l),
(120,407,l),
(120,500,l)
);
}
);
width = 140;
}
);
unicode = 105;
},
{
glyphname = idotless;
kernLeft = i;
kernRight = i;
lastChange = "2021-02-19 21:52:30 +0000";
layers = (
{
layerId = "A98666DC-4638-42B6-8332-BBF4982DF0EF";
shapes = (
{
closed = 1;
nodes = (
(87,0,l),
(87,500,l),
(34,500,l),
(34,0,l)
);
},
{
closed = 1;
nodes = (
(28,500,l),
(20,447,l),
(87,447,l),
(87,500,l)
);
}
);
width = 107;
},
{
layerId = "83682BA5-5A7B-4081-8B26-D550B6F33EEB";
shapes = (
{
closed = 1;
nodes = (
(35,0,l),
(130,0,l),
(130,500,l),
(35,500,l)
);
},
{
closed = 1;
nodes = (
(30,500,l),
(20,407,l),
(130,407,l),
(130,500,l)
);
}
);
width = 150;
},
{
layerId = "E6A807D2-02F5-45B7-9AC8-B5230FFEC057";
shapes = (
{
closed = 1;
nodes = (
(172,0,l),
(172,500,l),
(36,500,l),
(36,0,l)
);
},
{
closed = 1;
nodes = (
(172,367,l),
(172,500,l),
(30,500,l),
(20,367,l)
);
}
);
width = 192;
}
);
unicode = 305;
},
{
glyphname = j;
lastChange = "2021-03-02 20:50:25 +0000";
layers = (
{
layerId = "A98666DC-4638-42B6-8332-BBF4982DF0EF";
shapes = (
{
closed = 1;
nodes = (
(52,-94,ls),
(84,-94,o),
(105,-73,o),
(105,-41,cs),
(105,447,l),
(52,447,l),
(52,-43,l),
(54,-41,l),
(0,-41,l),
(0,-94,l)
);
},
{
closed = 1;
nodes = (
(105,447,l),
(105,500,l),
(46,500,l),
(38,447,l)
);
},
{
closed = 1;
nodes = (
(105,537,l),
(97,590,l),
(46,590,l),
(46,537,l)
);
}
);
width = 125;
},
{
layerId = "E6A807D2-02F5-45B7-9AC8-B5230FFEC057";
shapes = (
{
closed = 1;
nodes = (
(78,-152,ls),
(134,-152,o),
(172,-115,o),
(172,-59,cs),
(172,500,l),
(36,500,l),
(36,-102,l),
(121,-20,l),
(-20,-20,l),
(-20,-152,l)
);
},
{
closed = 1;
nodes = (
(172,367,l),
(172,500,l),
(29,500,l),
(19,367,l)
);
},
{
closed = 1;
nodes = (
(172,540,l),
(162,673,l),
(36,673,l),
(36,540,l)
);
}
);
width = 192;
},
{
layerId = "83682BA5-5A7B-4081-8B26-D550B6F33EEB";
shapes = (
{
closed = 1;
nodes = (
(28,-133,ls),
(84,-133,o),
(122,-96,o),
(122,-40,cs),
(122,500,l),
(27,500,l),
(27,-82,l),
(71,-40,l),
(-40,-40,l),
(-40,-133,l)
);
},
{
closed = 1;
nodes = (
(122,407,l),
(122,500,l),
(22,500,l),
(12,407,l)
);
},
{
closed = 1;
nodes = (
(122,540,l),
(112,633,l),
(27,633,l),
(27,540,l)
);
}
);
width = 142;
}
);
unicode = 106;
},
{
glyphname = k;
lastChange = "2021-03-02 21:24:54 +0000";
layers = (
{
layerId = "A98666DC-4638-42B6-8332-BBF4982DF0EF";
shapes = (
{
closed = 1;
nodes = (
(86,0,l),
(86,700,l),
(33,700,l),
(33,0,l)
);
},
{
closed = 1;
nodes = (
(23,700,l),
(15,647,l),
(86,647,l),
(86,700,l)
);
},
{
closed = 1;
nodes = (
(61,312,l),
(188,0,l),
(241,0,l),
(114,312,l)
);
},
{
closed = 1;
nodes = (
(231,500,l),
(178,500,l),
(61,262,l),
(114,262,l)
);
}
);
width = 256;
},
{
layerId = "83682BA5-5A7B-4081-8B26-D550B6F33EEB";
shapes = (
{
closed = 1;
nodes = (
(129,0,l),
(129,700,l),
(34,700,l),
(34,0,l)
);
},
{
closed = 1;
nodes = (
(92,312,l),
(219,0,l),
(312,0,l),
(185,312,l)
);
},
{
closed = 1;
nodes = (
(302,500,l),
(209,500,l),
(92,262,l),
(185,262,l)
);
},
{
closed = 1;
nodes = (
(20,700,l),
(10,607,l),
(129,607,l),
(129,700,l)
);
}
);
width = 312;
},
{
layerId = "E6A807D2-02F5-45B7-9AC8-B5230FFEC057";
shapes = (
{
closed = 1;
nodes = (
(162,0,l),
(162,700,l),
(26,700,l),
(26,0,l)
);
},
{
closed = 1;
nodes = (
(367,0,l),
(240,312,l),
(107,312,l),
(234,0,l)
);
},
{
closed = 1;
nodes = (
(240,262,l),
(357,500,l),
(224,500,l),
(107,262,l)
);
},
{
closed = 1;
nodes = (
(162,567,l),
(162,700,l),
(20,700,l),
(10,567,l)
);
}
);
width = 367;
}
);
unicode = 107;
},
{
glyphname = l;
lastChange = "2021-03-02 20:52:58 +0000";
layers = (
{
layerId = "A98666DC-4638-42B6-8332-BBF4982DF0EF";
shapes = (
{
closed = 1;
nodes = (
(81,0,l),
(81,700,l),
(28,700,l),
(28,0,l)
);
},
{
closed = 1;
nodes = (
(18,700,l),
(10,647,l),
(81,647,l),
(81,700,l)
);
},
{
closed = 1;
nodes = (
(108,0,l),
(116,53,l),
(28,53,l),
(28,0,l)
);
}
);
width = 126;
},
{
layerId = "E6A807D2-02F5-45B7-9AC8-B5230FFEC057";
shapes = (
{
closed = 1;
nodes = (
(172,0,l),
(172,700,l),
(36,700,l),
(36,0,l)
);
},
{
closed = 1;
nodes = (
(202,0,l),
(192,133,l),
(36,133,l),
(36,0,l)
);
},
{
closed = 1;
nodes = (
(172,567,l),
(172,700,l),
(30,700,l),
(20,567,l)
);
}
);
width = 212;
},
{
layerId = "83682BA5-5A7B-4081-8B26-D550B6F33EEB";
shapes = (
{
closed = 1;
nodes = (
(31,0,l),
(126,0,l),
(125,700,l),
(30,700,l)
);
},
{
closed = 1;
nodes = (
(20,700,l),
(10,607,l),
(125,607,l),
(125,700,l)
);
},
{
closed = 1;
nodes = (
(31,0,l),
(161,0,l),
(151,93,l),
(31,93,l)
);
}
);
width = 171;
}
);
unicode = 108;
},
{
glyphname = m;
lastChange = "2021-03-02 20:54:43 +0000";
layers = (
{
anchors = (
{
name = bottom;
pos = (212,0);
},
{
name = top;
pos = (212,500);
}
);
layerId = "A98666DC-4638-42B6-8332-BBF4982DF0EF";
shapes = (
{
closed = 1;
nodes = (
(33,500,l),
(33,0,l),
(86,0,l),
(86,500,l)
);
},
{
closed = 1;
nodes = (
(23,500,l),
(15,447,l),
(86,447,l),
(86,500,l)
);
},
{
closed = 1;
nodes = (
(397,0,l),
(407,53,l),
(334,53,l),
(334,0,l)
);
},
{
closed = 1;
nodes = (
(237,407,ls),
(237,461,o),
(197,500,o),
(136,500,cs),
(107,500,l),
(59,447,l),
(154,447,ls),
(178,447,o),
(184,441,o),
(184,417,cs),
(184,0,l),
(237,0,l)
);
},
{
closed = 1;
nodes = (
(387,407,ls),
(387,461,o),
(347,500,o),
(286,500,cs),
(247,500,l),
(199,447,l),
(304,447,ls),
(328,447,o),
(334,441,o),
(334,417,cs),
(334,0,l),
(387,0,l)
);
}
);
width = 422;
},
{
anchors = (
{
name = bottom;
pos = (294,0);
},
{
name = top;
pos = (294,500);
}
);
layerId = "E6A807D2-02F5-45B7-9AC8-B5230FFEC057";
shapes = (
{
closed = 1;
nodes = (
(166,0,l),
(166,500,l),
(30,500,l),
(30,0,l)
);
},
{
closed = 1;
nodes = (
(166,367,l),
(166,500,l),
(20,500,l),
(10,367,l)
);
},
{
closed = 1;
nodes = (
(568,0,l),
(578,133,l),
(422,133,l),
(431,0,l)
);
},
{
closed = 1;
nodes = (
(221,367,ls),
(225,367,o),
(226,366,o),
(226,362,cs),
(226,0,l),
(362,0,l),
(362,357,ls),
(362,459,o),
(321,500,o),
(218,500,cs),
(202,500,l),
(112,367,l)
);
},
{
closed = 1;
nodes = (
(417,367,ls),
(421,367,o),
(422,366,o),
(422,362,cs),
(422,0,l),
(558,0,l),
(558,357,ls),
(558,459,o),
(517,500,o),
(414,500,cs),
(393,500,l),
(303,367,l)
);
}
);
width = 588;
},
{
anchors = (
{
name = bottom;
pos = (235,0);
},
{
name = top;
pos = (235,500);
}
);
layerId = "83682BA5-5A7B-4081-8B26-D550B6F33EEB";
shapes = (
{
closed = 1;
nodes = (
(34,500,l),
(34,0,l),
(129,0,l),
(129,500,l)
);
},
{
closed = 1;
nodes = (
(20,500,l),
(10,407,l),
(129,407,l),
(129,500,l)
);
},
{
closed = 1;
nodes = (
(449,0,l),
(459,93,l),
(340,93,l),
(340,0,l)
);
},
{
closed = 1;
nodes = (
(282,407,ls),
(282,461,o),
(242,500,o),
(181,500,cs),
(154,500,l),
(94,407,l),
(182,407,ls),
(186,407,o),
(187,406,o),
(187,402,cs),
(187,0,l),
(282,0,l)
);
},
{
closed = 1;
nodes = (
(435,407,ls),
(435,461,o),
(395,500,o),
(334,500,cs),
(307,500,l),
(247,407,l),
(335,407,ls),
(339,407,o),
(340,406,o),
(340,402,cs),
(340,0,l),
(435,0,l)
);
}
);
width = 469;
}
);
unicode = 109;
},
{
glyphname = n;
lastChange = "2021-03-02 21:21:04 +0000";
layers = (
{
anchors = (
{
name = bottom;
pos = (135,0);
},
{
name = top;
pos = (135,500);
}
);
layerId = "A98666DC-4638-42B6-8332-BBF4982DF0EF";
shapes = (
{
closed = 1;
nodes = (
(86,0,l),
(86,500,l),
(33,500,l),
(33,0,l)
);
},
{
closed = 1;
nodes = (
(86,447,l),
(86,500,l),
(23,500,l),
(15,447,l)
);
},
{
closed = 1;
nodes = (
(237,407,ls),
(237,461,o),
(197,500,o),
(136,500,cs),
(107,500,l),
(59,447,l),
(154,447,ls),
(178,447,o),
(184,441,o),
(184,417,cs),
(184,0,l),
(237,0,l)
);
},
{
closed = 1;
nodes = (
(247,0,l),
(255,53,l),
(184,53,l),
(184,0,l)
);
}
);
width = 270;
},
{
anchors = (
{
name = bottom;
pos = (201,0);
},
{
name = top;
pos = (201,500);
}
);
layerId = "E6A807D2-02F5-45B7-9AC8-B5230FFEC057";
shapes = (
{
closed = 1;
nodes = (
(166,0,l),
(166,500,l),
(30,500,l),
(30,0,l)
);
},
{
closed = 1;
nodes = (
(166,367,l),
(166,500,l),
(20,500,l),
(10,367,l)
);
},
{
closed = 1;
nodes = (
(221,367,ls),
(225,367,o),
(226,366,o),
(226,362,cs),
(226,0,l),
(362,0,l),
(362,357,ls),
(362,459,o),
(321,500,o),
(218,500,cs),
(202,500,l),
(112,367,l)
);
},
{
closed = 1;
nodes = (
(372,0,l),
(382,133,l),
(226,133,l),
(226,0,l)
);
}
);
width = 402;
},
{
anchors = (
{
name = bottom;
pos = (159,0);
},
{
name = top;
pos = (159,500);
}
);
layerId = "83682BA5-5A7B-4081-8B26-D550B6F33EEB";
shapes = (
{
closed = 1;
nodes = (
(129,0,l),
(129,500,l),
(34,500,l),
(34,0,l)
);
},
{
closed = 1;
nodes = (
(129,407,l),
(129,500,l),
(20,500,l),
(10,407,l)
);
},
{
closed = 1;
nodes = (
(282,407,ls),
(282,461,o),
(242,500,o),
(181,500,cs),
(154,500,l),
(94,407,l),
(182,407,ls),
(186,407,o),
(187,406,o),
(187,402,cs),
(187,0,l),
(282,0,l)
);
},
{
closed = 1;
nodes = (
(297,0,l),
(307,93,l),
(187,93,l),
(187,0,l)
);
}
);
width = 317;
}
);
unicode = 110;
},
{
glyphname = o;
kernLeft = ou;
kernRight = ou;
lastChange = "2021-03-02 21:17:57 +0000";
layers = (
{
anchors = (
{
name = bottom;
pos = (137,-4);
},
{
name = center;
pos = (137,250);
},
{
name = ogonek;
pos = (244,-4);
},
{
name = top;
pos = (137,504);
},
{
name = topright;
pos = (251,504);
}
);
layerId = "A98666DC-4638-42B6-8332-BBF4982DF0EF";
shapes = (
{
closed = 1;
nodes = (
(248,248,l),
(195,248,l),
(195,100,ls),
(195,59,o),
(185,49,o),
(143,49,cs),
(134,49,l),
(134,-4,l),
(143,-4,ls),
(212,-4,o),
(248,32,o),
(248,100,cs)
);
},
{
closed = 1;
nodes = (
(20,32,o),
(56,-4,o),
(125,-4,cs),
(134,-4,l),
(134,49,l),
(125,49,ls),
(83,49,o),
(73,59,o),
(73,100,cs),
(73,248,l),
(20,248,l),
(20,100,ls)
);
},
{
closed = 1;
nodes = (
(248,468,o),
(212,504,o),
(143,504,cs),
(134,504,l),
(134,451,l),
(143,451,ls),
(185,451,o),
(195,441,o),
(195,400,cs),
(195,248,l),
(248,248,l),
(248,400,ls)
);
},
{
closed = 1;
nodes = (
(20,248,l),
(73,248,l),
(73,400,ls),
(73,441,o),
(83,451,o),
(125,451,cs),
(134,451,l),
(134,504,l),
(125,504,ls),
(56,504,o),
(20,468,o),
(20,400,cs)
);
}
);
width = 268;
},
{
anchors = (
{
name = bottom;
pos = (150,-4);
},
{
name = center;
pos = (150,250);
},
{
name = ogonek;
pos = (269,-4);
},
{
name = top;
pos = (150,504);
},
{
name = topright;
pos = (280,504);
}
);
layerId = "83682BA5-5A7B-4081-8B26-D550B6F33EEB";
shapes = (
{
closed = 1;
nodes = (
(280,242,l),
(185,242,l),
(185,93,ls),
(185,90,o),
(184,89,o),
(180,89,cs),
(148,89,l),
(148,-4,l),
(186,-4,ls),
(242,-4,o),
(280,33,o),
(280,89,cs)
);
},
{
closed = 1;
nodes = (
(20,33,o),
(58,-4,o),
(114,-4,cs),
(152,-4,l),
(152,89,l),
(120,89,ls),
(116,89,o),
(115,90,o),
(115,94,cs),
(115,242,l),
(20,242,l),
(20,89,ls)
);
},
{
closed = 1;
nodes = (
(280,467,o),
(242,504,o),
(186,504,cs),
(148,504,l),
(148,411,l),
(180,411,ls),
(184,411,o),
(185,410,o),
(185,406,cs),
(185,242,l),
(280,242,l),
(280,411,ls)
);
},
{
closed = 1;
nodes = (
(20,242,l),
(115,242,l),
(115,406,ls),
(115,410,o),
(116,411,o),
(120,411,cs),
(152,411,l),
(152,504,l),
(114,504,ls),
(58,504,o),
(20,467,o),
(20,411,cs)
);
}
);
width = 300;
},
{
anchors = (
{
name = bottom;
pos = (186,-8);
},
{
name = center;
pos = (186,250);
},
{
name = ogonek;
pos = (335,-8);
},
{
name = top;
pos = (186,500);
},
{
name = topright;
pos = (354,500);
}
);
layerId = "E6A807D2-02F5-45B7-9AC8-B5230FFEC057";
shapes = (
{
closed = 1;
nodes = (
(352,249,l),
(216,249,l),
(216,130,ls),
(216,126,o),
(215,125,o),
(211,125,cs),
(170,125,l),
(170,-8,l),
(208,-8,ls),
(311,-8,o),
(352,33,o),
(352,135,cs)
);
},
{
closed = 1;
nodes = (
(20,32,o),
(61,-8,o),
(164,-8,cs),
(202,-8,l),
(202,125,l),
(161,125,ls),
(157,125,o),
(156,126,o),
(156,130,cs),
(156,249,l),
(20,249,l),
(20,135,ls)
);
},
{
closed = 1;
nodes = (
(352,459,o),
(311,500,o),
(208,500,cs),
(170,500,l),
(170,367,l),
(211,367,ls),
(215,367,o),
(216,366,o),
(216,362,cs),
(216,249,l),
(352,249,l),
(352,357,ls)
);
},
{
closed = 1;
nodes = (
(20,249,l),
(156,249,l),
(156,362,ls),
(156,366,o),
(157,367,o),
(161,367,cs),
(202,367,l),
(202,500,l),
(164,500,ls),
(61,500,o),
(20,459,o),
(20,357,cs)
);
}
);
width = 372;
}
);
unicode = 111;
},
{
glyphname = oe;
kernLeft = ou;
lastChange = "2021-02-20 16:21:56 +0000";
layers = (
{
layerId = "A98666DC-4638-42B6-8332-BBF4982DF0EF";
shapes = (
{
closed = 1;
nodes = (
(248,248,l),
(195,248,l),
(195,100,ls),
(195,59,o),
(185,49,o),
(143,49,cs),
(134,49,l),
(134,-4,l),
(143,-4,ls),
(212,-4,o),
(248,32,o),
(248,100,cs)
);
},
{
closed = 1;
nodes = (
(20,32,o),
(56,-4,o),
(125,-4,cs),
(134,-4,l),
(134,49,l),
(125,49,ls),
(83,49,o),
(73,59,o),
(73,100,cs),
(73,248,l),
(20,248,l),
(20,100,ls)
);
},
{
closed = 1;
nodes = (
(248,468,o),
(212,504,o),
(143,504,cs),
(134,504,l),
(134,451,l),
(143,451,ls),
(185,451,o),
(195,441,o),
(195,400,cs),
(195,248,l),
(248,248,l),
(248,400,ls)
);
},
{
closed = 1;
nodes = (
(20,248,l),
(73,248,l),
(73,400,ls),
(73,441,o),
(83,451,o),
(125,451,cs),
(134,451,l),
(134,504,l),
(125,504,ls),
(56,504,o),
(20,468,o),
(20,400,cs)
);
},
{
closed = 1;
nodes = (
(416,148,l),
(363,148,l),
(363,100,ls),
(363,59,o),
(353,49,o),
(311,49,cs),
(305,49,l),
(305,-4,l),
(311,-4,ls),
(380,-4,o),
(416,32,o),
(416,100,cs)
);
},
{
closed = 1;
nodes = (
(195,32,o),
(231,-4,o),
(300,-4,cs),
(305,-4,l),
(305,49,l),
(300,49,ls),
(258,49,o),
(248,59,o),
(248,100,cs),
(248,234,l),
(195,234,l),
(195,100,ls)
);
},
{
closed = 1;
nodes = (
(416,468,o),
(380,504,o),
(311,504,cs),
(305,504,l),
(305,451,l),
(311,451,ls),
(353,451,o),
(363,441,o),
(363,400,cs),
(363,234,l),
(416,234,l),
(416,400,ls)
);
},
{
closed = 1;
nodes = (
(195,261,l),
(195,208,l),
(416,208,l),
(416,261,l)
);
},
{
closed = 1;
nodes = (
(195,234,l),
(248,234,l),
(248,400,ls),
(248,441,o),
(258,451,o),
(300,451,cs),
(305,451,l),
(305,504,l),
(300,504,ls),
(231,504,o),
(195,468,o),
(195,400,cs)
);
}
);
width = 436;
},
{
layerId = "83682BA5-5A7B-4081-8B26-D550B6F33EEB";
shapes = (
{
closed = 1;
nodes = (
(280,242,l),
(185,242,l),
(185,93,ls),
(185,90,o),
(184,89,o),
(180,89,cs),
(148,89,l),
(148,-4,l),
(186,-4,ls),
(242,-4,o),
(280,33,o),
(280,89,cs)
);
},
{
closed = 1;
nodes = (
(20,33,o),
(58,-4,o),
(114,-4,cs),
(152,-4,l),
(152,89,l),
(120,89,ls),
(116,89,o),
(115,90,o),
(115,94,cs),
(115,242,l),
(20,242,l),
(20,89,ls)
);
},
{
closed = 1;
nodes = (
(280,467,o),
(242,504,o),
(186,504,cs),
(148,504,l),
(148,411,l),
(180,411,ls),
(184,411,o),
(185,410,o),
(185,406,cs),
(185,242,l),
(280,242,l),
(280,411,ls)
);
},
{
closed = 1;
nodes = (
(20,242,l),
(115,242,l),
(115,406,ls),
(115,410,o),
(116,411,o),
(120,411,cs),
(152,411,l),
(152,504,l),
(114,504,ls),
(58,504,o),
(20,467,o),
(20,411,cs)
);
},
{
closed = 1;
nodes = (
(435,148,l),
(340,148,l),
(340,93,ls),
(340,90,o),
(339,89,o),
(335,89,cs),
(303,89,l),
(303,-4,l),
(341,-4,ls),
(397,-4,o),
(435,33,o),
(435,89,cs)
);
},
{
closed = 1;
nodes = (
(185,33,o),
(223,-4,o),
(279,-4,cs),
(317,-4,l),
(317,89,l),
(285,89,ls),
(281,89,o),
(280,90,o),
(280,94,cs),
(280,245,l),
(185,245,l),
(185,89,ls)
);
},
{
closed = 1;
nodes = (
(435,467,o),
(397,504,o),
(341,504,cs),
(303,504,l),
(303,411,l),
(335,411,ls),
(339,411,o),
(340,410,o),
(340,406,cs),
(340,288,l),
(435,288,l),
(435,411,ls)
);
},
{
closed = 1;
nodes = (
(185,288,l),
(185,195,l),
(435,195,l),
(435,288,l)
);
},
{
closed = 1;
nodes = (
(185,195,l),
(280,195,l),
(280,406,ls),
(280,410,o),
(281,411,o),
(285,411,cs),
(317,411,l),
(317,504,l),
(279,504,ls),
(223,504,o),
(185,467,o),
(185,411,cs)
);
}
);
width = 455;
},
{
layerId = "E6A807D2-02F5-45B7-9AC8-B5230FFEC057";
shapes = (
{
closed = 1;
nodes = (
(352,249,l),
(216,249,l),
(216,130,ls),
(216,126,o),
(215,125,o),
(211,125,cs),
(170,125,l),
(170,-8,l),
(208,-8,ls),
(311,-8,o),
(352,33,o),
(352,135,cs)
);
},
{
closed = 1;
nodes = (
(20,32,o),
(61,-8,o),
(164,-8,cs),
(202,-8,l),
(202,125,l),
(161,125,ls),
(157,125,o),
(156,126,o),
(156,130,cs),
(156,249,l),
(20,249,l),
(20,135,ls)
);
},
{
closed = 1;
nodes = (
(352,459,o),
(311,500,o),
(208,500,cs),
(170,500,l),
(170,367,l),
(211,367,ls),
(215,367,o),
(216,366,o),
(216,362,cs),
(216,249,l),
(352,249,l),
(352,357,ls)
);
},
{
closed = 1;
nodes = (
(20,249,l),
(156,249,l),
(156,362,ls),
(156,366,o),
(157,367,o),
(161,367,cs),
(202,367,l),
(202,500,l),
(164,500,ls),
(61,500,o),
(20,459,o),
(20,357,cs)
);
},
{
closed = 1;
nodes = (
(548,163,l),
(412,163,l),
(412,130,ls),
(412,126,o),
(411,125,o),
(407,125,cs),
(366,125,l),
(366,-8,l),
(404,-8,ls),
(507,-8,o),
(548,33,o),
(548,135,cs)
);
},
{
closed = 1;
nodes = (
(216,32,o),
(257,-8,o),
(360,-8,cs),
(398,-8,l),
(398,125,l),
(357,125,ls),
(353,125,o),
(352,126,o),
(352,130,cs),
(352,254,l),
(216,254,l),
(216,135,ls)
);
},
{
closed = 1;
nodes = (
(548,459,o),
(507,500,o),
(404,500,cs),
(366,500,l),
(366,367,l),
(407,367,ls),
(411,367,o),
(412,366,o),
(412,362,cs),
(412,207,l),
(548,207,l),
(548,357,ls)
);
},
{
closed = 1;
nodes = (
(216,297,l),
(216,184,l),
(548,184,l),
(548,297,l)
);
},
{
closed = 1;
nodes = (
(216,254,l),
(352,254,l),
(352,362,ls),
(352,366,o),
(353,367,o),
(357,367,cs),
(398,367,l),
(398,500,l),
(360,500,ls),
(257,500,o),
(216,459,o),
(216,357,cs)
);
}
);
width = 568;
},
{
associatedMasterId = "E6A807D2-02F5-45B7-9AC8-B5230FFEC057";
layerId = "449AA698-712D-4934-92CE-AC0F3F5E4249";
name = "20 Feb 21, 18:20";
shapes = (
{
closed = 1;
nodes = (
(398,-8,l),
(398,125,l),
(308,125,l),
(352,83,l),
(352,254,l),
(216,254,l),
(216,135,ls),
(216,33,o),
(257,-8,o),
(360,-8,cs)
);
},
{
closed = 1;
nodes = (
(202,-8,l),
(202,125,l),
(112,125,l),
(156,83,l),
(156,249,l),
(20,249,l),
(20,135,ls),
(20,33,o),
(61,-8,o),
(164,-8,cs)
);
},
{
closed = 1;
nodes = (
(208,-8,ls),
(311,-8,o),
(352,33,o),
(352,135,cs),
(352,249,l),
(216,249,l),
(216,83,l),
(260,125,l),
(170,125,l),
(170,-8,l)
);
},
{
closed = 1;
nodes = (
(156,249,l),
(156,409,l),
(112,367,l),
(202,367,l),
(202,500,l),
(164,500,ls),
(61,500,o),
(20,459,o),
(20,357,cs),
(20,249,l)
);
},
{
closed = 1;
nodes = (
(404,-8,ls),
(507,-8,o),
(548,33,o),
(548,135,cs),
(548,163,l),
(412,163,l),
(412,83,l),
(456,125,l),
(366,125,l),
(366,-8,l)
);
},
{
closed = 1;
nodes = (
(548,184,l),
(548,297,l),
(216,297,l),
(216,184,l)
);
},
{
closed = 1;
nodes = (
(352,249,l),
(352,357,ls),
(352,459,o),
(311,500,o),
(208,500,cs),
(170,500,l),
(170,367,l),
(260,367,l),
(216,409,l),
(216,249,l)
);
},
{
closed = 1;
nodes = (
(352,254,l),
(352,409,l),
(308,367,l),
(398,367,l),
(398,500,l),
(360,500,ls),
(257,500,o),
(216,459,o),
(216,357,cs),
(216,254,l)
);
},
{
closed = 1;
nodes = (
(548,357,ls),
(548,459,o),
(507,500,o),
(404,500,cs),
(366,500,l),
(366,367,l),
(456,367,l),
(412,409,l),
(412,279,l),
(548,264,l)
);
}
);
width = 568;
}
);
unicode = 339;
},
{
glyphname = p;
lastChange = "2021-03-02 21:18:04 +0000";
layers = (
{
layerId = "A98666DC-4638-42B6-8332-BBF4982DF0EF";
shapes = (
{
closed = 1;
nodes = (
(35,500,l),
(35,-133,l),
(88,-133,l),
(88,500,l)
);
},
{
closed = 1;
nodes = (
(25,500,l),
(15,447,l),
(88,447,l),
(88,500,l)
);
},
{
closed = 1;
nodes = (
(241,298,l),
(188,298,l),
(188,83,ls),
(188,59,o),
(182,53,o),
(158,53,cs),
(45,53,l),
(45,53,o),
(45,52,o),
(45,52,cs),
(45,38,o),
(87,0,o),
(137,0,cs),
(139,0,ls),
(193,0,o),
(241,23,o),
(241,93,cs)
);
},
{
closed = 1;
nodes = (
(158,447,ls),
(182,447,o),
(188,441,o),
(188,417,cs),
(188,242,l),
(241,242,l),
(241,407,ls),
(241,461,o),
(201,500,o),
(140,500,cs),
(111,500,l),
(63,447,l)
);
}
);
width = 261;
},
{
layerId = "83682BA5-5A7B-4081-8B26-D550B6F33EEB";
shapes = (
{
closed = 1;
nodes = (
(129,500,l),
(34,500,l),
(34,-133,l),
(129,-133,l)
);
},
{
closed = 1;
nodes = (
(20,500,l),
(10,407,l),
(129,407,l),
(129,500,l)
);
},
{
closed = 1;
nodes = (
(282,298,l),
(187,298,l),
(187,98,ls),
(187,94,o),
(186,93,o),
(182,93,cs),
(88,93,l),
(88,93,o),
(88,92,o),
(88,92,cs),
(88,39,o),
(124,0,o),
(177,0,cs),
(181,0,ls),
(242,0,o),
(282,39,o),
(282,93,cs)
);
},
{
closed = 1;
nodes = (
(182,407,ls),
(186,407,o),
(187,406,o),
(187,402,cs),
(187,298,l),
(282,298,l),
(282,407,ls),
(282,461,o),
(242,500,o),
(181,500,cs),
(154,500,l),
(94,407,l)
);
}
);
width = 302;
},
{
layerId = "E6A807D2-02F5-45B7-9AC8-B5230FFEC057";
shapes = (
{
closed = 1;
nodes = (
(166,-132,l),
(166,500,l),
(30,500,l),
(30,-132,l)
);
},
{
closed = 1;
nodes = (
(166,367,l),
(166,500,l),
(20,500,l),
(10,367,l)
);
},
{
closed = 1;
nodes = (
(362,251,l),
(226,251,l),
(226,138,ls),
(226,134,o),
(225,133,o),
(221,133,cs),
(106,133,l),
(106,125,o),
(106,117,o),
(106,109,cs),
(106,44,o),
(149,0,o),
(213,0,cs),
(222,0,ls),
(322,0,o),
(362,41,o),
(362,143,cs)
);
},
{
closed = 1;
nodes = (
(221,367,ls),
(225,367,o),
(226,366,o),
(226,362,cs),
(226,249,l),
(362,249,l),
(362,357,ls),
(362,459,o),
(321,500,o),
(218,500,cs),
(202,500,l),
(112,367,l)
);
}
);
width = 382;
}
);
unicode = 112;
},
{
glyphname = thorn;
lastChange = "2021-02-20 16:25:14 +0000";
layers = (
{
layerId = "A98666DC-4638-42B6-8332-BBF4982DF0EF";
shapes = (
{
closed = 1;
nodes = (
(91,-133,l),
(91,700,l),
(38,700,l),
(38,-133,l)
);
},
{
closed = 1;
nodes = (
(91,647,l),
(91,700,l),
(28,700,l),
(20,647,l)
);
},
{
closed = 1;
nodes = (
(244,298,l),
(191,298,l),
(191,83,ls),
(191,59,o),
(185,53,o),
(161,53,cs),
(48,53,l),
(48,53,o),
(48,52,o),
(48,52,cs),
(48,38,o),
(90,0,o),
(140,0,cs),
(142,0,ls),
(196,0,o),
(244,23,o),
(244,93,cs)
);
},
{
closed = 1;
nodes = (
(161,447,ls),
(185,447,o),
(191,441,o),
(191,417,cs),
(191,242,l),
(244,242,l),
(244,407,ls),
(244,461,o),
(204,500,o),
(143,500,cs),
(114,500,l),
(66,447,l)
);
}
);
width = 264;
},
{
layerId = "83682BA5-5A7B-4081-8B26-D550B6F33EEB";
shapes = (
{
closed = 1;
nodes = (
(139,-133,l),
(139,700,l),
(44,700,l),
(44,-133,l)
);
},
{
closed = 1;
nodes = (
(139,607,l),
(139,700,l),
(30,700,l),
(20,607,l)
);
},
{
closed = 1;
nodes = (
(292,298,l),
(197,298,l),
(197,98,ls),
(197,94,o),
(196,93,o),
(192,93,cs),
(98,93,l),
(98,93,o),
(98,92,o),
(98,92,cs),
(98,39,o),
(134,0,o),
(187,0,cs),
(191,0,ls),
(252,0,o),
(292,39,o),
(292,93,cs)
);
},
{
closed = 1;
nodes = (
(192,407,ls),
(196,407,o),
(197,406,o),
(197,402,cs),
(197,298,l),
(292,298,l),
(292,407,ls),
(292,461,o),
(252,500,o),
(191,500,cs),
(164,500,l),
(104,407,l)
);
}
);
width = 312;
},
{
layerId = "E6A807D2-02F5-45B7-9AC8-B5230FFEC057";
shapes = (
{
closed = 1;
nodes = (
(176,-132,l),
(176,700,l),
(40,700,l),
(40,-132,l)
);
},
{
closed = 1;
nodes = (
(176,567,l),
(176,700,l),
(30,700,l),
(20,567,l)
);
},
{
closed = 1;
nodes = (
(372,251,l),
(236,251,l),
(236,138,ls),
(236,134,o),
(235,133,o),
(231,133,cs),
(116,133,l),
(116,125,o),
(116,117,o),
(116,109,cs),
(116,44,o),
(159,0,o),
(223,0,cs),
(232,0,ls),
(332,0,o),
(372,41,o),
(372,143,cs)
);
},
{
closed = 1;
nodes = (
(231,367,ls),
(235,367,o),
(236,366,o),
(236,362,cs),
(236,249,l),
(372,249,l),
(372,357,ls),
(372,459,o),
(331,500,o),
(228,500,cs),
(212,500,l),
(122,367,l)
);
}
);
width = 392;
}
);
unicode = 254;
},
{
glyphname = q;
lastChange = "2021-03-02 21:18:10 +0000";
layers = (
{
layerId = "A98666DC-4638-42B6-8332-BBF4982DF0EF";
shapes = (
{
closed = 1;
nodes = (
(173,-133,l),
(226,-133,l),
(226,500,l),
(173,500,l)
);
},
{
closed = 1;
nodes = (
(173,-133,l),
(246,-133,l),
(238,-80,l),
(173,-80,l)
);
},
{
closed = 1;
nodes = (
(73,202,l),
(73,417,ls),
(73,441,o),
(79,447,o),
(103,447,cs),
(216,447,l),
(216,448,ls),
(216,463,o),
(174,500,o),
(124,500,cs),
(122,500,ls),
(57,500,o),
(20,468,o),
(20,407,cs),
(20,202,l)
);
},
{
closed = 1;
nodes = (
(150,0,l),
(198,53,l),
(103,53,ls),
(79,53,o),
(73,59,o),
(73,83,cs),
(73,258,l),
(20,258,l),
(20,93,ls),
(20,39,o),
(60,0,o),
(121,0,cs)
);
}
);
width = 261;
},
{
layerId = "83682BA5-5A7B-4081-8B26-D550B6F33EEB";
shapes = (
{
closed = 1;
nodes = (
(268,-133,l),
(268,500,l),
(173,500,l),
(173,-133,l)
);
},
{
closed = 1;
nodes = (
(173,-133,l),
(296,-133,l),
(288,-47,l),
(173,-47,l)
);
},
{
closed = 1;
nodes = (
(115,202,l),
(115,402,ls),
(115,406,o),
(116,407,o),
(120,407,cs),
(214,407,l),
(214,408,ls),
(214,461,o),
(178,500,o),
(125,500,cs),
(121,500,ls),
(60,500,o),
(20,461,o),
(20,407,cs),
(20,202,l)
);
},
{
closed = 1;
nodes = (
(148,0,l),
(208,93,l),
(120,93,ls),
(116,93,o),
(115,94,o),
(115,98,cs),
(115,258,l),
(20,258,l),
(20,93,ls),
(20,39,o),
(60,0,o),
(121,0,cs)
);
}
);
width = 306;
},
{
layerId = "E6A807D2-02F5-45B7-9AC8-B5230FFEC057";
shapes = (
{
closed = 1;
nodes = (
(347,-132,l),
(347,500,l),
(211,500,l),
(211,-132,l)
);
},
{
closed = 1;
nodes = (
(377,-132,l),
(367,1,l),
(211,1,l),
(211,-132,l)
);
},
{
closed = 1;
nodes = (
(151,249,l),
(151,362,ls),
(151,366,o),
(152,367,o),
(156,367,cs),
(271,367,l),
(271,391,ls),
(271,456,o),
(228,500,o),
(164,500,cs),
(155,500,ls),
(55,500,o),
(15,459,o),
(15,357,cs),
(15,249,l)
);
},
{
closed = 1;
nodes = (
(175,0,l),
(265,133,l),
(156,133,ls),
(152,133,o),
(151,134,o),
(151,138,cs),
(151,251,l),
(15,251,l),
(15,143,ls),
(15,41,o),
(56,0,o),
(159,0,cs)
);
}
);
width = 387;
}
);
unicode = 113;
},
{
glyphname = r;
lastChange = "2021-03-02 21:21:46 +0000";
layers = (
{
layerId = "A98666DC-4638-42B6-8332-BBF4982DF0EF";
shapes = (
{
closed = 1;
nodes = (
(23,500,l),
(23,0,l),
(76,0,l),
(76,500,l)
);
},
{
closed = 1;
nodes = (
(13,500,l),
(5,447,l),
(76,447,l),
(76,500,l)
);
},
{
closed = 1;
nodes = (
(99,500,l),
(63,441,l),
(150,441,l),
(150,500,l)
);
}
);
width = 165;
},
{
layerId = "83682BA5-5A7B-4081-8B26-D550B6F33EEB";
shapes = (
{
closed = 1;
nodes = (
(34,500,l),
(34,0,l),
(129,0,l),
(129,500,l)
);
},
{
closed = 1;
nodes = (
(156,500,l),
(96,403,l),
(223,403,l),
(223,500,l)
);
},
{
closed = 1;
nodes = (
(20,500,l),
(10,407,l),
(129,407,l),
(129,500,l)
);
}
);
width = 233;
},
{
layerId = "E6A807D2-02F5-45B7-9AC8-B5230FFEC057";
shapes = (
{
closed = 1;
nodes = (
(166,0,l),
(166,500,l),
(30,500,l),
(30,0,l)
);
},
{
closed = 1;
nodes = (
(166,367,l),
(166,500,l),
(20,500,l),
(10,367,l)
);
},
{
closed = 1;
nodes = (
(283,347,l),
(283,500,l),
(202,500,l),
(106,347,l)
);
}
);
width = 303;
},
{
associatedMasterId = "83682BA5-5A7B-4081-8B26-D550B6F33EEB";
layerId = "5917257A-93AC-4174-8899-404694A1C85C";
name = "Oct 29 20, 14:21";
shapes = (
{
closed = 1;
nodes = (
(125,275,l),
(202,0,l),
(298,0,l),
(220,275,l)
);
},
{
closed = 1;
nodes = (
(20,0,l),
(115,0,l),
(115,550,l),
(20,550,l)
);
},
{
closed = 1;
nodes = (
(162,182,ls),
(218,182,o),
(267,219,o),
(267,275,cs),
(267,380,l),
(172,380,l),
(172,233,l),
(216,275,l),
(20,275,l),
(20,182,l)
);
},
{
closed = 1;
nodes = (
(20,457,l),
(216,457,l),
(172,499,l),
(172,343,l),
(267,343,l),
(267,457,ls),
(267,513,o),
(229,550,o),
(173,550,cs),
(20,550,l)
);
}
);
width = 308;
},
{
associatedMasterId = "83682BA5-5A7B-4081-8B26-D550B6F33EEB";
layerId = "8D7CDBA4-8BF8-40A9-9140-5DAF393A18B7";
name = "Nov 2 20, 13:07";
shapes = (
{
closed = 1;
nodes = (
(16,500,l),
(16,0,l),
(111,0,l),
(111,500,l)
);
},
{
closed = 1;
nodes = (
(197,504,o),
(205,504,o),
(179,504,cs),
(126,504,o),
(90,458,o),
(90,404,c),
(205,404,l),
(205,504,l)
);
},
{
closed = 1;
nodes = (
(8,500,l),
(0,407,l),
(111,407,l),
(111,500,l)
);
}
);
width = 205;
}
);
unicode = 114;
},
{
glyphname = s;
lastChange = "2021-03-02 21:20:00 +0000";
layers = (
{
layerId = "A98666DC-4638-42B6-8332-BBF4982DF0EF";
shapes = (
{
closed = 1;
nodes = (
(56,504,o),
(20,472,o),
(20,411,cs),
(20,297,ls),
(20,277,o),
(28,264,o),
(44,257,cs),
(236,166,l),
(194,211,l),
(195,89,l),
(195,63,o),
(177,49,o),
(143,49,cs),
(116,49,l),
(116,-4,l),
(143,-4,ls),
(212,-4,o),
(248,28,o),
(248,89,cs),
(248,188,ls),
(248,207,o),
(240,221,o),
(224,228,cs),
(64,304,l),
(74,277,l),
(73,417,ls),
(73,437,o),
(91,451,o),
(125,451,cs),
(152,451,l),
(152,504,l),
(125,504,ls)
);
},
{
closed = 1;
nodes = (
(20,100,ls),
(20,32,o),
(56,-4,o),
(125,-4,cs),
(143,-4,l),
(143,49,l),
(125,49,ls),
(91,49,o),
(73,66,o),
(73,100,cs),
(73,173,l),
(20,180,l)
);
},
{
closed = 1;
nodes = (
(248,400,ls),
(248,468,o),
(212,504,o),
(143,504,cs),
(131,504,l),
(131,451,l),
(143,451,ls),
(177,451,o),
(195,434,o),
(195,400,c),
(195,323,l),
(248,318,l)
);
}
);
width = 268;
},
{
layerId = "83682BA5-5A7B-4081-8B26-D550B6F33EEB";
shapes = (
{
closed = 1;
nodes = (
(58,504,o),
(20,467,o),
(20,411,cs),
(20,300,ls),
(20,255,o),
(55,238,o),
(76,229,cs),
(203,175,l),
(165,233,l),
(165,98,ls),
(165,94,o),
(164,93,o),
(160,93,cs),
(136,93,l),
(136,0,l),
(166,0,ls),
(222,0,o),
(260,37,o),
(260,93,cs),
(260,204,ls),
(260,249,o),
(225,266,o),
(204,275,cs),
(77,329,l),
(115,271,l),
(115,406,ls),
(115,410,o),
(116,411,o),
(120,411,cs),
(144,411,l),
(144,504,l),
(114,504,ls)
);
},
{
closed = 1;
nodes = (
(20,93,ls),
(20,37,o),
(58,0,o),
(114,0,cs),
(144,0,l),
(144,93,l),
(120,93,ls),
(116,93,o),
(115,94,o),
(115,98,cs),
(115,147,l),
(20,157,l)
);
},
{
closed = 1;
nodes = (
(260,411,ls),
(260,467,o),
(222,504,o),
(166,504,cs),
(136,504,l),
(136,411,l),
(160,411,ls),
(164,411,o),
(165,410,o),
(165,406,cs),
(165,357,l),
(260,347,l)
);
}
);
width = 280;
},
{
layerId = "E6A807D2-02F5-45B7-9AC8-B5230FFEC057";
shapes = (
{
closed = 1;
nodes = (
(58,504,o),
(20,468,o),
(20,411,cs),
(20,294,ls),
(20,249,o),
(55,230,o),
(76,223,cs),
(228,167,l),
(226,170,l),
(226,138,ls),
(226,134,o),
(225,133,o),
(221,133,cs),
(197,133,l),
(197,0,l),
(268,0,ls),
(324,0,o),
(362,37,o),
(362,93,cs),
(362,211,ls),
(362,256,o),
(327,275,o),
(306,282,cs),
(154,338,l),
(156,335,l),
(156,366,ls),
(156,370,o),
(157,371,o),
(161,371,cs),
(185,371,l),
(185,504,l),
(114,504,ls)
);
},
{
closed = 1;
nodes = (
(20,143,ls),
(20,41,o),
(61,0,o),
(164,0,cs),
(202,0,l),
(202,133,l),
(161,133,ls),
(157,133,o),
(156,134,o),
(156,138,cs),
(156,180,l),
(20,190,l)
);
},
{
closed = 1;
nodes = (
(362,361,ls),
(362,463,o),
(321,504,o),
(218,504,cs),
(180,504,l),
(180,371,l),
(221,371,ls),
(225,371,o),
(226,370,o),
(226,366,cs),
(226,324,l),
(362,314,l)
);
}
);
width = 382;
}
);
unicode = 115;
},
{
glyphname = germandbls;
lastChange = "2021-02-21 00:38:35 +0000";
layers = (
{
layerId = "A98666DC-4638-42B6-8332-BBF4982DF0EF";
shapes = (
{
closed = 1;
nodes = (
(73,0,l),
(73,499,l),
(71,497,l),
(132,497,l),
(132,550,l),
(73,550,ls),
(41,550,o),
(20,529,o),
(20,497,cs),
(20,0,l)
);
},
{
closed = 1;
nodes = (
(199,0,ls),
(262,0,o),
(304,45,o),
(304,113,cs),
(304,192,ls),
(304,210,o),
(294,226,o),
(280,232,cs),
(160,283.692,l),
(160,289,l),
(230,338,ls),
(244,348,o),
(254,364,o),
(254,378,cs),
(254,457,ls),
(254,513,o),
(212,550,o),
(149,550,cs),
(132,550,l),
(132,497,l),
(149,497,ls),
(180,497,o),
(201,481,o),
(201,457,cs),
(200.181,373.49,l),
(130,329,ls),
(116,320,o),
(106,305,o),
(106,289,cs),
(106,281,ls),
(106,263,o),
(116,247,o),
(130,241,cs),
(250.262,188.293,l),
(251,113,ls),
(251,77,o),
(230,53,o),
(199,53,cs),
(122,53,l),
(122,0,l)
);
}
);
width = 324;
},
{
layerId = "83682BA5-5A7B-4081-8B26-D550B6F33EEB";
shapes = (
{
closed = 1;
nodes = (
(115,0,l),
(115,499,l),
(71,457,l),
(139,457,l),
(139,550,l),
(114,550,ls),
(58,550,o),
(20,513,o),
(20,457,cs),
(20,0,l)
);
},
{
closed = 1;
nodes = (
(268,1,ls),
(324,1,o),
(362,38,o),
(362,94,cs),
(362,165,ls),
(362,210,o),
(327,226,o),
(306,236,cs),
(221,276,l),
(221,277,l),
(228,284,ls),
(253,309,o),
(270,335,o),
(270,387,cs),
(270,458,ls),
(270,514,o),
(232,551,o),
(176,551,cs),
(118,551,l),
(118,458,l),
(173,457,ls),
(177,457,o),
(178,456,o),
(178,452,cs),
(176,370,l),
(176,357,ls),
(175,326,o),
(134,326,o),
(134,277,cs),
(134,270,ls),
(134,212,o),
(179,201,o),
(198,190,cs),
(267,152,l),
(267,99,ls),
(267,95,o),
(266,94,o),
(262,94,cs),
(165,94,l),
(165,1,l)
);
}
);
width = 382;
},
{
layerId = "E6A807D2-02F5-45B7-9AC8-B5230FFEC057";
shapes = (
{
closed = 1;
nodes = (
(156,0,l),
(156,499,l),
(71,417,l),
(158,417,l),
(158,550,l),
(114,550,ls),
(58,550,o),
(20,513,o),
(20,457,cs),
(20,0,l)
);
},
{
closed = 1;
nodes = (
(370,0,ls),
(426,0,o),
(464,37,o),
(464,93,cs),
(464,260,ls),
(464,305,o),
(429,328,o),
(408,331,cs),
(288,350,l),
(288,362,l),
(323,332,ls),
(326,329,o),
(328,333,o),
(328,337,cs),
(328,407,ls),
(328,509,o),
(287,550,o),
(184,550,cs),
(146,550,l),
(146,417,l),
(187,417,ls),
(191,417,o),
(192,416,o),
(192,412,cs),
(192,400,l),
(192,390,ls),
(192,383,o),
(192,337,o),
(192,323,c),
(192,305,l),
(191,244,o),
(233,239,o),
(328,220,c),
(328,180,l),
(328,138,ls),
(328,134,o),
(327,133,o),
(323,133,cs),
(202,133,l),
(202,0,l)
);
}
);
width = 484;
},
{
associatedMasterId = "A98666DC-4638-42B6-8332-BBF4982DF0EF";
layerId = "0962EEAB-1006-4305-9232-C12F5A038F42";
name = "Nov 22 20, 23:35";
shapes = (
{
closed = 1;
nodes = (
(20,341,l),
(20,0,l),
(73,0,l),
(73,341,l)
);
},
{
closed = 1;
nodes = (
(20,231,o),
(20,335,o),
(20,119,c),
(73,119,l),
(73,447,l),
(132,447,l),
(132,500,l),
(103,500,o),
(92,500,o),
(73,500,cs),
(41,500,o),
(20,479,o),
(20,447,cs)
);
},
{
closed = 1;
nodes = (
(106,251,ls),
(106,233,o),
(116,217,o),
(130,211,cs),
(292,140,l),
(250,185,l),
(251,113,l),
(251,77,o),
(230,53,o),
(199,53,cs),
(122,53,l),
(122,0,l),
(199,0,ls),
(262,0,o),
(304,45,o),
(304,113,cs),
(304,162,ls),
(304,180,o),
(294,196,o),
(280,202,cs),
(150,258,l),
(160,231,l),
(160,258,l),
(106,259,l)
);
},
{
closed = 1;
nodes = (
(160,252,l),
(160,279,l),
(150,252,l),
(230,308,ls),
(244,318,o),
(254,334,o),
(254,348,cs),
(254,407,ls),
(254,463,o),
(212,500,o),
(149,500,cs),
(132,500,l),
(132,447,l),
(149,447,ls),
(180,447,o),
(201,431,o),
(201,407,c),
(200,325,l),
(242,370,l),
(130,299,ls),
(116,291,o),
(106,275,o),
(106,259,cs),
(106,251,l)
);
}
);
width = 324;
},
{
associatedMasterId = "83682BA5-5A7B-4081-8B26-D550B6F33EEB";
layerId = "43DE8802-E690-4A0C-BDB9-4E1EA3EE70C7";
name = "21 Feb 21, 2:12";
shapes = (
{
closed = 1;
nodes = (
(114,550,ls),
(58,550,o),
(20,513,o),
(20,457,cs),
(20,0,l),
(115,0,l),
(115,499,l),
(71,457,l),
(172,457,l),
(172,550,l)
);
},
{
closed = 1;
nodes = (
(159,286,o),
(142,292,o),
(134,276,c),
(134,212,o),
(178,200,o),
(198,189,cs),
(267,151,l),
(267,93,l),
(165,93,l),
(165,0,l),
(268,0,ls),
(324,0,o),
(362,37,o),
(362,93,cs),
(362,164,ls),
(362,209,o),
(327,225,o),
(306,235,cs),
(167,302,l)
);
},
{
closed = 1;
nodes = (
(118,457,l),
(219,457,l),
(175,499,l),
(176,409,l),
(270,409,l),
(270,457,ls),
(270,513,o),
(232,550,o),
(176,550,cs),
(118,550,l)
);
},
{
closed = 1;
nodes = (
(176,391,o),
(176,374,o),
(176,356,cs),
(176,325,o),
(134,325,o),
(134,276,cs),
(134,205,o),
(212,267,o),
(228,283,cs),
(253,308,o),
(270,334,o),
(270,386,cs),
(270,409,l),
(176,409,l)
);
}
);
width = 382;
}
);
unicode = 223;
},
{
glyphname = t;
lastChange = "2021-03-02 21:21:16 +0000";
layers = (
{
anchors = (
{
name = bottom;
pos = (77,0);
},
{
name = center;
pos = (77,338);
},
{
name = top;
pos = (68,500);
},
{
name = topright;
pos = (133,500);
}
);
layerId = "A98666DC-4638-42B6-8332-BBF4982DF0EF";
shapes = (
{
closed = 1;
nodes = (
(78,53,l),
(100,31,l),
(100,700,l),
(47,700,l),
(47,53,l),
(47,21,o),
(68,0,o),
(100,0,cs),
(148,0,l),
(148,53,l)
);
},
{
closed = 1;
nodes = (
(140,447,l),
(148,500,l),
(13,500,l),
(5,447,l)
);
},
{
closed = 1;
nodes = (
(100,647,l),
(100,700,l),
(37,700,l),
(29,647,l)
);
}
);
width = 153;
},
{
anchors = (
{
name = bottom;
pos = (107,0);
},
{
name = center;
pos = (107,250);
},
{
name = top;
pos = (94,500);
},
{
name = topright;
pos = (194,500);
}
);
layerId = "83682BA5-5A7B-4081-8B26-D550B6F33EEB";
shapes = (
{
closed = 1;
nodes = (
(103,93,l),
(147,51,l),
(147,700,l),
(52,700,l),
(52,93,ls),
(52,37,o),
(90,0,o),
(146,0,cs),
(204,0,l),
(204,93,l)
);
},
{
closed = 1;
nodes = (
(196,407,l),
(204,500,l),
(18,500,l),
(10,407,l)
);
},
{
closed = 1;
nodes = (
(147,607,l),
(147,700,l),
(35,700,l),
(27,607,l)
);
}
);
width = 214;
},
{
anchors = (
{
name = bottom;
pos = (127,0);
},
{
name = center;
pos = (127,250);
},
{
name = top;
pos = (114,500);
},
{
name = topright;
pos = (233,500);
}
);
layerId = "E6A807D2-02F5-45B7-9AC8-B5230FFEC057";
shapes = (
{
closed = 1;
nodes = (
(102,133,l),
(186,51,l),
(186,700,l),
(51,700,l),
(51,93,ls),
(51,37,o),
(89,0,o),
(145,0,cs),
(243,0,l),
(243,133,l)
);
},
{
closed = 1;
nodes = (
(223,377,l),
(233,500,l),
(20,500,l),
(10,377,l)
);
},
{
closed = 1;
nodes = (
(186,567,l),
(186,700,l),
(40,700,l),
(30,567,l)
);
}
);
width = 253;
}
);
unicode = 116;
},
{
glyphname = u;
kernLeft = ou;
kernRight = ou;
lastChange = "2021-03-02 17:28:17 +0000";
layers = (
{
anchors = (
{
name = bottom;
pos = (137,0);
},
{
name = ogonek;
pos = (247,10);
},
{
name = top;
pos = (137,500);
},
{
name = topright;
pos = (254,500);
}
);
layerId = "A98666DC-4638-42B6-8332-BBF4982DF0EF";
shapes = (
{
closed = 1;
nodes = (
(186,500,l),
(186,0,l),
(239,0,l),
(239,500,l)
);
},
{
closed = 1;
nodes = (
(186,0,l),
(259,0,l),
(251,53,l),
(186,53,l)
);
},
{
closed = 1;
nodes = (
(25,500,l),
(15,447,l),
(88,447,l),
(88,500,l)
);
},
{
closed = 1;
nodes = (
(35,93,ls),
(35,39,o),
(75,0,o),
(136,0,cs),
(165,0,l),
(213,53,l),
(118,53,ls),
(94,53,o),
(88,59,o),
(88,83,cs),
(88,500,l),
(35,500,l)
);
}
);
width = 274;
},
{
anchors = (
{
name = bottom;
pos = (151,0);
},
{
name = ogonek;
pos = (272,10);
},
{
name = top;
pos = (151,500);
},
{
name = topright;
pos = (282,500);
}
);
layerId = "83682BA5-5A7B-4081-8B26-D550B6F33EEB";
shapes = (
{
closed = 1;
nodes = (
(282,0,l),
(282,500,l),
(187,500,l),
(187,0,l)
);
},
{
closed = 1;
nodes = (
(187,0,l),
(307,0,l),
(297,93,l),
(187,93,l)
);
},
{
closed = 1;
nodes = (
(20,500,l),
(10,407,l),
(129,407,l),
(129,500,l)
);
},
{
closed = 1;
nodes = (
(34,93,ls),
(34,39,o),
(74,0,o),
(135,0,cs),
(162,0,l),
(222,93,l),
(134,93,ls),
(130,93,o),
(129,94,o),
(129,98,cs),
(129,500,l),
(34,500,l)
);
}
);
width = 302;
},
{
anchors = (
{
name = bottom;
pos = (196,0);
},
{
name = ogonek;
pos = (353,10);
},
{
name = top;
pos = (196,500);
},
{
name = topright;
pos = (372,500);
}
);
layerId = "E6A807D2-02F5-45B7-9AC8-B5230FFEC057";
shapes = (
{
closed = 1;
nodes = (
(382,0,l),
(372,133,l),
(226,133,l),
(226,0,l)
);
},
{
closed = 1;
nodes = (
(166,367,l),
(166,500,l),
(20,500,l),
(10,367,l)
);
},
{
closed = 1;
nodes = (
(362,0,l),
(362,500,l),
(226,500,l),
(226,0,l)
);
},
{
closed = 1;
nodes = (
(171,133,ls),
(167,133,o),
(166,134,o),
(166,138,cs),
(166,500,l),
(30,500,l),
(30,143,ls),
(30,41,o),
(71,0,o),
(174,0,cs),
(190,0,l),
(280,133,l)
);
}
);
width = 392;
}
);
unicode = 117;
},
{
glyphname = v;
lastChange = "2021-03-02 21:23:37 +0000";
layers = (
{
layerId = "A98666DC-4638-42B6-8332-BBF4982DF0EF";
shapes = (
{
closed = 1;
nodes = (
(111,0,l),
(152,0,l),
(248,500,l),
(200,500,l),
(131,103,l),
(132,103,l),
(63,500,l),
(15,500,l)
);
}
);
width = 263;
},
{
layerId = "83682BA5-5A7B-4081-8B26-D550B6F33EEB";
shapes = (
{
closed = 1;
nodes = (
(106,0,l),
(202,0,l),
(298,500,l),
(210,500,l),
(134,61,l),
(174,61,l),
(98,500,l),
(10,500,l)
);
}
);
width = 308;
},
{
layerId = "E6A807D2-02F5-45B7-9AC8-B5230FFEC057";
shapes = (
{
closed = 1;
nodes = (
(252,0,l),
(348,500,l),
(232,500,l),
(156,61,l),
(212,61,l),
(136,500,l),
(20,500,l),
(116,0,l)
);
}
);
width = 368;
}
);
unicode = 118;
},
{
glyphname = w;
lastChange = "2021-03-02 21:15:50 +0000";
layers = (
{
layerId = "A98666DC-4638-42B6-8332-BBF4982DF0EF";
shapes = (
{
closed = 1;
nodes = (
(389,0,l),
(389,500,l),
(336,500,l),
(336,0,l)
);
},
{
closed = 1;
nodes = (
(336,0,l),
(407,0,l),
(399,53,l),
(336,53,l)
);
},
{
closed = 1;
nodes = (
(25,500,l),
(15,447,l),
(88,447,l),
(88,500,l)
);
},
{
closed = 1;
nodes = (
(185,93,ls),
(185,39,o),
(225,0,o),
(286,0,cs),
(315,0,l),
(363,53,l),
(268,53,ls),
(244,53,o),
(238,59,o),
(238,83,cs),
(238,500,l),
(185,500,l)
);
},
{
closed = 1;
nodes = (
(35,93,ls),
(35,39,o),
(75,0,o),
(136,0,cs),
(175,0,l),
(223,53,l),
(118,53,ls),
(94,53,o),
(88,59,o),
(88,83,cs),
(88,500,l),
(35,500,l)
);
}
);
width = 422;
},
{
layerId = "83682BA5-5A7B-4081-8B26-D550B6F33EEB";
shapes = (
{
closed = 1;
nodes = (
(340,0,l),
(459,0,l),
(449,93,l),
(340,93,l)
);
},
{
closed = 1;
nodes = (
(435,0,l),
(435,500,l),
(340,500,l),
(340,0,l)
);
},
{
closed = 1;
nodes = (
(20,500,l),
(10,407,l),
(129,407,l),
(129,500,l)
);
},
{
closed = 1;
nodes = (
(187,93,ls),
(187,39,o),
(227,0,o),
(288,0,cs),
(315,0,l),
(375,93,l),
(287,93,ls),
(283,93,o),
(282,94,o),
(282,98,cs),
(282,500,l),
(187,500,l)
);
},
{
closed = 1;
nodes = (
(34,93,ls),
(34,39,o),
(74,0,o),
(135,0,cs),
(162,0,l),
(222,93,l),
(134,93,ls),
(130,93,o),
(129,94,o),
(129,98,cs),
(129,500,l),
(34,500,l)
);
}
);
width = 469;
},
{
layerId = "E6A807D2-02F5-45B7-9AC8-B5230FFEC057";
shapes = (
{
closed = 1;
nodes = (
(578,0,l),
(568,133,l),
(422,133,l),
(422,0,l)
);
},
{
closed = 1;
nodes = (
(422,500,l),
(422,0,l),
(558,0,l),
(558,500,l)
);
},
{
closed = 1;
nodes = (
(20,500,l),
(10,367,l),
(166,367,l),
(157,500,l)
);
},
{
closed = 1;
nodes = (
(367,133,ls),
(363,133,o),
(362,134,o),
(362,138,cs),
(362,500,l),
(226,500,l),
(226,143,ls),
(226,41,o),
(267,0,o),
(370,0,cs),
(386,0,l),
(476,133,l)
);
},
{
closed = 1;
nodes = (
(171,133,ls),
(167,133,o),
(166,134,o),
(166,138,cs),
(166,500,l),
(30,500,l),
(30,143,ls),
(30,41,o),
(71,0,o),
(174,0,cs),
(195,0,l),
(285,133,l)
);
}
);
width = 588;
}
);
unicode = 119;
},
{
glyphname = x;
lastChange = "2021-03-02 21:24:37 +0000";
layers = (
{
layerId = "A98666DC-4638-42B6-8332-BBF4982DF0EF";
shapes = (
{
closed = 1;
nodes = (
(111,218,l),
(152,218,l),
(248,500,l),
(195,500,l),
(126,276,l),
(137,276,l),
(68,500,l),
(15,500,l)
);
},
{
closed = 1;
nodes = (
(68,0,l),
(137,224,l),
(126,224,l),
(195,0,l),
(248,0,l),
(152,282,l),
(111,282,l),
(15,0,l)
);
}
);
width = 263;
},
{
layerId = "83682BA5-5A7B-4081-8B26-D550B6F33EEB";
shapes = (
{
closed = 1;
nodes = (
(0,500,l),
(97,218,l),
(193,218,l),
(290,500,l),
(195,500,l),
(131,317,l),
(159,317,l),
(95,500,l)
);
},
{
closed = 1;
nodes = (
(290,0,l),
(193,282,l),
(97,282,l),
(0,0,l),
(95,0,l),
(159,183,l),
(131,183,l),
(195,0,l)
);
}
);
width = 290;
},
{
layerId = "E6A807D2-02F5-45B7-9AC8-B5230FFEC057";
shapes = (
{
closed = 1;
nodes = (
(262,192,l),
(369,500,l),
(234,500,l),
(180,279,l),
(210,279,l),
(155,500,l),
(20,500,l),
(127,192,l)
);
},
{
closed = 1;
nodes = (
(155,0,l),
(210,221,l),
(180,221,l),
(234,0,l),
(369,0,l),
(262,308,l),
(127,308,l),
(20,0,l)
);
}
);
width = 389;
}
);
unicode = 120;
},
{
glyphname = y;
kernLeft = y;
kernRight = y;
lastChange = "2021-03-02 21:25:06 +0000";
layers = (
{
anchors = (
{
name = bottom;
pos = (145,0);
},
{
name = top;
pos = (139,500);
}
);
layerId = "A98666DC-4638-42B6-8332-BBF4982DF0EF";
shapes = (
{
closed = 1;
nodes = (
(186,-132,ls),
(218,-132,o),
(239,-111,o),
(239,-79,cs),
(239,500,l),
(186,500,l),
(186,-101,l),
(208,-79,l),
(66,-79,l),
(88,-101,l),
(88,-32,l),
(35,-32,l),
(35,-79,ls),
(35,-111,o),
(56,-132,o),
(88,-132,cs)
);
},
{
closed = 1;
nodes = (
(165,0,l),
(213,53,l),
(66,53,l),
(88,31,l),
(88,500,l),
(35,500,l),
(35,53,ls),
(35,21,o),
(56,0,o),
(88,0,cs)
);
},
{
closed = 1;
nodes = (
(88,447,l),
(88,500,l),
(25,500,l),
(15,447,l)
);
}
);
width = 259;
},
{
anchors = (
{
name = bottom;
pos = (211,0);
},
{
name = top;
pos = (205,500);
}
);
layerId = "E6A807D2-02F5-45B7-9AC8-B5230FFEC057";
shapes = (
{
closed = 1;
nodes = (
(228,-153,ls),
(331,-153,o),
(372,-112,o),
(372,-10,cs),
(372,499,l),
(236,499,l),
(236,-72,l),
(268,-40,l),
(144,-40,l),
(176,-72,l),
(176,-13,l),
(40,-13,l),
(40,-14,ls),
(40,-109,o),
(85,-153,o),
(184,-153,cs)
);
},
{
closed = 1;
nodes = (
(200,-1,l),
(290,132,l),
(132,132,l),
(176,90,l),
(176,499,l),
(40,499,l),
(40,140,ls),
(40,38,o),
(81,-1,o),
(184,-1,cs)
);
},
{
closed = 1;
nodes = (
(176,366,l),
(176,499,l),
(30,499,l),
(20,366,l)
);
}
);
width = 392;
},
{
anchors = (
{
name = bottom;
pos = (144,0);
},
{
name = top;
pos = (144,500);
}
);
layerId = "83682BA5-5A7B-4081-8B26-D550B6F33EEB";
shapes = (
{
closed = 1;
nodes = (
(174,-133,ls),
(227.634,-133,o),
(268,-99,o),
(267.798,-46.994,cs),
(268,500,l),
(173,500,l),
(173,-89,l),
(215,-47,l),
(73,-47,l),
(115,-89,l),
(115,-20,l),
(20,-20,l),
(20,-40,ls),
(20,-96,o),
(58,-133,o),
(114,-133,cs)
);
},
{
closed = 1;
nodes = (
(148,0,l),
(208,93,l),
(73,93,l),
(115,51,l),
(115,500,l),
(20,500,l),
(20,93,ls),
(20,39,o),
(60,0,o),
(121,0,cs)
);
},
{
closed = 1;
nodes = (
(115,407,l),
(115,500,l),
(15,500,l),
(5,407,l)
);
}
);
width = 288;
}
);
unicode = 121;
},
{
glyphname = z;
lastChange = "2021-03-02 21:25:27 +0000";
layers = (
{
layerId = "A98666DC-4638-42B6-8332-BBF4982DF0EF";
shapes = (
{
closed = 1;
nodes = (
(238,0,l),
(246,53,l),
(65,53,l),
(67,51,l),
(239,431,ls),
(243,440,o),
(246,452,o),
(246,460,cs),
(246,499,l),
(23,499,l),
(15,446,l),
(196,446,l),
(194,448,l),
(22,68,ls),
(18,59,o),
(15,47,o),
(15,39,cs),
(15,0,l)
);
}
);
width = 261;
},
{
layerId = "83682BA5-5A7B-4081-8B26-D550B6F33EEB";
shapes = (
{
closed = 1;
nodes = (
(239,1,l),
(247,94,l),
(73,94,l),
(102,54,l),
(252,390,ls),
(256,399,o),
(257,413,o),
(257,426,cs),
(257,499,l),
(18,499,l),
(10,406,l),
(204,406,l),
(175,446,l),
(15,110,ls),
(11,101,o),
(10,87,o),
(10,74,cs),
(10,1,l)
);
}
);
width = 267;
},
{
layerId = "E6A807D2-02F5-45B7-9AC8-B5230FFEC057";
shapes = (
{
closed = 1;
nodes = (
(302,0,l),
(312,133,l),
(122,133,l),
(151,108,l),
(300,340,ls),
(308,352,o),
(312,370,o),
(312,386,cs),
(312,499,l),
(30,499,l),
(20,366,l),
(210,366,l),
(181,391,l),
(32,159,ls),
(24,147,o),
(20,129,o),
(20,113,cs),
(20,0,l)
);
}
);
width = 332;
}
);
unicode = 122;
},
{
glyphname = i.001;
kernLeft = i;
kernRight = i;
lastChange = "2021-02-19 21:52:30 +0000";
layers = (
{
anchors = (
{
name = bottom;
pos = (51,0);
}
);
layerId = "A98666DC-4638-42B6-8332-BBF4982DF0EF";
shapes = (
{
closed = 1;
nodes = (
(82,0,l),
(82,500,l),
(29,500,l),
(29,0,l)
);
},
{
closed = 1;
nodes = (
(23,500,l),
(15,447,l),
(82,447,l),
(82,500,l)
);
}
);
width = 102;
},
{
anchors = (
{
name = bottom;
pos = (96,0);
}
);
layerId = "E6A807D2-02F5-45B7-9AC8-B5230FFEC057";
shapes = (
{
closed = 1;
nodes = (
(172,0,l),
(172,500,l),
(36,500,l),
(36,0,l)
);
},
{
closed = 1;
nodes = (
(172,367,l),
(172,500,l),
(30,500,l),
(20,367,l)
);
}
);
width = 192;
},
{
anchors = (
{
name = bottom;
pos = (70,0);
}
);
layerId = "83682BA5-5A7B-4081-8B26-D550B6F33EEB";
shapes = (
{
closed = 1;
nodes = (
(25,0,l),
(120,0,l),
(120,500,l),
(25,500,l)
);
},
{
closed = 1;
nodes = (
(20,500,l),
(10,407,l),
(120,407,l),
(120,500,l)
);
}
);
width = 140;
}
);
},
{
glyphname = ordfeminine;
lastChange = "2021-02-20 22:45:29 +0000";
layers = (
{
layerId = "A98666DC-4638-42B6-8332-BBF4982DF0EF";
shapes = (
{
closed = 1;
nodes = (
(216,661,o),
(174,700,o),
(123,700,cs),
(57,700,o),
(20,668,o),
(20,607,cs),
(20,543,l),
(73,543,l),
(73,617,ls),
(73,641,o),
(79,647,o),
(103,647,cs),
(216,647,l)
);
},
{
closed = 1;
nodes = (
(20,534,ls),
(20,480,o),
(60,441,o),
(121,441,cs),
(150,441,l),
(198,494,l),
(103,494,ls),
(79,494,o),
(73,500,o),
(73,524,cs),
(73,558,l),
(20,558,l)
);
},
{
closed = 1;
nodes = (
(173,441,l),
(226,441,l),
(226,700,l),
(173,700,l)
);
},
{
closed = 1;
nodes = (
(238,494,l),
(173,494,l),
(173,441,l),
(246,441,l)
);
},
{
closed = 1;
nodes = (
(226,363,l),
(226,416,l),
(40,416,l),
(40,363,l)
);
}
);
width = 266;
},
{
layerId = "83682BA5-5A7B-4081-8B26-D550B6F33EEB";
shapes = (
{
closed = 1;
nodes = (
(214,661,o),
(178,700,o),
(123,700,cs),
(60,700,o),
(20,661,o),
(20,607,cs),
(20,548,l),
(115,548,l),
(115,602,ls),
(115,606,o),
(116,607,o),
(120,607,cs),
(214,607,l)
);
},
{
closed = 1;
nodes = (
(20,509,ls),
(20,455,o),
(60,416,o),
(121,416,cs),
(148,416,l),
(208,509,l),
(120,509,ls),
(116,509,o),
(115,510,o),
(115,514,cs),
(115,558,l),
(20,558,l)
);
},
{
closed = 1;
nodes = (
(173,416,l),
(268,416,l),
(268,700,l),
(173,700,l)
);
},
{
closed = 1;
nodes = (
(282,509,l),
(173,509,l),
(173,416,l),
(292,416,l)
);
},
{
closed = 1;
nodes = (
(272,300,l),
(272,395,l),
(40,395,l),
(40,300,l)
);
}
);
width = 302;
},
{
layerId = "E6A807D2-02F5-45B7-9AC8-B5230FFEC057";
shapes = (
{
closed = 1;
nodes = (
(276,656,o),
(233,700,o),
(165,700,cs),
(60,700,o),
(20,659,o),
(20,557,cs),
(20,492,l),
(156,492,l),
(156,562,ls),
(156,566,o),
(157,567,o),
(161,567,cs),
(276,567,l)
);
},
{
closed = 1;
nodes = (
(20,486,ls),
(20,384,o),
(61,343,o),
(164,343,cs),
(180,343,l),
(270,476,l),
(161,476,ls),
(157,476,o),
(156,477,o),
(156,481,cs),
(156,494,l),
(20,494,l)
);
},
{
closed = 1;
nodes = (
(216,343,l),
(352,343,l),
(352,700,l),
(216,700,l)
);
},
{
closed = 1;
nodes = (
(362,476,l),
(216,476,l),
(216,343,l),
(372,343,l)
);
},
{
closed = 1;
nodes = (
(347,202,l),
(347,323,l),
(45,322,l),
(45,202,l)
);
}
);
width = 392;
}
);
unicode = 170;
},
{
glyphname = ordmasculine;
lastChange = "2021-02-20 23:28:45 +0000";
layers = (
{
layerId = "A98666DC-4638-42B6-8332-BBF4982DF0EF";
shapes = (
{
closed = 1;
nodes = (
(31,417,l),
(31,364,l),
(217,364,l),
(217,417,l)
);
},
{
closed = 1;
nodes = (
(118,700,ls),
(54,700,o),
(20,664,o),
(20,596,cs),
(20,571,l),
(73,571,l),
(73,596,ls),
(73,630,o),
(90,647,o),
(123,647,cs),
(125,647,ls),
(158,647,o),
(175,630,o),
(175,596,c),
(175,571,l),
(228,571,l),
(228,596,ls),
(228,664,o),
(195,700,o),
(131,700,cs)
);
},
{
closed = 1;
nodes = (
(127,441,ls),
(193,441,o),
(228,478,o),
(228,545,cs),
(228,571,l),
(175,571,l),
(175,545,ls),
(175,511,o),
(157,494,o),
(125,494,cs),
(123,494,ls),
(96,494,o),
(73,505,o),
(73,534,cs),
(73,571,l),
(20,571,l),
(20,534,ls),
(20,473,o),
(56,441,o),
(124,441,cs)
);
}
);
width = 248;
},
{
layerId = "83682BA5-5A7B-4081-8B26-D550B6F33EEB";
shapes = (
{
closed = 1;
nodes = (
(40,395,l),
(40,300,l),
(252,300,l),
(252,395,l)
);
},
{
closed = 1;
nodes = (
(114,700,ls),
(58,700,o),
(20,663,o),
(20,607,cs),
(20,570,l),
(115,570,l),
(115,604,ls),
(115,606,o),
(116,607,o),
(118,607,cs),
(162,607,ls),
(164,607,o),
(165,606,o),
(165,604,cs),
(165,570,l),
(260,570,l),
(260,607,ls),
(260,663,o),
(222,700,o),
(166,700,cs)
);
},
{
closed = 1;
nodes = (
(166,416,ls),
(222,416,o),
(260,453,o),
(260,509,cs),
(260,570,l),
(165,570,l),
(165,512,ls),
(165,510,o),
(164,509,o),
(162,509,cs),
(118,509,ls),
(116,509,o),
(115,510,o),
(115,512,cs),
(115,570,l),
(20,570,l),
(20,509,ls),
(20,453,o),
(58,416,o),
(114,416,cs)
);
}
);
width = 280;
},
{
layerId = "E6A807D2-02F5-45B7-9AC8-B5230FFEC057";
shapes = (
{
closed = 1;
nodes = (
(302,202,l),
(302,323,l),
(40,322,l),
(40,202,l)
);
},
{
closed = 1;
nodes = (
(160,700,ls),
(60,700,o),
(20,657.669,o),
(20,557,cs),
(20,516,l),
(156,516,l),
(156,564,ls),
(156,566,o),
(157,567,o),
(159,567,cs),
(183,567,ls),
(185,567,o),
(186,566,o),
(186,564,cs),
(186,516,l),
(322,516,l),
(322,557,ls),
(322,659,o),
(281,700,o),
(178,700,cs)
);
},
{
closed = 1;
nodes = (
(178,342,ls),
(281,342,o),
(322,383,o),
(322,485,cs),
(322,516,l),
(186,516,l),
(186,478,ls),
(186,476,o),
(185,475,o),
(183,475,cs),
(159,475,ls),
(157,475,o),
(156,476,o),
(156,478,cs),
(156,516,l),
(20,516,l),
(20,485,ls),
(20,384.331,o),
(60,342,o),
(160,342.021,cs)
);
}
);
width = 342;
}
);
unicode = 186;
},
{
glyphname = "alef-hb";
lastChange = "2021-03-01 20:00:03 +0000";
layers = (
{
anchors = (
{
name = bottom;
pos = (198,0);
},
{
name = center;
pos = (89,397);
},
{
name = top;
pos = (249,678);
},
{
name = topleft;
pos = (-74,600);
}
);
layerId = "83682BA5-5A7B-4081-8B26-D550B6F33EEB";
shapes = (
{
closed = 1;
nodes = (
(256,263,ls),
(311,263,o),
(350,302,o),
(350,356,cs),
(350,600,l),
(260,600,l),
(260,361,ls),
(260,357,o),
(259,356,o),
(255,356,cs),
(207,356,l),
(207,263,l)
);
},
{
closed = 1;
nodes = (
(125,0,l),
(125,507,l),
(117,507,l),
(257,0,l),
(352,0,l),
(182,600,l),
(30,600,l),
(30,0,l)
);
},
{
closed = 1;
nodes = (
(30,600,l),
(10,507,l),
(182,507,l),
(182,600,l)
);
},
{
closed = 1;
nodes = (
(248,600,l),
(228,507,l),
(350,507,l),
(350,600,l)
);
}
);
width = 372;
},
{
anchors = (
{
name = bottom;
pos = (249,0);
},
{
name = center;
pos = (182,250);
},
{
name = top;
pos = (232,500);
},
{
name = topleft;
pos = (46,500);
}
);
layerId = "E6A807D2-02F5-45B7-9AC8-B5230FFEC057";
shapes = (
{
closed = 1;
nodes = (
(329,230,ls),
(385,230,o),
(423,267,o),
(423,323,cs),
(423,600,l),
(302,600,l),
(302,358,ls),
(302,354,o),
(301,353,o),
(297,353,cs),
(271,353,l),
(271,230,l)
);
},
{
closed = 1;
nodes = (
(163,1,l),
(169,508,l),
(106,508,l),
(287,0,l),
(423,0,l),
(213,600,l),
(41,600,l),
(41,1,l)
);
},
{
closed = 1;
nodes = (
(36,600,l),
(20,467,l),
(213,467,l),
(213,600,l)
);
},
{
closed = 1;
nodes = (
(290,600,l),
(274,467,l),
(423,467,l),
(423,600,l)
);
}
);
width = 443;
},
{
anchors = (
{
name = bottom;
pos = (174,0);
},
{
name = center;
pos = (124,250);
},
{
name = top;
pos = (150,500);
},
{
name = topleft;
pos = (9,500);
}
);
layerId = "A98666DC-4638-42B6-8332-BBF4982DF0EF";
shapes = (
{
closed = 1;
nodes = (
(184,293,ls),
(246,293,o),
(278,323,o),
(278,381,cs),
(278,600,l),
(227,600,l),
(227,381,ls),
(227,357,o),
(217,344,o),
(199,344,cs),
(157,344,l),
(157,293,l)
);
},
{
closed = 1;
nodes = (
(85,0,l),
(85,524,l),
(84,524,l),
(238,0,l),
(291,0,l),
(115,600,l),
(32,600,l),
(32,0,l)
);
},
{
closed = 1;
nodes = (
(32,600,l),
(20,547,l),
(115,547,l),
(115,600,l)
);
},
{
closed = 1;
nodes = (
(211,600,l),
(199,547,l),
(278,547,l),
(278,600,l)
);
}
);
width = 311;
}
);
note = alefhebrew;
unicode = 1488;
},
{
glyphname = "bet-hb";
lastChange = "2021-03-01 20:51:48 +0000";
layers = (
{
anchors = (
{
name = bottom;
pos = (147,0);
},
{
name = center;
pos = (73,300);
},
{
name = top;
pos = (183,600);
},
{
name = topleft;
pos = (33,600);
}
);
guides = (
{
angle = 90;
pos = (34,439);
}
);
layerId = "83682BA5-5A7B-4081-8B26-D550B6F33EEB";
shapes = (
{
closed = 1;
nodes = (
(148,0,l),
(243,0,l),
(243,600,l),
(148,600,l)
);
},
{
closed = 1;
nodes = (
(30,600,l),
(10,507,l),
(243,507,l),
(243,600,l)
);
},
{
closed = 1;
nodes = (
(10,93,l),
(10,0,l),
(283,0,l),
(283,93,l)
);
}
);
width = 283;
},
{
anchors = (
{
name = bottom;
pos = (173,0);
},
{
name = center;
pos = (80,300);
},
{
name = top;
pos = (173,500);
},
{
name = topleft;
pos = (20,500);
}
);
layerId = "E6A807D2-02F5-45B7-9AC8-B5230FFEC057";
shapes = (
{
closed = 1;
nodes = (
(149,0,l),
(285,0,l),
(285,600,l),
(149,600,l)
);
},
{
closed = 1;
nodes = (
(42,600,l),
(20,467,l),
(285,467,l),
(285,600,l)
);
},
{
closed = 1;
nodes = (
(20,133,l),
(20,0,l),
(325,0,l),
(325,133,l)
);
}
);
width = 345;
},
{
anchors = (
{
name = bottom;
pos = (170,0);
},
{
name = center;
pos = (100,290);
},
{
name = top;
pos = (150,500);
},
{
name = topleft;
pos = (20,500);
}
);
layerId = "A98666DC-4638-42B6-8332-BBF4982DF0EF";
shapes = (
{
closed = 1;
nodes = (
(186,0,l),
(240,0,l),
(240,600,l),
(186,600,l)
);
},
{
closed = 1;
nodes = (
(36,600,l),
(24,547,l),
(240,547,l),
(240,600,l)
);
},
{
closed = 1;
nodes = (
(20,53,l),
(20,0,l),
(275,0,l),
(275,53,l)
);
}
);
width = 290;
}
);
note = bethebrew;
unicode = 1489;
},
{
glyphname = "gimel-hb";
lastChange = "2021-03-01 20:56:31 +0000";
layers = (
{
anchors = (
{
name = bottom;
pos = (117,0);
},
{
name = center;
pos = (73,420);
},
{
name = top;
pos = (130,600);
},
{
name = topleft;
pos = (99,600);
}
);
layerId = "83682BA5-5A7B-4081-8B26-D550B6F33EEB";
shapes = (
{
closed = 1;
nodes = (
(48,600,l),
(28,507,l),
(224,507,l),
(224,600,l)
);
},
{
closed = 1;
nodes = (
(130,0,l),
(224,0,l),
(224,600,l),
(130,600,l)
);
},
{
closed = 1;
nodes = (
(224,345,l),
(104,345,ls),
(49,345,o),
(10,305,o),
(10,252,cs),
(10,0,l),
(104,0,l),
(104,247,ls),
(104,251,o),
(105,252,o),
(109,252,cs),
(224,252,l)
);
}
);
width = 244;
},
{
anchors = (
{
name = bottom;
pos = (147,0);
},
{
name = center;
pos = (94,404);
},
{
name = top;
pos = (147,500);
},
{
name = topleft;
pos = (13,500);
}
);
layerId = "E6A807D2-02F5-45B7-9AC8-B5230FFEC057";
shapes = (
{
closed = 1;
nodes = (
(61,600,l),
(39,467,l),
(281,467,l),
(281,600,l)
);
},
{
closed = 1;
nodes = (
(157,0,l),
(281,0,l),
(281,600,l),
(157,600,l)
);
},
{
closed = 1;
nodes = (
(281,359,l),
(114,359,ls),
(58,359,o),
(20,322,o),
(20,266,cs),
(20,0,l),
(134,0,l),
(134,231,ls),
(134,235,o),
(135,236,o),
(139,236,cs),
(281,236,l)
);
}
);
width = 301;
},
{
anchors = (
{
name = bottom;
pos = (103,0);
},
{
name = center;
pos = (73,417);
},
{
name = top;
pos = (114,500);
},
{
name = topleft;
pos = (52,500);
}
);
layerId = "A98666DC-4638-42B6-8332-BBF4982DF0EF";
shapes = (
{
closed = 1;
nodes = (
(56,600,l),
(44,547,l),
(185,547,l),
(185,600,l)
);
},
{
closed = 1;
nodes = (
(132,0,l),
(185,0,l),
(185,600,l),
(132,600,l)
);
},
{
closed = 1;
nodes = (
(185,345,l),
(114,345,ls),
(52,345,o),
(20,315,o),
(20,257,cs),
(20,0,l),
(73,0,l),
(73,257,ls),
(73,277,o),
(79,292,o),
(99,292,cs),
(185,292,l)
);
}
);
width = 205;
}
);
note = gimelhebrew;
unicode = 1490;
},
{
glyphname = "dalet-hb";
lastChange = "2021-03-01 20:22:45 +0000";
layers = (
{
anchors = (
{
name = bottom;
pos = (206,0);
},
{
name = center;
pos = (90,300);
},
{
name = top;
pos = (317,600);
},
{
name = topleft;
pos = (56,600);
}
);
layerId = "83682BA5-5A7B-4081-8B26-D550B6F33EEB";
shapes = (
{
closed = 1;
nodes = (
(251,0,l),
(251,530,l),
(251,530,l),
(194,530,o),
(156,493,o),
(156,437,cs),
(156,0,l)
);
},
{
closed = 1;
nodes = (
(300,507,l),
(300,600,l),
(40,600,l),
(20,507,l)
);
}
);
width = 320;
},
{
anchors = (
{
name = bottom;
pos = (186,0);
},
{
name = center;
pos = (86,300);
},
{
name = top;
pos = (186,500);
},
{
name = topleft;
pos = (26,500);
}
);
layerId = "E6A807D2-02F5-45B7-9AC8-B5230FFEC057";
shapes = (
{
closed = 1;
nodes = (
(286,0,l),
(286,493,l),
(259,493,ls),
(194,493,o),
(150,450,o),
(150,386,cs),
(150,0,l)
);
},
{
closed = 1;
nodes = (
(346,467,l),
(346,600,l),
(42,600,l),
(20,467,l)
);
}
);
width = 366;
},
{
anchors = (
{
name = bottom;
pos = (146,0);
},
{
name = center;
pos = (91,290);
},
{
name = top;
pos = (146,500);
},
{
name = topleft;
pos = (11,500);
}
);
layerId = "A98666DC-4638-42B6-8332-BBF4982DF0EF";
shapes = (
{
closed = 1;
nodes = (
(230,0,l),
(230,563,l),
(231,563,l),
(196,563,o),
(177,531,o),
(177,470,c),
(177,0,l)
);
},
{
closed = 1;
nodes = (
(270,547,l),
(270,600,l),
(27,600,l),
(15,547,l)
);
}
);
width = 285;
}
);
note = dalethebrew;
unicode = 1491;
},
{
glyphname = "he-hb";
lastChange = "2021-03-01 20:56:37 +0000";
layers = (
{
anchors = (
{
name = bottom;
pos = (145,0);
},
{
name = center;
pos = (142,300);
},
{
name = top;
pos = (159,600);
},
{
name = topleft;
pos = (104,600);
}
);
layerId = "83682BA5-5A7B-4081-8B26-D550B6F33EEB";
shapes = (
{
closed = 1;
nodes = (
(263,0,l),
(263,600,l),
(168,600,l),
(168,0,l)
);
},
{
closed = 1;
nodes = (
(115,0,l),
(115,454,l),
(20,454,l),
(20,0,l)
);
},
{
closed = 1;
nodes = (
(263,507,l),
(263,600,l),
(40,600,l),
(20,507,l)
);
}
);
width = 283;
},
{
anchors = (
{
name = bottom;
pos = (184,0);
},
{
name = center;
pos = (178,300);
},
{
name = top;
pos = (184,500);
},
{
name = topleft;
pos = (31,500);
}
);
layerId = "E6A807D2-02F5-45B7-9AC8-B5230FFEC057";
shapes = (
{
closed = 1;
nodes = (
(346,0,l),
(346,600,l),
(210,600,l),
(210,0,l)
);
},
{
closed = 1;
nodes = (
(156,0,l),
(156,413,l),
(20,413,l),
(20,0,l)
);
},
{
closed = 1;
nodes = (
(346,467,l),
(346,600,l),
(42,600,l),
(20,467,l)
);
}
);
width = 366;
},
{
anchors = (
{
name = bottom;
pos = (123,0);
},
{
name = center;
pos = (123,290);
},
{
name = top;
pos = (123,500);
},
{
name = topleft;
pos = (18,500);
}
);
layerId = "A98666DC-4638-42B6-8332-BBF4982DF0EF";
shapes = (
{
closed = 1;
nodes = (
(228,0,l),
(228,600,l),
(174,600,l),
(174,0,l)
);
},
{
closed = 1;
nodes = (
(74,0,l),
(74,467,l),
(20,467,l),
(20,0,l)
);
},
{
closed = 1;
nodes = (
(228,547,l),
(228,600,l),
(34,600,l),
(22,547,l)
);
}
);
width = 248;
}
);
note = hehebrew;
unicode = 1492;
},
{
glyphname = "vav-hb";
lastChange = "2021-03-01 20:53:19 +0000";
layers = (
{
anchors = (
{
name = bottom;
pos = (91,0);
},
{
name = bottomleft;
pos = (16,0);
},
{
name = center;
pos = (9,300);
},
{
name = top;
pos = (40,600);
},
{
name = topleft;
pos = (104,600);
}
);
layerId = "83682BA5-5A7B-4081-8B26-D550B6F33EEB";
shapes = (
{
closed = 1;
nodes = (
(46,0,l),
(141,0,l),
(141,600,l),
(46,600,l)
);
},
{
closed = 1;
nodes = (
(30,600,l),
(10,507,l),
(141,507,l),
(141,600,l)
);
}
);
width = 161;
},
{
anchors = (
{
name = bottom;
pos = (99,0);
},
{
name = bottomleft;
pos = (16,0);
},
{
name = center;
pos = (14,300);
},
{
name = top;
pos = (109,500);
},
{
name = topleft;
pos = (30,500);
}
);
layerId = "E6A807D2-02F5-45B7-9AC8-B5230FFEC057";
shapes = (
{
closed = 1;
nodes = (
(61,0,l),
(197,0,l),
(197,600,l),
(61,600,l)
);
},
{
closed = 1;
nodes = (
(42,600,l),
(20,467,l),
(197,467,l),
(197,600,l)
);
}
);
width = 217;
},
{
anchors = (
{
name = bottom;
pos = (50,0);
},
{
name = bottomleft;
pos = (16,0);
},
{
name = center;
pos = (3,250);
},
{
name = top;
pos = (50,500);
},
{
name = topleft;
pos = (28,500);
}
);
layerId = "A98666DC-4638-42B6-8332-BBF4982DF0EF";
shapes = (
{
closed = 1;
nodes = (
(43,0,l),
(96,0,l),
(96,600,l),
(43,600,l)
);
},
{
closed = 1;
nodes = (
(27,600,l),
(15,547,l),
(96,547,l),
(96,600,l)
);
}
);
width = 116;
}
);
note = vavhebrew;
unicode = 1493;
},
{
glyphname = "zayin-hb";
lastChange = "2021-03-01 20:28:35 +0000";
layers = (
{
anchors = (
{
name = bottom;
pos = (108,0);
},
{
name = center;
pos = (23,300);
},
{
name = top;
pos = (190,600);
},
{
name = topleft;
pos = (-4,600);
}
);
layerId = "83682BA5-5A7B-4081-8B26-D550B6F33EEB";
shapes = (
{
closed = 1;
nodes = (
(58,530,l),
(58,0,l),
(154,0,l),
(154,437,ls),
(154,493,o),
(116,530,o),
(59,530,cs)
);
},
{
closed = 1;
nodes = (
(30,600,l),
(10,507,l),
(185,507,l),
(185,600,l)
);
}
);
visible = 1;
width = 205;
},
{
anchors = (
{
name = bottom;
pos = (73,0);
},
{
name = center;
pos = (8,250);
},
{
name = top;
pos = (73,500);
},
{
name = topleft;
pos = (24,500);
}
);
layerId = "A98666DC-4638-42B6-8332-BBF4982DF0EF";
shapes = (
{
closed = 1;
nodes = (
(51,563,l),
(51,0,l),
(106,0,l),
(106,470,l),
(106,531,o),
(87,563,o),
(52,563,cs)
);
},
{
closed = 1;
nodes = (
(27,600,l),
(15,547,l),
(137,547,l),
(137,600,l)
);
}
);
width = 157;
},
{
anchors = (
{
name = bottom;
pos = (121,0);
},
{
name = center;
pos = (23,300);
},
{
name = top;
pos = (121,500);
},
{
name = topleft;
pos = (16,500);
}
);
layerId = "E6A807D2-02F5-45B7-9AC8-B5230FFEC057";
shapes = (
{
closed = 1;
nodes = (
(55,493,l),
(55,0,l),
(191,0,l),
(191,386,l),
(191,450,o),
(147,493,o),
(82,493,cs)
);
},
{
closed = 1;
nodes = (
(32,600,l),
(10,467,l),
(208,467,l),
(208,600,l)
);
}
);
width = 228;
}
);
note = zayinhebrew;
unicode = 1494;
},
{
glyphname = "het-hb";
lastChange = "2021-03-01 20:41:58 +0000";
layers = (
{
anchors = (
{
name = bottom;
pos = (169,0);
},
{
name = center;
pos = (168,300);
},
{
name = top;
pos = (269,600);
},
{
name = topleft;
pos = (-49,600);
}
);
layerId = "83682BA5-5A7B-4081-8B26-D550B6F33EEB";
shapes = (
{
closed = 1;
nodes = (
(198,0,l),
(293,0,l),
(293,600,l),
(198,600,l)
);
},
{
closed = 1;
nodes = (
(43,0,l),
(138,0,l),
(138,600,l),
(43,600,l)
);
},
{
closed = 1;
nodes = (
(35,600,l),
(15,507,l),
(293,507,l),
(293,600,l)
);
}
);
width = 313;
},
{
anchors = (
{
name = bottom;
pos = (131,0);
},
{
name = center;
pos = (130,290);
},
{
name = top;
pos = (121,500);
},
{
name = topleft;
pos = (6,500);
}
);
layerId = "A98666DC-4638-42B6-8332-BBF4982DF0EF";
shapes = (
{
closed = 1;
nodes = (
(182,0,l),
(236,0,l),
(236,600,l),
(182,600,l)
);
},
{
closed = 1;
nodes = (
(27,600,l),
(15,547,l),
(236,547,l),
(236,600,l)
);
},
{
closed = 1;
nodes = (
(35,0,l),
(89,0,l),
(89,600,l),
(35,600,l)
);
}
);
width = 256;
},
{
anchors = (
{
name = bottom;
pos = (207,0);
},
{
name = center;
pos = (211,300);
},
{
name = top;
pos = (190,500);
},
{
name = topleft;
pos = (12,500);
}
);
layerId = "E6A807D2-02F5-45B7-9AC8-B5230FFEC057";
shapes = (
{
closed = 1;
nodes = (
(231,0,l),
(367,0,l),
(367,600,l),
(231,600,l)
);
},
{
closed = 1;
nodes = (
(47,0,l),
(183,0,l),
(183,600,l),
(47,600,l)
);
},
{
closed = 1;
nodes = (
(42,600,l),
(20,467,l),
(367,467,l),
(367,600,l)
);
}
);
width = 387;
}
);
note = hethebrew;
unicode = 1495;
},
{
glyphname = "tet-hb";
lastChange = "2021-03-01 20:33:33 +0000";
layers = (
{
anchors = (
{
name = bottom;
pos = (177,0);
},
{
name = center;
pos = (170,300);
},
{
name = top;
pos = (250,600);
},
{
name = topleft;
pos = (-82,600);
}
);
layerId = "83682BA5-5A7B-4081-8B26-D550B6F33EEB";
shapes = (
{
closed = 1;
nodes = (
(34,0,l),
(129,0,l),
(129,600,l),
(34,600,l)
);
},
{
closed = 1;
nodes = (
(30,600,l),
(10,507,l),
(129,507,l),
(129,600,l)
);
},
{
closed = 1;
nodes = (
(174,600,l),
(154,507,l),
(306,507,l),
(306,600,l)
);
},
{
closed = 1;
nodes = (
(306,600,l),
(211,600,l),
(211,98,ls),
(211,94,o),
(210,93,o),
(206,93,cs),
(34,93,l),
(34,0,l),
(212,0,ls),
(268,0,o),
(306,37,o),
(306,93,cs)
);
}
);
width = 326;
},
{
anchors = (
{
name = bottom;
pos = (141,0);
},
{
name = center;
pos = (132,290);
},
{
name = top;
pos = (122,500);
},
{
name = topleft;
pos = (9,500);
}
);
layerId = "A98666DC-4638-42B6-8332-BBF4982DF0EF";
shapes = (
{
closed = 1;
nodes = (
(29,0,l),
(82,0,l),
(82,600,l),
(29,600,l)
);
},
{
closed = 1;
nodes = (
(27,600,l),
(15,547,l),
(82,547,l),
(82,600,l)
);
},
{
closed = 1;
nodes = (
(148,600,l),
(136,547,l),
(245,547,l),
(245,600,l)
);
},
{
closed = 1;
nodes = (
(245,600,l),
(192,600,l),
(192,88,ls),
(192,65,o),
(183,53,o),
(166,53,cs),
(29,53,l),
(29,0,l),
(151,0,ls),
(213,0,o),
(245,30,o),
(245,88,cs)
);
}
);
width = 265;
},
{
anchors = (
{
name = bottom;
pos = (199,0);
},
{
name = center;
pos = (210,300);
},
{
name = top;
pos = (199,500);
},
{
name = topleft;
pos = (16,500);
}
);
layerId = "E6A807D2-02F5-45B7-9AC8-B5230FFEC057";
shapes = (
{
closed = 1;
nodes = (
(46,0,l),
(182,0,l),
(182,600,l),
(46,600,l)
);
},
{
closed = 1;
nodes = (
(42,600,l),
(20,467,l),
(182,467,l),
(182,600,l)
);
},
{
closed = 1;
nodes = (
(224,600,l),
(202,467,l),
(381,467,l),
(381,600,l)
);
},
{
closed = 1;
nodes = (
(381,600,l),
(245,600,l),
(245,138,ls),
(245,134,o),
(244,133,o),
(240,133,cs),
(46,133,l),
(46,0,l),
(287,0,ls),
(343,0,o),
(381,37,o),
(381,93,cs)
);
}
);
width = 401;
}
);
note = tethebrew;
unicode = 1496;
},
{
glyphname = "yod-hb";
lastChange = "2021-03-01 20:07:50 +0000";
layers = (
{
anchors = (
{
name = bottom;
pos = (83,0);
},
{
name = center;
pos = (18,379);
},
{
name = top;
pos = (93,600);
},
{
name = topleft;
pos = (94,600);
}
);
layerId = "83682BA5-5A7B-4081-8B26-D550B6F33EEB";
shapes = (
{
closed = 1;
nodes = (
(141,220,l),
(141,600,l),
(46,600,l),
(46,220,l)
);
},
{
closed = 1;
nodes = (
(141,507,l),
(141,600,l),
(30,600,l),
(10,507,l)
);
}
);
width = 161;
},
{
anchors = (
{
name = bottom;
pos = (50,0);
},
{
name = center;
pos = (12,415);
},
{
name = top;
pos = (50,500);
},
{
name = topleft;
pos = (3,500);
}
);
layerId = "A98666DC-4638-42B6-8332-BBF4982DF0EF";
shapes = (
{
closed = 1;
nodes = (
(96,220,l),
(96,600,l),
(43,600,l),
(43,220,l)
);
},
{
closed = 1;
nodes = (
(96,547,l),
(96,600,l),
(27,600,l),
(15,547,l)
);
}
);
width = 116;
},
{
anchors = (
{
name = bottom;
pos = (117,0);
},
{
name = center;
pos = (36,372);
},
{
name = top;
pos = (125,500);
},
{
name = topleft;
pos = (68,500);
}
);
layerId = "E6A807D2-02F5-45B7-9AC8-B5230FFEC057";
shapes = (
{
closed = 1;
nodes = (
(197,220,l),
(197,600,l),
(61,600,l),
(61,220,l)
);
},
{
closed = 1;
nodes = (
(197,467,l),
(197,600,l),
(42,600,l),
(20,467,l)
);
}
);
width = 217;
}
);
note = yodhebrew;
unicode = 1497;
},
{
glyphname = "finalkaf-hb";
lastChange = "2021-02-19 17:42:32 +0000";
layers = (
{
anchors = (
{
name = bottom;
pos = (89,300);
},
{
name = center;
pos = (82,362);
},
{
name = top;
pos = (152,600);
},
{
name = topleft;
pos = (-57,600);
}
);
layerId = "83682BA5-5A7B-4081-8B26-D550B6F33EEB";
shapes = (
{
closed = 1;
nodes = (
(164,-80,l),
(259,-80,l),
(259,600,l),
(164,600,l)
);
},
{
closed = 1;
nodes = (
(40,600,l),
(20,507,l),
(259,507,l),
(259,600,l)
);
}
);
width = 279;
},
{
anchors = (
{
name = bottom;
pos = (100,314);
},
{
name = center;
pos = (100,140);
},
{
name = top;
pos = (153,500);
},
{
name = topleft;
pos = (20,500);
}
);
layerId = "E6A807D2-02F5-45B7-9AC8-B5230FFEC057";
shapes = (
{
closed = 1;
nodes = (
(165,-100,l),
(285,-100,l),
(285,600,l),
(165,600,l)
);
},
{
closed = 1;
nodes = (
(46,600,l),
(20,467,l),
(285,467,l),
(285,600,l)
);
}
);
width = 305;
},
{
anchors = (
{
name = bottom;
pos = (96,288);
},
{
name = center;
pos = (96,290);
},
{
name = top;
pos = (121,500);
},
{
name = topleft;
pos = (16,500);
}
);
layerId = "A98666DC-4638-42B6-8332-BBF4982DF0EF";
shapes = (
{
closed = 1;
nodes = (
(173,-80,l),
(226,-80,l),
(226,600,l),
(173,600,l)
);
},
{
closed = 1;
nodes = (
(32,600,l),
(20,547,l),
(226,547,l),
(226,600,l)
);
}
);
width = 246;
}
);
note = finalkafhebrew;
unicode = 1498;
},
{
glyphname = "kaf-hb";
lastChange = "2021-03-01 20:55:09 +0000";
layers = (
{
anchors = (
{
name = bottom;
pos = (155,0);
},
{
name = center;
pos = (83,300);
},
{
name = top;
pos = (147,600);
},
{
name = topleft;
pos = (-39,600);
}
);
layerId = "83682BA5-5A7B-4081-8B26-D550B6F33EEB";
shapes = (
{
closed = 1;
nodes = (
(153,0,ls),
(209,0,o),
(247,37,o),
(247,93,cs),
(247,600,l),
(152,600,l),
(152,98,ls),
(152,94,o),
(151,93,o),
(147,93,cs),
(20,93,l),
(20,0,l)
);
},
{
closed = 1;
nodes = (
(247,507,l),
(247,600,l),
(40,600,l),
(20,507,l)
);
}
);
width = 267;
},
{
anchors = (
{
name = bottom;
pos = (134,0);
},
{
name = center;
pos = (100,290);
},
{
name = top;
pos = (134,500);
},
{
name = topleft;
pos = (20,500);
}
);
layerId = "A98666DC-4638-42B6-8332-BBF4982DF0EF";
shapes = (
{
closed = 1;
nodes = (
(153,0,ls),
(215,0,o),
(247,30,o),
(247,88,cs),
(247,600,l),
(194,600,l),
(194,88,ls),
(194,64,o),
(185,53,o),
(168,53,cs),
(20,53,l),
(20,0,l)
);
},
{
closed = 1;
nodes = (
(247,547,l),
(247,600,l),
(36,600,l),
(24,547,l)
);
}
);
width = 267;
},
{
anchors = (
{
name = bottom;
pos = (168,0);
},
{
name = center;
pos = (80,300);
},
{
name = top;
pos = (168,500);
},
{
name = topleft;
pos = (20,500);
}
);
layerId = "E6A807D2-02F5-45B7-9AC8-B5230FFEC057";
shapes = (
{
closed = 1;
nodes = (
(221,0,ls),
(277,0,o),
(315,37,o),
(315,93,cs),
(315,600,l),
(179,600,l),
(179,138,ls),
(179,134,o),
(178,133,o),
(174,133,cs),
(20,133,l),
(20,0,l)
);
},
{
closed = 1;
nodes = (
(315,467,l),
(315,600,l),
(42,600,l),
(20,467,l)
);
}
);
width = 335;
}
);
note = kafhebrew;
unicode = 1499;
},
{
glyphname = "lamed-hb";
lastChange = "2021-03-01 20:52:09 +0000";
layers = (
{
anchors = (
{
name = bottom;
pos = (122,0);
},
{
name = center;
pos = (70,300);
},
{
name = top;
pos = (141,600);
},
{
name = topleft;
pos = (-10,591);
}
);
layerId = "83682BA5-5A7B-4081-8B26-D550B6F33EEB";
shapes = (
{
closed = 1;
nodes = (
(10,597,l),
(10,504,l),
(237,504,l),
(237,597,l)
);
},
{
closed = 1;
nodes = (
(10,504,l),
(104,504,l),
(104,654,l),
(10,654,l)
);
},
{
closed = 1;
nodes = (
(142,597,l),
(142,231,ls),
(142,209,o),
(139,194,o),
(129,165,cs),
(69,0,l),
(164,0,l),
(224,165,ls),
(234,193,o),
(237,206,o),
(237,231,cs),
(237,597,l)
);
}
);
width = 257;
},
{
anchors = (
{
name = bottom;
pos = (110,0);
},
{
name = center;
pos = (100,290);
},
{
name = top;
pos = (150,519);
},
{
name = topleft;
pos = (-9,547);
}
);
layerId = "A98666DC-4638-42B6-8332-BBF4982DF0EF";
shapes = (
{
closed = 1;
nodes = (
(20,600,l),
(20,547,l),
(214,547,l),
(214,600,l)
);
},
{
closed = 1;
nodes = (
(20,547,l),
(74,547,l),
(74,659,l),
(20,659,l)
);
},
{
closed = 1;
nodes = (
(110,0,l),
(204,219,ls),
(212,237,o),
(214,247,o),
(214,267,cs),
(214,600,l),
(160,600,l),
(160,267,ls),
(160,248,o),
(158,238,o),
(150,219,cs),
(56,0,l)
);
}
);
width = 234;
},
{
anchors = (
{
name = bottom;
pos = (178,0);
},
{
name = center;
pos = (90,300);
},
{
name = top;
pos = (187,540);
},
{
name = topleft;
pos = (-67,547);
}
);
layerId = "E6A807D2-02F5-45B7-9AC8-B5230FFEC057";
shapes = (
{
closed = 1;
nodes = (
(20,600,l),
(20,467,l),
(325,467,l),
(325,600,l)
);
},
{
closed = 1;
nodes = (
(20,467,l),
(156,467,l),
(156,657,l),
(20,657,l)
);
},
{
closed = 1;
nodes = (
(189,600,l),
(189,240,ls),
(189,234,o),
(187,224,o),
(185,218,cs),
(107,0,l),
(243,0,l),
(320,218,ls),
(323,227,o),
(325,237,o),
(325,240,cs),
(325,600,l)
);
}
);
width = 345;
},
{
anchors = (
{
name = bottom;
pos = (178,0);
},
{
name = center;
pos = (90,300);
},
{
name = top;
pos = (187,540);
},
{
name = topleft;
pos = (-67,547);
}
);
associatedMasterId = "E6A807D2-02F5-45B7-9AC8-B5230FFEC057";
layerId = "2535F843-A031-43DE-9329-E2C29E1E8916";
name = "19 Feb 21, 22:17";
shapes = (
{
closed = 1;
nodes = (
(20,600,l),
(20,467,l),
(325,467,l),
(325,600,l)
);
},
{
closed = 1;
nodes = (
(20,467,l),
(156,467,l),
(156,657,l),
(20,657,l)
);
},
{
closed = 1;
nodes = (
(189,230,l),
(107,0,l),
(243,0,l),
(325,230,l),
(325,600,l),
(189,600,l)
);
}
);
width = 345;
}
);
note = lamedhebrew;
unicode = 1500;
},
{
glyphname = "finalmem-hb";
lastChange = "2021-03-01 19:47:44 +0000";
layers = (
{
layerId = "83682BA5-5A7B-4081-8B26-D550B6F33EEB";
shapes = (
{
closed = 1;
nodes = (
(194,0,l),
(289,0,l),
(289,600,l),
(194,600,l)
);
},
{
closed = 1;
nodes = (
(43,0,l),
(138,0,l),
(138,600,l),
(43,600,l)
);
},
{
closed = 1;
nodes = (
(35,600,l),
(15,507,l),
(289,507,l),
(289,600,l)
);
},
{
closed = 1;
nodes = (
(43,93,l),
(43,0,l),
(289,0,l),
(289,93,l)
);
}
);
width = 309;
},
{
layerId = "E6A807D2-02F5-45B7-9AC8-B5230FFEC057";
shapes = (
{
closed = 1;
nodes = (
(370,0,l),
(370,600,l),
(250,600,l),
(250,0,l)
);
},
{
closed = 1;
nodes = (
(171,0,l),
(171,600,l),
(51,600,l),
(51,0,l)
);
},
{
closed = 1;
nodes = (
(370,467,l),
(370,600,l),
(46,600,l),
(20,467,l)
);
},
{
closed = 1;
nodes = (
(370,0,l),
(370,133,l),
(51,133,l),
(51,0,l)
);
}
);
width = 390;
},
{
layerId = "A98666DC-4638-42B6-8332-BBF4982DF0EF";
shapes = (
{
closed = 1;
nodes = (
(221,0,l),
(275,0,l),
(275,600,l),
(221,600,l)
);
},
{
closed = 1;
nodes = (
(40,0,l),
(94,0,l),
(94,600,l),
(40,600,l)
);
},
{
closed = 1;
nodes = (
(32,600,l),
(20,547,l),
(245,547,l),
(245,600,l)
);
},
{
closed = 1;
nodes = (
(40,53,l),
(40,0,l),
(275,0,l),
(275,53,l)
);
}
);
width = 295;
}
);
note = finalmemhebrew;
unicode = 1501;
},
{
glyphname = "mem-hb";
lastChange = "2021-03-01 20:52:14 +0000";
layers = (
{
anchors = (
{
name = bottom;
pos = (139,0);
},
{
name = center;
pos = (146,290);
},
{
name = top;
pos = (130,500);
},
{
name = topleft;
pos = (3,500);
}
);
layerId = "A98666DC-4638-42B6-8332-BBF4982DF0EF";
shapes = (
{
closed = 1;
nodes = (
(270,0,l),
(270,507,ls),
(270,561,o),
(230,600,o),
(169,600,cs),
(126,600,l),
(78,547,l),
(187,547,ls),
(211,547,o),
(217,541,o),
(217,517,c),
(217,0,l)
);
},
{
closed = 1;
nodes = (
(270,0,l),
(270,53,l),
(155,53,l),
(155,0,l)
);
},
{
closed = 1;
nodes = (
(97,0,l),
(97,600,l),
(43,600,l),
(43,0,l)
);
},
{
closed = 1;
nodes = (
(97,547,l),
(97,600,l),
(27,600,l),
(15,547,l)
);
}
);
width = 290;
},
{
anchors = (
{
name = bottom;
pos = (195,0);
},
{
name = center;
pos = (210,300);
},
{
name = top;
pos = (195,500);
},
{
name = topleft;
pos = (0,500);
}
);
layerId = "E6A807D2-02F5-45B7-9AC8-B5230FFEC057";
shapes = (
{
closed = 1;
nodes = (
(377,0,l),
(377,457,ls),
(377,559,o),
(336,600,o),
(233,600,cs),
(214,600,l),
(124,467,l),
(236,467,ls),
(240,467,o),
(241,466,o),
(241,462,cs),
(241,0,l)
);
},
{
closed = 1;
nodes = (
(377,0,l),
(377,133,l),
(209,133,l),
(209,0,l)
);
},
{
closed = 1;
nodes = (
(178,0,l),
(178,600,l),
(42,600,l),
(42,0,l)
);
},
{
closed = 1;
nodes = (
(178,467,l),
(178,600,l),
(30,600,l),
(20,467,l)
);
}
);
width = 397;
},
{
anchors = (
{
name = bottom;
pos = (168,-2);
},
{
name = center;
pos = (177,300);
},
{
name = top;
pos = (174,600);
},
{
name = topleft;
pos = (-282,600);
}
);
layerId = "83682BA5-5A7B-4081-8B26-D550B6F33EEB";
shapes = (
{
closed = 1;
nodes = (
(316,0,l),
(316,507,ls),
(316,561,o),
(276,600,o),
(215,600,cs),
(170,600,l),
(110,507,l),
(216,507,ls),
(220,507,o),
(221,506,o),
(221,502,cs),
(221,0,l)
);
},
{
closed = 1;
nodes = (
(316,0,l),
(316,93,l),
(183,93,l),
(183,0,l)
);
},
{
closed = 1;
nodes = (
(144,0,l),
(144,600,l),
(49,600,l),
(49,0,l)
);
},
{
closed = 1;
nodes = (
(144,507,l),
(144,600,l),
(35,600,l),
(15,507,l)
);
}
);
width = 336;
}
);
note = memhebrew;
unicode = 1502;
},
{
glyphname = "finalnun-hb";
lastChange = "2021-02-19 11:53:42 +0000";
layers = (
{
layerId = "83682BA5-5A7B-4081-8B26-D550B6F33EEB";
shapes = (
{
closed = 1;
nodes = (
(56,-80,l),
(151,-80,l),
(151,600,l),
(56,600,l)
);
},
{
closed = 1;
nodes = (
(40,600,l),
(20,507,l),
(151,507,l),
(151,600,l)
);
}
);
width = 171;
},
{
layerId = "E6A807D2-02F5-45B7-9AC8-B5230FFEC057";
shapes = (
{
closed = 1;
nodes = (
(197,-100,l),
(197,600,l),
(61,600,l),
(61,-100,l)
);
},
{
closed = 1;
nodes = (
(197,467,l),
(197,600,l),
(42,600,l),
(20,467,l)
);
}
);
width = 217;
},
{
layerId = "A98666DC-4638-42B6-8332-BBF4982DF0EF";
shapes = (
{
closed = 1;
nodes = (
(43,-80,l),
(96,-80,l),
(96,600,l),
(43,600,l)
);
},
{
closed = 1;
nodes = (
(27,600,l),
(15,547,l),
(77,547,l),
(77,600,l)
);
}
);
width = 116;
}
);
note = finalnunhebrew;
unicode = 1503;
},
{
glyphname = "nun-hb";
lastChange = "2021-03-01 20:55:58 +0000";
layers = (
{
anchors = (
{
name = bottom;
pos = (81,0);
},
{
name = bottomleft;
pos = (10,0);
},
{
name = center;
pos = (20,300);
},
{
name = top;
pos = (86,600);
},
{
name = topleft;
pos = (45,600);
}
);
layerId = "83682BA5-5A7B-4081-8B26-D550B6F33EEB";
shapes = (
{
closed = 1;
nodes = (
(10,93,l),
(10,0,l),
(154,0,l),
(154,93,l)
);
},
{
closed = 1;
nodes = (
(59,0,l),
(154,0,l),
(154,600,l),
(59,600,l)
);
},
{
closed = 1;
nodes = (
(43,600,l),
(23,507,l),
(154,507,l),
(154,600,l)
);
}
);
width = 174;
},
{
anchors = (
{
name = bottom;
pos = (63,0);
},
{
name = bottomleft;
pos = (15,0);
},
{
name = center;
pos = (36,290);
},
{
name = top;
pos = (62,500);
},
{
name = topleft;
pos = (10,500);
}
);
layerId = "A98666DC-4638-42B6-8332-BBF4982DF0EF";
shapes = (
{
closed = 1;
nodes = (
(60,0,l),
(113,0,l),
(113,600,l),
(60,600,l)
);
},
{
closed = 1;
nodes = (
(44,600,l),
(32,547,l),
(94,547,l),
(94,600,l)
);
},
{
closed = 1;
nodes = (
(15,53,l),
(15,0,l),
(113,0,l),
(113,53,l)
);
}
);
width = 133;
},
{
anchors = (
{
name = bottom;
pos = (125,0);
},
{
name = bottomleft;
pos = (42,0);
},
{
name = center;
pos = (42,300);
},
{
name = top;
pos = (133,497);
},
{
name = topleft;
pos = (21,500);
}
);
layerId = "E6A807D2-02F5-45B7-9AC8-B5230FFEC057";
shapes = (
{
closed = 1;
nodes = (
(207,0,l),
(207,600,l),
(71,600,l),
(71,0,l)
);
},
{
closed = 1;
nodes = (
(207,0,l),
(207,133,l),
(20,133,l),
(20,0,l)
);
},
{
closed = 1;
nodes = (
(207,467,l),
(207,600,l),
(52,600,l),
(30,467,l)
);
}
);
width = 227;
}
);
note = nunhebrew;
unicode = 1504;
},
{
glyphname = "samekh-hb";
lastChange = "2021-03-01 20:46:45 +0000";
layers = (
{
anchors = (
{
name = bottom;
pos = (168,0);
},
{
name = center;
pos = (171,300);
},
{
name = top;
pos = (161,600);
},
{
name = topleft;
pos = (-30,600);
}
);
layerId = "83682BA5-5A7B-4081-8B26-D550B6F33EEB";
shapes = (
{
closed = 1;
nodes = (
(204,0,ls),
(262,0,o),
(300,37,o),
(300,93,cs),
(300,600,l),
(205,600,l),
(205,98,ls),
(205,94,o),
(204,93,o),
(200,93,cs),
(43,93,l),
(43,0,l)
);
},
{
closed = 1;
nodes = (
(35,600,l),
(15,507,l),
(300,507,l),
(300,600,l)
);
},
{
closed = 1;
nodes = (
(43,0,l),
(138,0,l),
(138,600,l),
(43,600,l)
);
}
);
width = 320;
},
{
anchors = (
{
name = bottom;
pos = (150,0);
},
{
name = center;
pos = (154,290);
},
{
name = top;
pos = (135,500);
},
{
name = topleft;
pos = (0,500);
}
);
layerId = "A98666DC-4638-42B6-8332-BBF4982DF0EF";
shapes = (
{
closed = 1;
nodes = (
(176,0,ls),
(238,0,o),
(270,30,o),
(270,88,cs),
(270,600,l),
(217,600,l),
(217,88,ls),
(217,65,o),
(208,53,o),
(191,53,cs),
(35,53,l),
(35,0,l)
);
},
{
closed = 1;
nodes = (
(27,600,l),
(15,547,l),
(270,547,l),
(270,600,l)
);
},
{
closed = 1;
nodes = (
(35,0,l),
(89,0,l),
(89,600,l),
(35,600,l)
);
}
);
width = 290;
},
{
anchors = (
{
name = bottom;
pos = (203,0);
},
{
name = center;
pos = (216,300);
},
{
name = top;
pos = (213,500);
},
{
name = topleft;
pos = (6,500);
}
);
layerId = "E6A807D2-02F5-45B7-9AC8-B5230FFEC057";
shapes = (
{
closed = 1;
nodes = (
(290,0,ls),
(346,0,o),
(384,37,o),
(384,93,cs),
(384,600,l),
(248,600,l),
(248,138,ls),
(248,134,o),
(247,133,o),
(243,133,cs),
(47,133,l),
(47,0,l)
);
},
{
closed = 1;
nodes = (
(42,600,l),
(20,467,l),
(384,467,l),
(384,600,l)
);
},
{
closed = 1;
nodes = (
(47,0,l),
(183,0,l),
(183,600,l),
(47,600,l)
);
}
);
width = 404;
}
);
note = samekhhebrew;
unicode = 1505;
},
{
glyphname = "ayin-hb";
lastChange = "2021-03-01 20:56:08 +0000";
layers = (
{
anchors = (
{
name = bottom;
pos = (169,0);
},
{
name = center;
pos = (176,300);
},
{
name = top;
pos = (170,600);
},
{
name = topleft;
pos = (53,600);
}
);
layerId = "83682BA5-5A7B-4081-8B26-D550B6F33EEB";
shapes = (
{
closed = 1;
nodes = (
(304,600,l),
(209,600,l),
(209,98,ls),
(209,94,o),
(208,93,o),
(204,93,cs),
(10,93,l),
(10,0,l),
(210,0,ls),
(265,0,o),
(304,39,o),
(304,93,cs)
);
},
{
closed = 1;
nodes = (
(52,0,l),
(147,0,l),
(147,600,l),
(52,600,l)
);
},
{
closed = 1;
nodes = (
(40,600,l),
(20,507,l),
(147,507,l),
(147,600,l)
);
},
{
closed = 1;
nodes = (
(195,600,l),
(175,507,l),
(304,507,l),
(304,600,l)
);
}
);
width = 324;
},
{
anchors = (
{
name = bottom;
pos = (126,0);
},
{
name = center;
pos = (161,290);
},
{
name = top;
pos = (134,500);
},
{
name = topleft;
pos = (-19,500);
}
);
layerId = "A98666DC-4638-42B6-8332-BBF4982DF0EF";
shapes = (
{
closed = 1;
nodes = (
(248,600,l),
(195,600,l),
(195,88,ls),
(195,65,o),
(186,53,o),
(169,53,cs),
(15,53,l),
(15,0,l),
(154,0,ls),
(216,0,o),
(248,30,o),
(248,88,cs)
);
},
{
closed = 1;
nodes = (
(63,0,l),
(116,0,l),
(116,600,l),
(63,600,l)
);
},
{
closed = 1;
nodes = (
(51,600,l),
(35,547,l),
(116,547,l),
(116,600,l)
);
},
{
closed = 1;
nodes = (
(181,600,l),
(165,547,l),
(248,547,l),
(248,600,l)
);
}
);
width = 268;
},
{
anchors = (
{
name = bottom;
pos = (200,0);
},
{
name = center;
pos = (220,300);
},
{
name = top;
pos = (220,500);
},
{
name = topleft;
pos = (19,500);
}
);
layerId = "E6A807D2-02F5-45B7-9AC8-B5230FFEC057";
shapes = (
{
closed = 1;
nodes = (
(397,600,l),
(261,600,l),
(261,138,ls),
(261,134,o),
(260,133,o),
(256,133,cs),
(20,133,l),
(20,0,l),
(303,0,ls),
(359,0,o),
(397,37,o),
(397,93,cs)
);
},
{
closed = 1;
nodes = (
(70,0,l),
(206,0,l),
(206,600,l),
(70,600,l)
);
},
{
closed = 1;
nodes = (
(58,600,l),
(36,467,l),
(206,467,l),
(206,600,l)
);
},
{
closed = 1;
nodes = (
(246,600,l),
(224,467,l),
(397,467,l),
(397,600,l)
);
}
);
width = 417;
}
);
note = ayinhebrew;
unicode = 1506;
},
{
glyphname = "finalpe-hb";
lastChange = "2021-02-19 11:53:42 +0000";
layers = (
{
anchors = (
{
name = bottom;
pos = (151,0);
},
{
name = bottomleft;
pos = (6,0);
},
{
name = center;
pos = (106,140);
},
{
name = top;
pos = (164,600);
},
{
name = topleft;
pos = (48,600);
}
);
layerId = "83682BA5-5A7B-4081-8B26-D550B6F33EEB";
shapes = (
{
closed = 1;
nodes = (
(48,206,l),
(164,206,l),
(172,299,l),
(48,299,l)
);
},
{
closed = 1;
nodes = (
(200,-80,l),
(295,-80,l),
(295,600,l),
(200,600,l)
);
},
{
closed = 1;
nodes = (
(48,206,l),
(143,206,l),
(143,600,l),
(48,600,l)
);
},
{
closed = 1;
nodes = (
(40,600,l),
(20,507,l),
(295,507,l),
(295,600,l)
);
}
);
width = 315;
},
{
anchors = (
{
name = bottom;
pos = (95,189);
},
{
name = bottomleft;
pos = (6,0);
},
{
name = center;
pos = (126,140);
},
{
name = top;
pos = (190,500);
},
{
name = topleft;
pos = (6,500);
}
);
layerId = "E6A807D2-02F5-45B7-9AC8-B5230FFEC057";
shapes = (
{
closed = 1;
nodes = (
(382,-100,l),
(382,600,l),
(246,600,l),
(246,-100,l)
);
},
{
closed = 1;
nodes = (
(214,210,l),
(222,343,l),
(47,343,l),
(47,210,l)
);
},
{
closed = 1;
nodes = (
(183,210,l),
(183,600,l),
(47,600,l),
(47,210,l)
);
},
{
closed = 1;
nodes = (
(382,467,l),
(382,600,l),
(42,600,l),
(20,467,l)
);
}
);
width = 402;
},
{
anchors = (
{
name = bottom;
pos = (35,220);
},
{
name = bottomleft;
pos = (5,0);
},
{
name = center;
pos = (85,290);
},
{
name = top;
pos = (127,500);
},
{
name = topleft;
pos = (5,500);
}
);
layerId = "A98666DC-4638-42B6-8332-BBF4982DF0EF";
shapes = (
{
closed = 1;
nodes = (
(27,600,l),
(15,547,l),
(248,547,l),
(248,600,l)
);
},
{
closed = 1;
nodes = (
(35,220,l),
(88,220,l),
(88,600,l),
(35,600,l)
);
},
{
closed = 1;
nodes = (
(195,-80,l),
(248,-80,l),
(248,600,l),
(195,600,l)
);
},
{
closed = 1;
nodes = (
(132,220,l),
(138,273,l),
(35,273,l),
(35,220,l)
);
}
);
width = 268;
}
);
note = finalpehebrew;
unicode = 1507;
},
{
glyphname = "pe-hb";
lastChange = "2021-03-01 20:50:23 +0000";
layers = (
{
anchors = (
{
name = bottom;
pos = (116,0);
},
{
name = center;
pos = (104,135);
},
{
name = top;
pos = (116,500);
},
{
name = topleft;
pos = (-16,500);
}
);
layerId = "A98666DC-4638-42B6-8332-BBF4982DF0EF";
shapes = (
{
closed = 1;
nodes = (
(153,0,ls),
(215,0,o),
(247,30,o),
(247,88,cs),
(247,600,l),
(194,600,l),
(194,88,ls),
(194,65,o),
(185,53,o),
(168,53,cs),
(15,53,l),
(15,0,l)
);
},
{
closed = 1;
nodes = (
(34,220,l),
(87,220,l),
(87,600,l),
(34,600,l)
);
},
{
closed = 1;
nodes = (
(26,600,l),
(15,547,l),
(247,547,l),
(247,600,l)
);
},
{
closed = 1;
nodes = (
(131,220,l),
(137,273,l),
(34,273,l),
(34,220,l)
);
}
);
width = 267;
},
{
anchors = (
{
name = bottom;
pos = (226,0);
},
{
name = center;
pos = (160,171);
},
{
name = top;
pos = (226,500);
},
{
name = topleft;
pos = (42,500);
}
);
layerId = "E6A807D2-02F5-45B7-9AC8-B5230FFEC057";
shapes = (
{
closed = 1;
nodes = (
(288,0,ls),
(344,0,o),
(382,37,o),
(382,93,cs),
(382,600,l),
(246,600,l),
(246,138,ls),
(246,134,o),
(245,133,o),
(241,133,cs),
(47,133,l),
(47,0,l)
);
},
{
closed = 1;
nodes = (
(47,210,l),
(183,210,l),
(183,600,l),
(47,600,l)
);
},
{
closed = 1;
nodes = (
(42,600,l),
(20,467,l),
(382,467,l),
(382,600,l)
);
},
{
closed = 1;
nodes = (
(214,210,l),
(222,343,l),
(47,343,l),
(47,210,l)
);
}
);
width = 402;
},
{
anchors = (
{
name = bottom;
pos = (156,0);
},
{
name = center;
pos = (112,151);
},
{
name = top;
pos = (167,600);
},
{
name = topleft;
pos = (-24,600);
}
);
layerId = "83682BA5-5A7B-4081-8B26-D550B6F33EEB";
shapes = (
{
closed = 1;
nodes = (
(196,0,ls),
(252,0,o),
(290,37,o),
(290,93,cs),
(290,600,l),
(195,600,l),
(195,98,ls),
(195,94,o),
(194,93,o),
(190,93,cs),
(33,93,l),
(33,0,l)
);
},
{
closed = 1;
nodes = (
(43,299,l),
(138,299,l),
(138,600,l),
(43,600,l)
);
},
{
closed = 1;
nodes = (
(35,600,l),
(15,507,l),
(290,507,l),
(290,600,l)
);
},
{
closed = 1;
nodes = (
(159,206,l),
(167,299,l),
(43,299,l),
(43,206,l)
);
}
);
width = 310;
}
);
note = pehebrew;
unicode = 1508;
},
{
glyphname = "finaltsadi-hb";
lastChange = "2021-03-01 19:42:13 +0000";
layers = (
{
anchors = (
{
name = bottom;
pos = (145,0);
},
{
name = bottomleft;
pos = (1,0);
},
{
name = center;
pos = (145,275);
},
{
name = top;
pos = (158,600);
},
{
name = topleft;
pos = (43,600);
}
);
layerId = "83682BA5-5A7B-4081-8B26-D550B6F33EEB";
shapes = (
{
closed = 1;
nodes = (
(43,-80,l),
(138,-80,l),
(138,600,l),
(43,600,l)
);
},
{
closed = 1;
nodes = (
(182,213,ls),
(238,213,o),
(276,250,o),
(276,306,cs),
(276,600,l),
(186,600,l),
(186,316,ls),
(186,312,o),
(185,311,o),
(181,311,cs),
(43,311,l),
(43,213,l)
);
},
{
closed = 1;
nodes = (
(178,600,l),
(158,507,l),
(276,507,l),
(276,600,l)
);
},
{
closed = 1;
nodes = (
(35,600,l),
(15,507,l),
(138,507,l),
(138,600,l)
);
}
);
width = 296;
},
{
anchors = (
{
name = bottom;
pos = (274,0);
},
{
name = bottomleft;
pos = (109,0);
},
{
name = center;
pos = (339,140);
},
{
name = top;
pos = (274,500);
},
{
name = topleft;
pos = (109,500);
}
);
layerId = "E6A807D2-02F5-45B7-9AC8-B5230FFEC057";
shapes = (
{
closed = 1;
nodes = (
(61,-100,l),
(197,-100,l),
(197,600,l),
(61,600,l)
);
},
{
closed = 1;
nodes = (
(280,180,ls),
(336,180,o),
(374,217,o),
(374,273,cs),
(374,600,l),
(253,600,l),
(253,313,ls),
(253,309,o),
(252,308,o),
(248,308,cs),
(61,308,l),
(61,180,l)
);
},
{
closed = 1;
nodes = (
(241,600,l),
(219,467,l),
(374,467,l),
(374,600,l)
);
},
{
closed = 1;
nodes = (
(42,600,l),
(20,467,l),
(197,467,l),
(197,600,l)
);
}
);
width = 394;
},
{
anchors = (
{
name = bottom;
pos = (104,0);
},
{
name = bottomleft;
pos = (-1,0);
},
{
name = center;
pos = (155,187);
},
{
name = top;
pos = (104,500);
},
{
name = topleft;
pos = (-1,500);
}
);
layerId = "A98666DC-4638-42B6-8332-BBF4982DF0EF";
shapes = (
{
closed = 1;
nodes = (
(39,-80,l),
(92,-80,l),
(92,600,l),
(39,600,l)
);
},
{
closed = 1;
nodes = (
(114,238,ls),
(176,238,o),
(208,273,o),
(208,331,cs),
(208,600,l),
(155,600,l),
(155,326,ls),
(155,303,o),
(146,291,o),
(129,291,cs),
(39,291,l),
(39,238,l)
);
},
{
closed = 1;
nodes = (
(141,600,l),
(129,547,l),
(189,547,l),
(189,600,l)
);
},
{
closed = 1;
nodes = (
(27,600,l),
(15,547,l),
(73,547,l),
(73,600,l)
);
}
);
width = 228;
}
);
note = finaltsadihebrew;
unicode = 1509;
},
{
glyphname = "tsadi-hb";
lastChange = "2021-03-01 20:52:38 +0000";
layers = (
{
anchors = (
{
name = bottom;
pos = (156,0);
},
{
name = center;
pos = (69,187);
},
{
name = top;
pos = (166,600);
},
{
name = topleft;
pos = (-3,600);
}
);
layerId = "83682BA5-5A7B-4081-8B26-D550B6F33EEB";
shapes = (
{
closed = 1;
nodes = (
(20,0,l),
(208,0,ls),
(268,0,o),
(297,39,o),
(277,93,cs),
(225,257,o),
(170,431,o),
(116,600,c),
(23,565,l),
(194,68,l),
(226,93,l),
(20,93,l)
);
},
{
closed = 1;
nodes = (
(193,263,ls),
(253,263,o),
(287,313,o),
(287,356,cs),
(287,600,l),
(202,600,l),
(202,361,ls),
(202,357,o),
(201,356,o),
(197,356,cs),
(144,356,l),
(144,263,l)
);
},
{
closed = 1;
nodes = (
(30,600,l),
(10,507,l),
(116,507,l),
(116,600,l)
);
},
{
closed = 1;
nodes = (
(194,600,l),
(174,507,l),
(287,507,l),
(287,600,l)
);
}
);
width = 307;
},
{
anchors = (
{
name = bottom;
pos = (112,0);
},
{
name = center;
pos = (79,135);
},
{
name = top;
pos = (112,500);
},
{
name = topleft;
pos = (-11,500);
}
);
layerId = "A98666DC-4638-42B6-8332-BBF4982DF0EF";
shapes = (
{
closed = 1;
nodes = (
(16,0,l),
(159,0,ls),
(219,0,o),
(248,39,o),
(228,93,cs),
(176,257,o),
(131,431,o),
(77,600,c),
(32,574,l),
(196,28,l),
(204,53,l),
(16,53,l)
);
},
{
closed = 1;
nodes = (
(141,288,ls),
(203,288,o),
(235,318,o),
(235,376,cs),
(235,600,l),
(187,600,l),
(187,376,ls),
(187,350,o),
(176,336,o),
(156,336,cs),
(131,336,l),
(131,288,l)
);
},
{
closed = 1;
nodes = (
(27,600,l),
(15,547,l),
(77,547,l),
(77,600,l)
);
},
{
closed = 1;
nodes = (
(173,600,l),
(161,547,l),
(235,547,l),
(235,600,l)
);
}
);
width = 255;
},
{
anchors = (
{
name = bottom;
pos = (186,0);
},
{
name = center;
pos = (98,197);
},
{
name = top;
pos = (186,500);
},
{
name = topleft;
pos = (20,500);
}
);
layerId = "E6A807D2-02F5-45B7-9AC8-B5230FFEC057";
shapes = (
{
closed = 1;
nodes = (
(30,0,l),
(244,0,ls),
(326,0,o),
(360,53,o),
(329,133,cs),
(275,271,o),
(197,465,o),
(144,600,c),
(25,534,l),
(230,51,l),
(287,133,l),
(30,133,l)
);
},
{
closed = 1;
nodes = (
(258,230,ls),
(314,230,o),
(352,267,o),
(352,323,cs),
(352,600,l),
(236,600,l),
(236,358,ls),
(236,354,o),
(235,353,o),
(231,353,cs),
(200,353,l),
(200,230,l)
);
},
{
closed = 1;
nodes = (
(36,600,l),
(14,467,l),
(144,467,l),
(144,600,l)
);
},
{
closed = 1;
nodes = (
(224,600,l),
(208,467,l),
(352,467,l),
(352,600,l)
);
}
);
width = 372;
}
);
note = tsadihebrew;
unicode = 1510;
},
{
glyphname = "qof-hb";
lastChange = "2021-03-01 20:54:10 +0000";
layers = (
{
anchors = (
{
name = bottom;
pos = (159,0);
},
{
name = center;
pos = (141,300);
},
{
name = top;
pos = (147,600);
},
{
name = topleft;
pos = (47,600);
}
);
layerId = "83682BA5-5A7B-4081-8B26-D550B6F33EEB";
shapes = (
{
closed = 1;
nodes = (
(20,-80,l),
(113,-80,l),
(113,453,l),
(20,453,l)
);
},
{
closed = 1;
nodes = (
(164,231,ls),
(164,209,o),
(161,194,o),
(151,165,cs),
(91,0,l),
(186,0,l),
(246,165,ls),
(256,194,o),
(259,207,o),
(259,231,cs),
(259,600,l),
(164,600,l)
);
},
{
closed = 1;
nodes = (
(20,507,l),
(259,507,l),
(259,600,l),
(20,600,l)
);
}
);
width = 279;
},
{
anchors = (
{
name = bottom;
pos = (112,0);
},
{
name = center;
pos = (112,250);
},
{
name = top;
pos = (122,500);
},
{
name = topleft;
pos = (20,500);
}
);
layerId = "A98666DC-4638-42B6-8332-BBF4982DF0EF";
shapes = (
{
closed = 1;
nodes = (
(20,-80,l),
(74,-80,l),
(74,452,l),
(20,452,l)
);
},
{
closed = 1;
nodes = (
(170,267,ls),
(170,246,o),
(168,235,o),
(160,219,cs),
(56,0,l),
(110,0,l),
(214,219,ls),
(222,236,o),
(224,247,o),
(224,267,cs),
(224,600,l),
(170,600,l)
);
},
{
closed = 1;
nodes = (
(20,547,l),
(224,547,l),
(224,600,l),
(20,600,l)
);
}
);
width = 244;
},
{
anchors = (
{
name = bottom;
pos = (198,0);
},
{
name = center;
pos = (178,300);
},
{
name = top;
pos = (178,500);
},
{
name = topleft;
pos = (30,500);
}
);
layerId = "E6A807D2-02F5-45B7-9AC8-B5230FFEC057";
shapes = (
{
closed = 1;
nodes = (
(20,-100,l),
(156,-100,l),
(156,424,l),
(20,424,l)
);
},
{
closed = 1;
nodes = (
(199,240,ls),
(199,234,o),
(197,224,o),
(195,218,cs),
(117,0,l),
(253,0,l),
(330,218,ls),
(333,227,o),
(335,237,o),
(335,240,cs),
(335,600,l),
(199,600,l)
);
},
{
closed = 1;
nodes = (
(20,467,l),
(335,467,l),
(335,600,l),
(20,600,l)
);
}
);
width = 355;
},
{
anchors = (
{
name = bottom;
pos = (198,0);
},
{
name = center;
pos = (178,300);
},
{
name = top;
pos = (178,500);
},
{
name = topleft;
pos = (30,500);
}
);
associatedMasterId = "E6A807D2-02F5-45B7-9AC8-B5230FFEC057";
layerId = "69897810-B5AB-4DFA-8673-E464C3399E6D";
name = "19 Feb 21, 22:27";
shapes = (
{
closed = 1;
nodes = (
(20,-100,l),
(156,-100,l),
(156,424,l),
(20,424,l)
);
},
{
closed = 1;
nodes = (
(199,230,l),
(117,0,l),
(253,0,l),
(335,230,l),
(335,600,l),
(199,600,l)
);
},
{
closed = 1;
nodes = (
(20,467,l),
(335,467,l),
(335,600,l),
(20,600,l)
);
}
);
width = 355;
}
);
note = qofhebrew;
unicode = 1511;
},
{
glyphname = "resh-hb";
lastChange = "2021-03-01 20:54:30 +0000";
layers = (
{
anchors = (
{
name = bottom;
pos = (182,0);
},
{
name = center;
pos = (84,300);
},
{
name = top;
pos = (161,600);
},
{
name = topleft;
pos = (9,600);
}
);
layerId = "83682BA5-5A7B-4081-8B26-D550B6F33EEB";
shapes = (
{
closed = 1;
nodes = (
(161,0,l),
(254,0,l),
(254,600,l),
(161,600,l)
);
},
{
closed = 1;
nodes = (
(40,600,l),
(20,507,l),
(254,507,l),
(254,600,l)
);
}
);
width = 274;
},
{
anchors = (
{
name = bottom;
pos = (126,0);
},
{
name = center;
pos = (96,250);
},
{
name = top;
pos = (126,500);
},
{
name = topleft;
pos = (11,500);
}
);
layerId = "A98666DC-4638-42B6-8332-BBF4982DF0EF";
shapes = (
{
closed = 1;
nodes = (
(187,0,l),
(241,0,l),
(241,600,l),
(187,600,l)
);
},
{
closed = 1;
nodes = (
(27,600,l),
(15,547,l),
(241,547,l),
(241,600,l)
);
}
);
width = 261;
},
{
anchors = (
{
name = bottom;
pos = (163,0);
},
{
name = center;
pos = (110,300);
},
{
name = top;
pos = (163,500);
},
{
name = topleft;
pos = (12,500);
}
);
layerId = "E6A807D2-02F5-45B7-9AC8-B5230FFEC057";
shapes = (
{
closed = 1;
nodes = (
(180,0,l),
(316,0,l),
(316,600,l),
(180,600,l)
);
},
{
closed = 1;
nodes = (
(42,600,l),
(20,467,l),
(316,467,l),
(316,600,l)
);
}
);
width = 336;
}
);
note = reshhebrew;
unicode = 1512;
},
{
glyphname = "shin-hb";
lastChange = "2021-03-01 20:52:50 +0000";
layers = (
{
anchors = (
{
name = bottom;
pos = (228,0);
},
{
name = center;
pos = (152,300);
},
{
name = shin;
pos = (421,600);
},
{
name = sin;
pos = (65,600);
},
{
name = top;
pos = (231,600);
},
{
name = topleft;
pos = (51,600);
},
{
name = topright;
pos = (411,500);
}
);
layerId = "83682BA5-5A7B-4081-8B26-D550B6F33EEB";
shapes = (
{
closed = 1;
nodes = (
(327,0,ls),
(382,0,o),
(421,39,o),
(421,93,cs),
(421,600,l),
(326,600,l),
(326,98,ls),
(326,94,o),
(325,93,o),
(321,93,cs),
(30,93,l),
(30,0,l)
);
},
{
closed = 1;
nodes = (
(179,0,l),
(274,0,l),
(274,600,l),
(179,600,l)
);
},
{
closed = 1;
nodes = (
(30,0,l),
(125,0,l),
(125,600,l),
(30,600,l)
);
},
{
closed = 1;
nodes = (
(30,600,l),
(10,507,l),
(125,507,l),
(125,600,l)
);
},
{
closed = 1;
nodes = (
(167,600,l),
(147,507,l),
(274,507,l),
(274,600,l)
);
},
{
closed = 1;
nodes = (
(314,600,l),
(294,507,l),
(421,507,l),
(421,600,l)
);
}
);
width = 441;
},
{
anchors = (
{
name = bottom;
pos = (168,0);
},
{
name = center;
pos = (59,250);
},
{
name = shin;
pos = (315,600);
},
{
name = sin;
pos = (69,600);
},
{
name = top;
pos = (159,500);
},
{
name = topleft;
pos = (9,500);
},
{
name = topright;
pos = (305,500);
}
);
layerId = "A98666DC-4638-42B6-8332-BBF4982DF0EF";
shapes = (
{
closed = 1;
nodes = (
(211,0,ls),
(273,0,o),
(305,30,o),
(305,88,cs),
(305,600,l),
(252,600,l),
(252,88,ls),
(252,65,o),
(243,53,o),
(226,53,cs),
(32,53,l),
(32,0,l)
);
},
{
closed = 1;
nodes = (
(142,0,l),
(195,0,l),
(195,600,l),
(142,600,l)
);
},
{
closed = 1;
nodes = (
(32,0,l),
(85,0,l),
(85,600,l),
(32,600,l)
);
},
{
closed = 1;
nodes = (
(32,600,l),
(20,547,l),
(85,547,l),
(85,600,l)
);
},
{
closed = 1;
nodes = (
(130,600,l),
(118,547,l),
(195,547,l),
(195,600,l)
);
},
{
closed = 1;
nodes = (
(240,600,l),
(228,547,l),
(305,547,l),
(305,600,l)
);
}
);
width = 325;
},
{
anchors = (
{
name = bottom;
pos = (277,0);
},
{
name = center;
pos = (186,300);
},
{
name = shin;
pos = (504,600);
},
{
name = sin;
pos = (140,600);
},
{
name = top;
pos = (285,500);
},
{
name = topleft;
pos = (52,500);
},
{
name = topright;
pos = (512,500);
}
);
layerId = "E6A807D2-02F5-45B7-9AC8-B5230FFEC057";
shapes = (
{
closed = 1;
nodes = (
(436,0,ls),
(486,0,o),
(520,37,o),
(520,93,cs),
(520,600,l),
(394,600,l),
(394,138,ls),
(394,134,o),
(393,133,o),
(389,133,cs),
(32,133,l),
(32,0,l)
);
},
{
closed = 1;
nodes = (
(215,0,l),
(341,0,l),
(341,600,l),
(215,600,l)
);
},
{
closed = 1;
nodes = (
(32,0,l),
(158,0,l),
(158,600,l),
(32,600,l)
);
},
{
closed = 1;
nodes = (
(32,600,l),
(10,467,l),
(158,467,l),
(158,600,l)
);
},
{
closed = 1;
nodes = (
(203,600,l),
(181,467,l),
(341,467,l),
(341,600,l)
);
},
{
closed = 1;
nodes = (
(382,600,l),
(360,467,l),
(520,467,l),
(520,600,l)
);
}
);
width = 540;
}
);
note = shinhebrew;
unicode = 1513;
},
{
glyphname = "tav-hb";
lastChange = "2021-03-01 20:56:23 +0000";
layers = (
{
anchors = (
{
name = bottom;
pos = (225,0);
},
{
name = center;
pos = (189,300);
},
{
name = top;
pos = (193,600);
},
{
name = topleft;
pos = (59,600);
}
);
layerId = "83682BA5-5A7B-4081-8B26-D550B6F33EEB";
shapes = (
{
closed = 1;
nodes = (
(223,0,l),
(318,0,l),
(318,600,l),
(223,600,l)
);
},
{
closed = 1;
nodes = (
(59,98,ls),
(59,94,o),
(58,93,o),
(54,93,cs),
(11,93,l),
(11,0,l),
(60,0,ls),
(116,0,o),
(154,37,o),
(154,93,cs),
(154,600,l),
(59,600,l)
);
},
{
closed = 1;
nodes = (
(31,507,l),
(318,507,l),
(318,600,l),
(51,600,l)
);
}
);
width = 338;
},
{
anchors = (
{
name = bottom;
pos = (143,0);
},
{
name = center;
pos = (166,290);
},
{
name = top;
pos = (133,500);
},
{
name = topleft;
pos = (9,500);
}
);
layerId = "A98666DC-4638-42B6-8332-BBF4982DF0EF";
shapes = (
{
closed = 1;
nodes = (
(222,0,l),
(276,0,l),
(276,600,l),
(222,600,l)
);
},
{
closed = 1;
nodes = (
(57,88,ls),
(57,65,o),
(48,53,o),
(31,53,cs),
(15,53,l),
(15,0,l),
(16,0,ls),
(78,0,o),
(110,30,o),
(110,88,cs),
(110,600,l),
(57,600,l)
);
},
{
closed = 1;
nodes = (
(49,600,l),
(33,547,l),
(276,547,l),
(276,600,l)
);
}
);
width = 296;
},
{
anchors = (
{
name = bottom;
pos = (197,0);
},
{
name = center;
pos = (217,300);
},
{
name = top;
pos = (197,500);
},
{
name = topleft;
pos = (-12,508);
}
);
layerId = "E6A807D2-02F5-45B7-9AC8-B5230FFEC057";
shapes = (
{
closed = 1;
nodes = (
(238,0,l),
(374,0,l),
(374,600,l),
(238,600,l)
);
},
{
closed = 1;
nodes = (
(57,138,ls),
(57,134,o),
(56,133,o),
(52,133,cs),
(20,133,l),
(20,0,l),
(99,0,ls),
(155,0,o),
(193,37,o),
(193,93,cs),
(193,600,l),
(57,600,l)
);
},
{
closed = 1;
nodes = (
(52,600,l),
(30,467,l),
(364,467,l),
(364,600,l)
);
}
);
width = 394;
}
);
note = tavhebrew;
unicode = 1514;
},
{
glyphname = alef_shin;
lastChange = "2021-02-20 00:47:49 +0000";
layers = (
{
anchors = (
{
name = bottom;
pos = (470,0);
},
{
name = center;
pos = (304,267);
},
{
name = top;
pos = (533,583);
},
{
name = topleft;
pos = (82,600);
}
);
layerId = "83682BA5-5A7B-4081-8B26-D550B6F33EEB";
shapes = (
{
closed = 1;
nodes = (
(561,263,ls),
(616,263,o),
(655,302,o),
(655,356,cs),
(655,600,l),
(565,600,l),
(565,361,ls),
(565,357,o),
(564,356,o),
(560,356,cs),
(512,356,l),
(512,263,l)
);
},
{
closed = 1;
nodes = (
(430,159,l),
(430,507,l),
(422,507,l),
(562,0,l),
(657,0,l),
(487,600,l),
(335,600,l),
(335,159,l)
);
},
{
closed = 1;
nodes = (
(324,600,l),
(304,507,l),
(431,507,l),
(431,600,l)
);
},
{
closed = 1;
nodes = (
(40,0,l),
(135,0,l),
(135,600,l),
(40,600,l)
);
},
{
closed = 1;
nodes = (
(189,0,l),
(284,0,l),
(284,600,l),
(189,600,l)
);
},
{
closed = 1;
nodes = (
(337,0,ls),
(392,0,o),
(431,39,o),
(431,93,cs),
(431,600,l),
(336,600,l),
(336,98,ls),
(336,94,o),
(335,93,o),
(331,93,cs),
(40,93,l),
(40,0,l)
);
},
{
closed = 1;
nodes = (
(553,600,l),
(533,507,l),
(655,507,l),
(655,600,l)
);
},
{
closed = 1;
nodes = (
(40,600,l),
(20,507,l),
(135,507,l),
(135,600,l)
);
},
{
closed = 1;
nodes = (
(177,600,l),
(157,507,l),
(284,507,l),
(284,600,l)
);
}
);
width = 677;
},
{
anchors = (
{
name = bottom;
pos = (568,0);
},
{
name = center;
pos = (371,290);
},
{
name = top;
pos = (575,508);
},
{
name = topleft;
pos = (0,522);
}
);
layerId = "E6A807D2-02F5-45B7-9AC8-B5230FFEC057";
shapes = (
{
closed = 1;
nodes = (
(684,230,ls),
(740,230,o),
(778,267,o),
(778,323,cs),
(778,600,l),
(657,600,l),
(657,358,ls),
(657,354,o),
(656,353,o),
(652,353,cs),
(626,353,l),
(626,230,l)
);
},
{
closed = 1;
nodes = (
(518,231,l),
(524,508,l),
(461,508,l),
(642,0,l),
(778,0,l),
(568,600,l),
(396,600,l),
(396,231,l)
);
},
{
closed = 1;
nodes = (
(382,600,l),
(360,467,l),
(520,467,l),
(520,600,l)
);
},
{
closed = 1;
nodes = (
(32,0,l),
(158,0,l),
(158,600,l),
(32,600,l)
);
},
{
closed = 1;
nodes = (
(215,0,l),
(341,0,l),
(341,600,l),
(215,600,l)
);
},
{
closed = 1;
nodes = (
(436,0,ls),
(486,0,o),
(520,37,o),
(520,93,cs),
(520,600,l),
(394,600,l),
(394,138,ls),
(394,134,o),
(393,133,o),
(389,133,cs),
(32,133,l),
(32,0,l)
);
},
{
closed = 1;
nodes = (
(645,600,l),
(629,467,l),
(778,467,l),
(778,600,l)
);
},
{
closed = 1;
nodes = (
(32,600,l),
(10,467,l),
(158,467,l),
(158,600,l)
);
},
{
closed = 1;
nodes = (
(203,600,l),
(181,467,l),
(341,467,l),
(341,600,l)
);
}
);
width = 804;
},
{
anchors = (
{
name = bottom;
pos = (420,0);
},
{
name = center;
pos = (268,222);
},
{
name = top;
pos = (427,477);
},
{
name = topleft;
pos = (48,484);
}
);
layerId = "A98666DC-4638-42B6-8332-BBF4982DF0EF";
shapes = (
{
closed = 1;
nodes = (
(454,293,ls),
(516,293,o),
(548,323,o),
(548,381,cs),
(548,600,l),
(497,600,l),
(497,381,ls),
(497,357,o),
(487,344,o),
(469,344,cs),
(427,344,l),
(427,293,l)
);
},
{
closed = 1;
nodes = (
(355,130,l),
(355,524,l),
(354,524,l),
(508,0,l),
(561,0,l),
(385,600,l),
(302,600,l),
(302,130,l)
);
},
{
closed = 1;
nodes = (
(481,600,l),
(469,547,l),
(548,547,l),
(548,600,l)
);
},
{
closed = 1;
nodes = (
(60,0,l),
(113,0,l),
(113,600,l),
(60,600,l)
);
},
{
closed = 1;
nodes = (
(170,0,l),
(223,0,l),
(223,600,l),
(170,600,l)
);
},
{
closed = 1;
nodes = (
(261,0,ls),
(323,0,o),
(355,30,o),
(355,88,cs),
(355,600,l),
(302,600,l),
(302,88,ls),
(302,65,o),
(293,53,o),
(276,53,cs),
(60,53,l),
(60,0,l)
);
},
{
closed = 1;
nodes = (
(268,600,l),
(256,547,l),
(333,547,l),
(333,600,l)
);
},
{
closed = 1;
nodes = (
(60,600,l),
(48,547,l),
(113,547,l),
(113,600,l)
);
},
{
closed = 1;
nodes = (
(158,600,l),
(146,547,l),
(223,547,l),
(223,600,l)
);
}
);
width = 583;
},
{
anchors = (
{
name = bottom;
pos = (706,0);
},
{
name = center;
pos = (546,397);
},
{
name = top;
pos = (706,678);
},
{
name = topleft;
pos = (383,600);
}
);
associatedMasterId = "83682BA5-5A7B-4081-8B26-D550B6F33EEB";
layerId = "2399B3EE-60AC-4C19-90D8-AEA008608A6D";
name = "20 Feb 21, 2:37";
shapes = (
{
closed = 1;
nodes = (
(566,0,l),
(659,0,l),
(489,600,l),
(396,600,l)
);
},
{
closed = 1;
nodes = (
(558,263,l),
(613,263,o),
(652,302,o),
(652,356,c),
(652,600,l),
(559,600,l),
(559,314,l),
(601,356,l),
(509,356,l),
(509,263,l)
);
},
{
closed = 1;
nodes = (
(549,600,l),
(533,507,l),
(652,507,l),
(652,600,l)
);
},
{
pos = (10,0);
ref = "shin-hb";
}
);
width = 679;
},
{
associatedMasterId = "A98666DC-4638-42B6-8332-BBF4982DF0EF";
layerId = "0CF28B15-80F1-4AFA-9B76-2C0116A7668B";
name = "20 Feb 21, 2:39";
shapes = (
{
closed = 1;
nodes = (
(473,600,l),
(457,547,l),
(531,547,l),
(531,600,l)
);
},
{
closed = 1;
nodes = (
(456,283,ls),
(511,283,o),
(550,322,o),
(550,376,cs),
(550,600,l),
(497,600,l),
(497,324,l),
(519,346,l),
(446,346,l),
(446,283,l)
);
},
{
closed = 1;
nodes = (
(334,600,l),
(510,0,l),
(563,0,l),
(387,600,l)
);
},
{
closed = 1;
nodes = (
(182,0,l),
(235,0,l),
(235,600,l),
(182,600,l)
);
},
{
closed = 1;
nodes = (
(158,600,l),
(142,547,l),
(235,547,l),
(235,600,l)
);
},
{
closed = 1;
nodes = (
(280,600,l),
(264,547,l),
(357,547,l),
(357,600,l)
);
},
{
closed = 1;
nodes = (
(60,0,l),
(113,0,l),
(113,600,l),
(60,600,l)
);
},
{
closed = 1;
nodes = (
(36,600,l),
(20,547,l),
(113,547,l),
(113,600,l)
);
},
{
closed = 1;
nodes = (
(263,0,l),
(318,0,o),
(357,39,o),
(357,93,c),
(357,600,l),
(304,600,l),
(304,21,l),
(336,53,l),
(90,53,l),
(90,0,l)
);
}
);
width = 583;
},
{
associatedMasterId = "E6A807D2-02F5-45B7-9AC8-B5230FFEC057";
layerId = "272BE4D1-4CCB-4212-87E7-61FE04960DA0";
name = "20 Feb 21, 2:40";
shapes = (
{
closed = 1;
nodes = (
(461,0,l),
(516,0,o),
(555,39,o),
(555,93,c),
(555,600,l),
(422,600,l),
(422,51,l),
(504,133,l),
(65,133,l),
(65,0,l)
);
},
{
closed = 1;
nodes = (
(65,0,l),
(185,0,l),
(185,600,l),
(65,600,l)
);
},
{
closed = 1;
nodes = (
(250,0,l),
(370,0,l),
(370,600,l),
(250,600,l)
);
},
{
closed = 1;
nodes = (
(46,600,l),
(20,467,l),
(185,467,l),
(185,600,l)
);
},
{
closed = 1;
nodes = (
(231,600,l),
(205,467,l),
(370,467,l),
(370,600,l)
);
},
{
closed = 1;
nodes = (
(555,600,l),
(461,599,l),
(674,0,l),
(784,0,l),
(574,600,l),
(447,601,l)
);
},
{
closed = 1;
nodes = (
(416,600,l),
(390,467,l),
(555,467,l),
(555,600,l)
);
},
{
closed = 1;
nodes = (
(684,240,l),
(739,240,o),
(778,279,o),
(778,333,c),
(778,600,l),
(668,600,l),
(668,291,l),
(727,363,l),
(626,363,l),
(626,240,l)
);
},
{
closed = 1;
nodes = (
(649,600,l),
(633,467,l),
(778,467,l),
(778,600,l)
);
}
);
width = 804;
}
);
},
{
glyphname = zero;
lastChange = "2021-02-20 13:02:17 +0000";
layers = (
{
layerId = "83682BA5-5A7B-4081-8B26-D550B6F33EEB";
shapes = (
{
closed = 1;
nodes = (
(114,604,ls),
(58,605,o),
(20,565,o),
(20,511,cs),
(20,93,ls),
(20,39,o),
(59,0,o),
(114,0,cs),
(167,0,ls),
(222,0,o),
(261,39,o),
(261,93,cs),
(261,511,ls),
(261,565,o),
(222,604,o),
(167,604,cs)
);
},
{
closed = 1;
nodes = (
(115,506,ls),
(115,510,o),
(116,511,o),
(120,511,cs),
(165,511,ls),
(169,511,o),
(170,510,o),
(170,506,cs),
(170,98,ls),
(170,94,o),
(169,93,o),
(165,93,cs),
(118,93,ls),
(114,93,o),
(113,94,o),
(113,98,cs)
);
}
);
width = 281;
},
{
layerId = "E6A807D2-02F5-45B7-9AC8-B5230FFEC057";
shapes = (
{
closed = 1;
nodes = (
(114,604,ls),
(58,604,o),
(20,567,o),
(20,511,cs),
(20,93,ls),
(20,37,o),
(58,0,o),
(114,0,cs),
(236,0,ls),
(292,0,o),
(330,37,o),
(330,93,cs),
(330,511,ls),
(330,567,o),
(292,604,o),
(236,604,cs)
);
},
{
closed = 1;
nodes = (
(156,466,ls),
(156,470,o),
(157,471,o),
(161,471,cs),
(189,471,ls),
(193,471,o),
(194,470,o),
(194,466,cs),
(194,138,ls),
(194,134,o),
(193,133,o),
(189,133,cs),
(161,133,ls),
(157,133,o),
(156,134,o),
(156,138,cs)
);
}
);
width = 350;
},
{
layerId = "A98666DC-4638-42B6-8332-BBF4982DF0EF";
shapes = (
{
closed = 1;
nodes = (
(125,604,ls),
(56,604,o),
(20,568,o),
(20,500,cs),
(20,104,ls),
(20,36,o),
(56,0,o),
(125,0,cs),
(151,0,ls),
(220,0,o),
(256,36,o),
(256,104,cs),
(256,500,ls),
(256,568,o),
(220,604,o),
(151,604,cs)
);
},
{
closed = 1;
nodes = (
(73,500,ls),
(73,541,o),
(83,551,o),
(125,551,cs),
(151,551,ls),
(193,551,o),
(203,541,o),
(203,500,cs),
(203,104,ls),
(203,63,o),
(193,53,o),
(151,53,cs),
(125,53,ls),
(83,53,o),
(73,63,o),
(73,104,cs)
);
}
);
width = 276;
},
{
associatedMasterId = "83682BA5-5A7B-4081-8B26-D550B6F33EEB";
layerId = "C5F9AE80-0B0E-4A23-BFAD-AFF946A2914A";
name = "20 Feb 21, 15:00";
shapes = (
{
closed = 1;
nodes = (
(167,0,l),
(222,0,o),
(261,39,o),
(261,93,c),
(261,302,l),
(170,302,l),
(170,98,ls),
(170,94,o),
(169,93,o),
(165,93,cs),
(129,93,l),
(127,0,l)
);
},
{
closed = 1;
nodes = (
(163,93,l),
(118,93,ls),
(114,93,o),
(113,94,o),
(113,98,cs),
(115,302,l),
(20,302,l),
(20,93,l),
(20,39,o),
(59,0,o),
(114,0,c),
(163,0,l)
);
},
{
closed = 1;
nodes = (
(119,511,l),
(165,511,ls),
(169,511,o),
(170,510,o),
(170,506,cs),
(170,302,l),
(261,302,l),
(261,511,l),
(261,565,o),
(222,604,o),
(167,604,c),
(117,604,l)
);
},
{
closed = 1;
nodes = (
(114,604,l),
(58,605,o),
(20,565,o),
(20,511,c),
(20,302,l),
(115,302,l),
(115,506,ls),
(115,510,o),
(116,511,o),
(120,511,cs),
(139,511,l),
(139,604,l)
);
}
);
width = 281;
},
{
associatedMasterId = "A98666DC-4638-42B6-8332-BBF4982DF0EF";
layerId = "DD1BC563-0712-4E06-8F12-4FA91CEE42BE";
name = "20 Feb 21, 15:00";
shapes = (
{
closed = 1;
nodes = (
(135,551,l),
(188,551,o),
(102,551,o),
(151,551,cs),
(193,551,o),
(203,541,o),
(203,500,cs),
(203,290,l),
(256,290,l),
(256,500,ls),
(256,568,o),
(220,604,o),
(151,604,cs),
(135,604,l)
);
},
{
closed = 1;
nodes = (
(125,604,ls),
(56,604,o),
(20,568,o),
(20,500,cs),
(20,290,l),
(73,290,l),
(73,500,ls),
(73,541,o),
(83,551,o),
(125,551,cs),
(174,551,o),
(88,551,o),
(141,551,c),
(141,604,l)
);
},
{
closed = 1;
nodes = (
(151,0,ls),
(220,0,o),
(256,36,o),
(256,104,cs),
(256,290,l),
(203,290,l),
(203,104,ls),
(203,63,o),
(193,53,o),
(151,53,cs),
(102,53,o),
(188,53,o),
(135,53,c),
(135,0,l)
);
},
{
closed = 1;
nodes = (
(141,53,l),
(88,53,o),
(174,53,o),
(125,53,cs),
(83,53,o),
(73,63,o),
(73,104,cs),
(73,290,l),
(20,290,l),
(20,104,ls),
(20,36,o),
(56,0,o),
(125,0,cs),
(141,0,l)
);
}
);
width = 276;
}
);
note = zero;
unicode = 48;
},
{
glyphname = one;
lastChange = "2021-02-19 11:53:42 +0000";
layers = (
{
layerId = "83682BA5-5A7B-4081-8B26-D550B6F33EEB";
shapes = (
{
closed = 1;
nodes = (
(56,0,l),
(151,0,l),
(151,600,l),
(56,600,l)
);
},
{
closed = 1;
nodes = (
(22,93,l),
(22,0,l),
(180,0,l),
(180,93,l)
);
},
{
closed = 1;
nodes = (
(40,600,l),
(20,507,l),
(151,507,l),
(151,600,l)
);
}
);
width = 200;
},
{
layerId = "E6A807D2-02F5-45B7-9AC8-B5230FFEC057";
shapes = (
{
closed = 1;
nodes = (
(191,0,l),
(191,600,l),
(55,600,l),
(55,0,l)
);
},
{
closed = 1;
nodes = (
(223,0,l),
(223,133,l),
(24,133,l),
(24,0,l)
);
},
{
closed = 1;
nodes = (
(191,467,l),
(191,600,l),
(42,600,l),
(20,467,l)
);
}
);
width = 243;
},
{
layerId = "A98666DC-4638-42B6-8332-BBF4982DF0EF";
shapes = (
{
closed = 1;
nodes = (
(60,0,l),
(113,0,l),
(113,600,l),
(60,600,l)
);
},
{
closed = 1;
nodes = (
(28,53,l),
(28,0,l),
(144,0,l),
(144,53,l)
);
},
{
closed = 1;
nodes = (
(36,600,l),
(20,547,l),
(113,547,l),
(113,600,l)
);
}
);
width = 164;
}
);
note = one;
unicode = 49;
},
{
glyphname = two;
lastChange = "2021-02-20 13:14:25 +0000";
layers = (
{
layerId = "83682BA5-5A7B-4081-8B26-D550B6F33EEB";
shapes = (
{
closed = 1;
nodes = (
(20,507,l),
(147,507,ls),
(151,507,o),
(152,506,o),
(152,502,cs),
(152,415,l),
(247,415,l),
(247,507,ls),
(247,563,o),
(209,600,o),
(153,600,cs),
(20,600,l)
);
},
{
closed = 1;
nodes = (
(247,470,l),
(152,470,l),
(152,357,ls),
(152,353,o),
(151,352,o),
(147,352,cs),
(110,352,l),
(110,259,l),
(153,259,ls),
(209,259,o),
(247,296,o),
(247,352,cs)
);
},
{
closed = 1;
nodes = (
(20,0,l),
(115,0,l),
(115,254,ls),
(115,258,o),
(116,259,o),
(120,259,cs),
(127,259,l),
(127,352,l),
(114,352,ls),
(58,352,o),
(20,315,o),
(20,259,cs)
);
},
{
closed = 1;
nodes = (
(247,93,l),
(20,93,l),
(20,0,l),
(247,0,l)
);
}
);
width = 267;
},
{
layerId = "E6A807D2-02F5-45B7-9AC8-B5230FFEC057";
shapes = (
{
closed = 1;
nodes = (
(20,467,l),
(146,467,ls),
(150,467,o),
(151,466,o),
(151,462,cs),
(151,398,l),
(287,398,l),
(287,507,ls),
(287,563,o),
(249,600,o),
(193,600,cs),
(20,600,l)
);
},
{
closed = 1;
nodes = (
(287,410,l),
(151,410,l),
(151,376,ls),
(151,372,o),
(150,371,o),
(146,371,cs),
(130,371,l),
(130,238,l),
(193,238,ls),
(249,238,o),
(287,275,o),
(287,331,cs)
);
},
{
closed = 1;
nodes = (
(20,0,l),
(156,0,l),
(156,233,ls),
(156,237,o),
(157,238,o),
(161,238,cs),
(171,238,l),
(171,371,l),
(114,371,ls),
(58,371,o),
(20,334,o),
(20,278,cs)
);
},
{
closed = 1;
nodes = (
(287,133,l),
(20,133,l),
(20,0,l),
(287,0,l)
);
}
);
width = 307;
},
{
layerId = "A98666DC-4638-42B6-8332-BBF4982DF0EF";
shapes = (
{
closed = 1;
nodes = (
(30,547,l),
(152,547,ls),
(194,547,o),
(204,537,o),
(204,496,cs),
(204,428,l),
(257,428,l),
(257,496,ls),
(257,564,o),
(221,600,o),
(152,600,cs),
(30,600,l)
);
},
{
closed = 1;
nodes = (
(257,450,l),
(204,450,l),
(204,382,ls),
(204,341,o),
(194,331,o),
(152,331,cs),
(137,331,l),
(137,278,l),
(152,278,ls),
(221,278,o),
(257,314,o),
(257,382,cs)
);
},
{
closed = 1;
nodes = (
(20,0,l),
(73,0,l),
(73,227,ls),
(73,268,o),
(83,278,o),
(125,278,cs),
(137,278,l),
(137,331,l),
(125,331,ls),
(56,331,o),
(20,295,o),
(20,227,cs)
);
},
{
closed = 1;
nodes = (
(247,53,l),
(20,53,l),
(20,0,l),
(247,0,l)
);
}
);
width = 277;
}
);
note = two;
unicode = 50;
},
